<svg width="44" height="44" viewBox="0 0 44 44" fill="none" xmlns="http://www.w3.org/2000/svg">
<path d="M44 44H0V0H44V44ZM0.862745 43.1373H43.1373V0.862745H0.862745V43.1373Z" fill="#19838C"/>
<path d="M22.5436 24.752C22.5276 24.592 22.5276 24.528 22.5276 24.448C22.5276 23.824 22.7356 23.248 23.2316 22.912L23.9676 22.416C24.8956 21.792 25.5996 20.912 25.5996 19.632C25.5996 18 24.3356 16.416 22.0956 16.416C19.6316 16.416 18.5596 18.224 18.5596 19.696C18.5596 19.984 18.5916 20.24 18.6556 20.464L20.2076 20.656C20.1436 20.48 20.0956 20.144 20.0956 19.872C20.0956 18.864 20.7036 17.824 22.0956 17.824C23.3756 17.824 23.9996 18.704 23.9996 19.648C23.9996 20.272 23.6956 20.848 23.1516 21.216L22.4476 21.696C21.5036 22.336 21.1196 23.136 21.1196 24.192C21.1196 24.4 21.1196 24.56 21.1356 24.752H22.5436ZM20.7836 27.04C20.7836 27.616 21.2476 28.08 21.8236 28.08C22.3996 28.08 22.8796 27.616 22.8796 27.04C22.8796 26.464 22.3996 25.984 21.8236 25.984C21.2476 25.984 20.7836 26.464 20.7836 27.04Z" fill="#19838C"/>
</svg>
