<svg width="44" height="44" viewBox="0 0 44 44" fill="none" xmlns="http://www.w3.org/2000/svg">
<path d="M44 44H0V0H44V44ZM0.862745 43.1373H43.1373V0.862745H0.862745V43.1373Z" fill="#19838C"/>
<path fill-rule="evenodd" clip-rule="evenodd" d="M9.75 9.75H13V10.2206H13.3529V10.7206H10.7206V13.3529H10.2206V13H9.75V9.75ZM19.1176 10.25H19V9.75H25V10.25H24.8824V10.7206H19.1176V10.25ZM33.7794 13H34.25V9.75H31V10.2206H30.6471V10.7206H33.2794V13.3529H33.7794V13ZM10.25 24.8824V25H9.75V19H10.25V19.1176H10.7206V24.8824H10.25ZM33.75 19.1176V19H34.25V25H33.75V24.8824H33.2794V19.1176H33.75ZM10.7206 33.2794H13.3529V33.7794H13V34.25H9.75V31H10.2206V30.6471H10.7206V33.2794ZM33.2794 33.2794V30.6471H33.7794V31H34.25V34.25H31V33.7794H30.6471V33.2794H33.2794ZM19.1176 33.2794H24.8824V33.75H25V34.25H19V33.75H19.1176V33.2794Z" fill="#19838C"/>
</svg>
