<svg width="44" height="44" viewBox="0 0 44 44" fill="none" xmlns="http://www.w3.org/2000/svg">
<path d="M44 44H0V0H44V44ZM0.862745 43.1373H43.1373V0.862745H0.862745V43.1373Z" fill="#19838C"/>
<path fill-rule="evenodd" clip-rule="evenodd" d="M14.75 14.75H18.5V15.0245H18.6373V15.5245H15.5245V18.6373H15.0245V18.5H14.75V14.75ZM28.9755 18.5H29.25V14.75H25.5V15.0245H25.3627V15.5245H28.4755V18.6373H28.9755V18.5ZM15.5245 28.4755H18.6373V28.9755H18.5V29.25H14.75V25.5H15.0245V25.3627H15.5245V28.4755ZM28.4755 28.4755V25.3627H28.9755V25.5H29.25V29.25H25.5V28.9755H25.3627V28.4755H28.4755Z" fill="#19838C"/>
</svg>
