<?xml version="1.0" encoding="UTF-8" standalone="no"?>
<!DOCTYPE svg PUBLIC "-//W3C//DTD SVG 1.1//EN" "http://www.w3.org/Graphics/SVG/1.1/DTD/svg11.dtd">
<svg width="100%" height="100%" viewBox="0 0 35 35" version="1.1" xmlns="http://www.w3.org/2000/svg" xmlns:xlink="http://www.w3.org/1999/xlink" xml:space="preserve" style="fill-rule:evenodd;clip-rule:evenodd;stroke-linejoin:round;stroke-miterlimit:2;">
    <path d="M17.5,0c-9.659,0 -17.5,7.841 -17.5,17.5c0,9.659 7.841,17.5 17.5,17.5c9.659,0 17.5,-7.841 17.5,-17.5c0,-9.659 -7.841,-17.5 -17.5,-17.5Zm0,1.4c8.886,0 16.1,7.214 16.1,16.1c0,8.886 -7.214,16.1 -16.1,16.1c-8.886,0 -16.1,-7.214 -16.1,-16.1c0,-8.886 7.214,-16.1 16.1,-16.1Zm-2.393,16.688c-1.796,-0.967 -2.938,-2.851 -2.948,-4.909l0,-0.004c0.077,-3.109 2.673,-5.616 5.783,-5.586l1.142,0.095c2.601,0.487 4.622,2.753 4.695,5.491l0,0.004c-0.009,2.072 -1.175,3.963 -2.995,4.91c3.139,0.918 5.601,3.403 6.479,6.571c0.08,0.285 0.141,0.574 0.184,0.867l0.023,0.16l-0.719,0l-0.897,-0.01l-0.03,-0.097c-0.083,-0.26 -0.113,-0.307 -0.168,-0.509c-0.993,-3.415 -4.158,-5.771 -7.717,-5.742c-3.542,-0.026 -6.689,2.333 -7.656,5.741l-0.171,0.611l-1.622,0l0.01,-0.15c0.022,-0.301 0.073,-0.598 0.154,-0.889c0.883,-3.152 3.33,-5.627 6.453,-6.554Zm-1.272,-4.909c0.033,2.183 1.838,3.962 4.021,3.962c0,0 0.208,0.001 0.207,0.001c2.178,0 3.973,-1.786 3.985,-3.961c-0.031,-2.184 -1.836,-3.964 -4.019,-3.964l-0.091,0.001c-2.207,-0.025 -4.05,1.755 -4.103,3.961Z" style="fill:#21B8C7;"/>
</svg>
