<?xml version="1.0" encoding="UTF-8" standalone="no"?>
<!DOCTYPE svg PUBLIC "-//W3C//DTD SVG 1.1//EN" "http://www.w3.org/Graphics/SVG/1.1/DTD/svg11.dtd">
<svg width="100%" height="100%" viewBox="0 0 26 26" version="1.1" xmlns="http://www.w3.org/2000/svg" xmlns:xlink="http://www.w3.org/1999/xlink" xml:space="preserve" style="fill-rule:evenodd;clip-rule:evenodd;stroke-linejoin:round;stroke-miterlimit:2;">
    <path id="Assembly" d="M7.935,9.024l0,-5.737c0.005,-0.017 10.077,0.005 10.078,0.016l0,5.669l3.975,0.014l0.019,5.794c0,0 3.993,0.016 3.993,0.022c0,5.86 -0.008,6.98 -0.008,8.031c-0.001,0.016 -25.992,0.001 -25.992,-0.008l0,-7.987c0,0.007 3.941,-0.006 3.941,-0.006l0,-5.798c-0.002,0 3.994,-0.01 3.994,-0.01Zm10.13,7.848l0,3.665l5.791,0l0,-3.665l-5.791,0Zm-7.986,0l0,3.665l5.842,0l0,-3.665l-5.842,0Zm-7.935,0l0,3.665l5.843,0l0,-3.665l-5.843,0Zm11.928,-5.756l0,3.664l5.843,0l0,-3.664l-5.843,0Zm-7.935,0l0,3.664l5.791,0l0,-3.664l-5.791,0Zm3.942,-5.757l0,3.665l5.79,0l0,-3.665l-5.79,0Z" style="fill:#120b31;fill-rule:nonzero;"/>
</svg>
