<?xml version="1.0" encoding="UTF-8"?>
<svg width="44px" height="44px" viewBox="0 0 44 44" version="1.1" xmlns="http://www.w3.org/2000/svg" xmlns:xlink="http://www.w3.org/1999/xlink">
    <!-- Generator: sketchtool 61.2 (101010) - https://sketch.com -->
    <title>C6D79A9C-FC15-4819-8A01-6491170840E9@1.00x</title>
    <desc>Created with sketchtool.</desc>
    <g id="Symbols" stroke="none" stroke-width="1" fill="none" fill-rule="evenodd">
        <g id="HEADER" transform="translate(-1316.000000, -40.000000)">
            <g transform="translate(0.000000, -1.000000)" id="Button/settings">
                <g transform="translate(1316.760010, 41.680000)">
                    <g>
                        <rect id="Rectangle" fill="#120B31" x="0" y="0" width="43" height="43" rx="4"></rect>
                        <g id="Group" transform="translate(9.460000, 11.883636)" fill="#ECECEC" fill-rule="nonzero">
                            <polygon id="Path" points="11.1929589 0 11.1929589 5.19722231 8.90686388 5.19722231 8.90686388 7.18342192 11.1929589 7.18342192 11.1929589 19.0013096 13.152469 19.0013096 13.152469 7.18342192 15.4385641 7.18342192 15.4385641 5.19722231 13.152469 5.19722231 13.152469 0"></polygon>
                            <polygon id="Path" points="20.0998228 0 20.0998228 11.8178877 17.8137278 11.8178877 17.8137278 13.8040873 20.0998228 13.8040873 20.0998228 19.0013096 22.0593329 19.0013096 22.0593329 13.8040873 24.3454279 13.8040873 24.3454279 11.8178877 22.0593329 11.8178877 22.0593329 0"></polygon>
                            <polygon id="Path" points="2.28609506 0 2.28609506 11.8178877 0 11.8178877 0 13.8040873 2.28609506 13.8040873 2.28609506 19.0013096 4.24560512 19.0013096 4.24560512 13.8040873 6.53170018 13.8040873 6.53170018 11.8178877 4.24560512 11.8178877 4.24560512 0"></polygon>
                        </g>
                    </g>
                </g>
            </g>
        </g>
    </g>
</svg>