<?xml version="1.0" encoding="UTF-8"?>
<svg width="44px" height="44px" viewBox="0 0 44 44" version="1.1" xmlns="http://www.w3.org/2000/svg" xmlns:xlink="http://www.w3.org/1999/xlink">
    <!-- Generator: sketchtool 61.2 (101010) - https://sketch.com -->
    <title>103F2351-5BF2-46A4-8F53-DDC8E44227F2@1.00x</title>
    <desc>Created with sketchtool.</desc>
    <g id="Symbols" stroke="none" stroke-width="1" fill="none" fill-rule="evenodd">
        <g id="HEADER" transform="translate(-1449.000000, -41.000000)">
            <g transform="translate(0.000000, -1.000000)" id="Button/user">
                <g transform="translate(1449.440011, 42.680000)">
                    <g>
                        <rect id="Rectangle" fill="#120B31" x="0" y="0" width="43" height="43" rx="4"></rect>
                        <path d="M12.4864276,30.6795174 C12.4523232,30.8030787 12.3912172,31.0275569 12.3235479,31.2651878 C11.9439863,31.2781071 11.692944,31.2651878 11.4907194,31.2651878 C11.2181254,31.2651878 11.1743066,31.2618634 10.75,31.2618634 C10.8085939,30.7205961 10.855173,30.4820808 10.9216248,30.2702399 C11.9262334,26.5172788 14.9644622,23.6912451 18.648027,22.7206517 C16.504862,21.7500583 14.9644622,19.5500466 14.9644622,17.0265039 C14.9644622,13.5970739 17.9113141,10.75 21.4609311,10.75 C25.0775221,10.75 28.024374,13.5970739 28.024374,17.0265039 C28.024374,19.5500466 26.4839742,21.7500583 24.2738352,22.7206517 C28.024374,23.6912451 31.0381998,26.538319 32.0428084,30.2912801 C32.101929,30.5054757 32.2285425,31.0270006 32.25,31.2694524 C31.9363131,31.2698948 31.7740161,31.2667008 31.6107709,31.2727273 C31.2512251,31.2669387 30.8828753,31.264634 30.6941791,31.262479 C30.5995076,30.965657 30.5666942,30.9124259 30.5024086,30.6795174 C29.4308261,26.7324377 25.6802873,23.95007 21.4609311,23.95007 C17.241575,23.95007 13.5580101,26.7324377 12.4864276,30.6795174 Z M21.4609311,12.3029494 C18.7819749,12.3029494 16.5718359,14.4382548 16.5718359,17.0265039 C16.5718359,19.6794591 18.7819749,21.7500583 21.4609311,21.7500583 C24.2068613,21.7500583 26.3500263,19.6794591 26.3500263,17.0265039 C26.3500263,14.4382548 24.2068613,12.3029494 21.4609311,12.3029494 Z" id="Shape" stroke="#FFFFFF" stroke-width="0.3" fill="#FFFFFF" fill-rule="nonzero"></path>
                    </g>
                </g>
            </g>
        </g>
    </g>
</svg>