<?xml version="1.0" encoding="UTF-8" standalone="no"?>
<!DOCTYPE svg PUBLIC "-//W3C//DTD SVG 1.1//EN" "http://www.w3.org/Graphics/SVG/1.1/DTD/svg11.dtd">
<svg width="100%" height="100%" viewBox="0 0 26 26" version="1.1" xmlns="http://www.w3.org/2000/svg" xmlns:xlink="http://www.w3.org/1999/xlink" xml:space="preserve" style="fill-rule:evenodd;clip-rule:evenodd;stroke-linejoin:round;stroke-miterlimit:2;">
    <path id="Configurator" d="M16.634,5.078l-2.821,2.289l0,-7.367l-13.813,0l0,26l26,0l0,-13.391l-9.366,-7.531Zm-15.009,19.08l0,-22.539l10.563,0l0,6.918l-4.865,3.905l0,11.661l-5.698,0.055Zm22.701,0l-15.43,0l0,-10.823l7.689,-6.194l7.741,6.194l0,10.823Zm-13.256,-5.741l3.047,0l0,2.166l-3.047,0l0,-2.166Zm0,-3.25l3.047,0l0,2.166l-3.047,0l0,-2.166Zm-8.125,-2.167l3.047,0l0,2.167l-3.047,0l0,-2.167Zm0,-3.25l3.047,0l0,2.167l-3.047,0l0,-2.167Zm0,-3.25l3.047,0l0,2.167l-3.047,0l0,-2.167Zm5.078,0l3.047,0l0,2.167l-3.047,0l0,-2.167Zm-5.078,-3.25l3.047,0l0,2.167l-3.047,0l0,-2.167Zm5.078,0l3.047,0l0,2.167l-3.047,0l0,-2.167Z" style="fill:#120b31;fill-rule:nonzero;"/>
</svg>
