<?xml version="1.0" encoding="UTF-8" standalone="no"?>
<!DOCTYPE svg PUBLIC "-//W3C//DTD SVG 1.1//EN" "http://www.w3.org/Graphics/SVG/1.1/DTD/svg11.dtd">
<svg width="100%" height="100%" viewBox="0 0 16 16" version="1.1" xmlns="http://www.w3.org/2000/svg" xmlns:xlink="http://www.w3.org/1999/xlink" style="fill-rule:evenodd;clip-rule:evenodd;stroke-linejoin:round;stroke-miterlimit:2;">
    <path id="summary" d="M13.02,14.633l0,-5.62l1.358,-1.358l0,7.664c0,0.374 -0.307,0.681 -0.681,0.681l-13.016,0c-0.374,0 -0.681,-0.307 -0.681,-0.681c0,0 0,-13.016 0,-13.018c0.003,-0.366 0.3,-0.667 0.668,-0.675l7.667,0l-1.357,1.358l-5.62,0l0,11.649l11.662,0Zm-8.45,-6.338l-0.538,2.868c-0.008,0.042 -0.011,0.084 -0.011,0.127c0,0.378 0.311,0.689 0.689,0.689c0.043,0 0.085,-0.004 0.127,-0.011c0,0 2.868,-0.539 2.868,-0.539c0.137,-0.025 0.262,-0.091 0.361,-0.19c0,0 7.549,-7.549 7.549,-7.549c0.271,-0.271 0.399,-0.642 0.384,-1.056c-0.021,-0.565 -0.316,-1.219 -0.863,-1.769c-0.547,-0.55 -1.202,-0.844 -1.768,-0.865c-0.415,-0.015 -0.787,0.114 -1.058,0.385c0,0 -7.55,7.549 -7.55,7.549c-0.098,0.098 -0.164,0.224 -0.19,0.361l0,0Zm10.058,-5.564c0.001,-0.021 0.003,-0.09 -0.008,-0.14c-0.044,-0.21 -0.19,-0.487 -0.455,-0.752c-0.265,-0.265 -0.543,-0.412 -0.752,-0.456c-0.051,-0.011 -0.12,-0.009 -0.142,-0.008l-7.385,7.383l-0.311,1.665l1.671,-0.31l7.382,-7.382Z" style="fill:#110a31;"/>
</svg>
