<svg width="14" height="14" viewBox="0 0 14 14" fill="none" xmlns="http://www.w3.org/2000/svg">
<path d="M12.4601 9.49574L12.4101 9.49574L12.4101 9.54574L12.4101 11.7928L7.45708 6.83976L12.3779 1.9189L12.4101 4.20212L12.4108 4.2544L12.463 4.25133L13.038 4.21751L13.0851 4.21474L13.0851 4.1676L13.0851 0.785114L13.0851 0.735114L13.0351 0.735113L9.65263 0.735113L9.60263 0.735114L9.60263 0.785113V1.39396L9.60263 1.44396L9.65263 1.44396L11.8997 1.44396L6.98047 6.36315L2.06128 1.44396L4.30831 1.44396L4.35831 1.44396L4.35831 1.39396V0.785113L4.35831 0.735114L4.30831 0.735113L0.925824 0.735113L0.875824 0.735114L0.875824 0.785114L0.875825 4.1676L0.875825 4.21474L0.922889 4.21751L1.49791 4.25133L1.55011 4.2544L1.55084 4.20212L1.583 1.9189L6.50386 6.83976L1.55085 11.7928L1.55085 9.54574L1.55085 9.49574L1.50085 9.49574L0.892001 9.49574H0.842001L0.842 9.54574L0.842002 12.9282L0.842001 12.9782L0.892002 12.9782H4.27448H4.32163L4.3244 12.9312L4.35822 12.3561L4.36129 12.3039L4.30901 12.3032L2.02578 12.2711L6.98047 7.31637L11.9352 12.2711L9.65193 12.3032L9.59965 12.3039L9.60272 12.3561L9.63654 12.9312L9.63931 12.9782H9.68645H13.0689L13.1189 12.9782L13.1189 12.9282L13.1189 9.54574L13.1189 9.49574H13.0689L12.4601 9.49574Z" fill="#1C252C" stroke="#1C252C" stroke-width="0.1"/>
</svg>
