<?xml version="1.0" encoding="UTF-8" standalone="no"?>
<!DOCTYPE svg PUBLIC "-//W3C//DTD SVG 1.1//EN" "http://www.w3.org/Graphics/SVG/1.1/DTD/svg11.dtd">
<svg width="100%" height="100%" viewBox="0 0 50 40" version="1.1" xmlns="http://www.w3.org/2000/svg" xmlns:xlink="http://www.w3.org/1999/xlink" xml:space="preserve" style="fill-rule:evenodd;clip-rule:evenodd;stroke-linejoin:round;stroke-miterlimit:2;">
    <path id="Path" d="M14.618,39.993c2.925,0.088 5.813,-0.678 8.306,-2.2c2.289,-1.467 3.987,-3.906 5.094,-7.316l-6.918,0c-0.393,1.047 -1.134,1.93 -2.1,2.502c-1.209,0.808 -2.643,1.222 -4.1,1.182c-1.86,0.127 -3.695,-0.487 -5.1,-1.704c-1.181,-1.138 -1.826,-2.971 -1.937,-5.5l20.653,0c0.154,-2.125 -0.033,-4.261 -0.554,-6.327c-0.481,-1.944 -1.336,-3.776 -2.519,-5.397c-1.17,-1.583 -2.697,-2.874 -4.457,-3.768c-1.977,-0.972 -4.163,-1.451 -6.368,-1.398c-2.043,-0.026 -4.069,0.367 -5.952,1.156c-3.531,1.478 -6.29,4.348 -7.614,7.921c-0.713,1.9 -1.07,3.913 -1.052,5.941c-0.024,2.061 0.323,4.111 1.024,6.051c0.635,1.757 1.625,3.367 2.907,4.731c1.288,1.342 2.859,2.385 4.6,3.053c1.942,0.739 4.008,1.103 6.087,1.073Zm35.382,-0.715l0,-28.441l-7.863,0l0,28.441l7.863,0Zm-11.517,0l0,-39.278l-7.863,0l0,39.278l7.863,0Zm-17.829,-17.273c-0.223,-1.655 -0.903,-3.217 -1.966,-4.511c-1.139,-1.104 -2.705,-1.666 -4.291,-1.54c-1.079,-0.038 -2.151,0.179 -3.129,0.632c-0.77,0.374 -1.45,0.909 -1.993,1.568c-0.478,0.585 -0.836,1.258 -1.052,1.98c-0.187,0.609 -0.307,1.236 -0.36,1.871l12.791,0Zm29.346,-22.005l-7.863,0l0,8.091l7.863,-8.091Z" style="fill:#21B8C7;"/>
</svg>
