<svg width="40px" height="40px" xmlns="http://www.w3.org/2000/svg" viewBox="0 0 40.2 39.5">
  <defs>
    <style>
      .a {
        fill: #bdccd4;
        opacity: 0.5;
      }

      .b {
        fill: #fff;
      }

      .b, .c, .d, .e {
        stroke: #000;
        stroke-linecap: round;
        stroke-linejoin: round;
        stroke-width: 0.42px;
      }

      .c {
        fill: #3fa9f5;
      }

      .d {
        fill: #3cb971;
      }

      .e {
        fill: #8555e0;
      }
    </style>
  </defs>
  <g>
    <path class="a" d="M168.1,160.8h0a18.2,18.2,0,1,1-16.8-25.1v18.1Z" transform="translate(-131.8 -133.8)"/>
    <path class="a" d="M172,152a17.8,17.8,0,0,1-1.4,7l-16.8-7V133.8A18.2,18.2,0,0,1,172,152Z" transform="translate(-131.8 -133.8)"/>
    <path class="b" d="M162.9,167.9a17.9,17.9,0,0,1-12.7,5.3,18.2,18.2,0,0,1,0-36.4V155l16.8,7h0a27.1,27.1,0,0,1-2.1,3.7" transform="translate(-131.8 -133.8)"/>
    <path class="c" d="M163.4,167.5h0" transform="translate(-131.8 -133.8)"/>
    <path class="c" d="M164.1,166.7h-.2" transform="translate(-131.8 -133.8)"/>
    <path class="d" d="M164.2,158l-11.5-4.8V135a18.2,18.2,0,0,1,18.2,18.2,17.7,17.7,0,0,1-1.4,6.9l-2.5-1" transform="translate(-131.8 -133.8)"/>
    <line class="e" x1="33.5" y1="24.6" x2="33.4" y2="24.5"/>
    <line class="e" x1="34.5" y1="25" x2="34" y2="24.8"/>
    <polygon class="b" points="35.2 28.1 35.2 28.1 35.2 28.1 35.2 28.1"/>
  </g>
</svg>
