<svg width="20" height="19" viewBox="0 0 20 19" fill="none" xmlns="http://www.w3.org/2000/svg">
<path d="M17.5393 17.9993L2.46153 17.9993C1.63179 17.9993 0.956543 17.3522 0.956543 16.5578L0.956543 2.10829C0.956543 1.31313 1.63179 0.666016 2.46153 0.666016L7.73915 0.666016C8.15515 0.666016 8.49277 0.989571 8.49277 1.38824C8.49277 1.7869 8.15515 2.11046 7.73915 2.11046L2.46153 2.11046L2.46379 16.5578L17.5393 16.5549L17.5363 11.4993C17.5363 11.1 17.8731 10.7771 18.2899 10.7771C18.7066 10.7771 19.0435 11.1 19.0435 11.4993V16.5578C19.0435 17.3522 18.3683 17.9993 17.5393 17.9993ZM8.49277 11.4993C8.29985 11.4993 8.10692 11.4286 7.95996 11.2877C7.6653 11.0053 7.6653 10.5489 7.95996 10.2665L17.7571 0.877627C17.9726 0.670349 18.2959 0.609682 18.5785 0.720905C18.8604 0.832849 19.0435 1.09646 19.0435 1.38824V7.16602C19.0435 7.56468 18.7066 7.88824 18.2899 7.88824C17.8731 7.88824 17.5363 7.56468 17.5363 7.16602V3.13168L9.02559 11.2877C8.87863 11.4286 8.6857 11.4993 8.49277 11.4993ZM18.2899 2.11046L12.2609 2.11046C11.8441 2.11046 11.5073 1.7869 11.5073 1.38824C11.5073 0.989571 11.8441 0.666016 12.2609 0.666016L18.2899 0.666016C18.7066 0.666016 19.0435 0.989571 19.0435 1.38824C19.0435 1.7869 18.7066 2.11046 18.2899 2.11046Z" fill="#120b31" stroke="#120b31" stroke-width="0.5"/>
</svg>
