<svg width="17" height="24" viewBox="0 0 17 24" fill="none" xmlns="http://www.w3.org/2000/svg">
<path d="M1.22678 0C1.09886 0.0242791 0.997744 0.148856 1.00004 0.27907V23.7209C1.00005 23.8671 1.13299 24 1.27911 24H16.3489C16.495 24 16.6279 23.8671 16.6279 23.7209V0.27907C16.6279 0.132949 16.495 2.7907e-05 16.3489 0C11.3094 0 6.26247 0 1.22678 0ZM1.55818 0.558139H16.0698V23.4419H1.55818V0.558139ZM3.20643 2.7907C3.06925 2.80353 2.95293 2.93196 2.95353 3.06977V6.97674C2.95354 7.12286 3.08648 7.25578 3.2326 7.25581H14.3954C14.5415 7.25578 14.6744 7.12286 14.6744 6.97674V3.06977C14.6744 2.92364 14.5415 2.79072 14.3954 2.7907C10.6663 2.7907 6.93371 2.7907 3.20643 2.7907ZM3.51166 3.34883H14.1163V6.69767H3.51166V3.34883ZM3.19771 10.0465C3.06358 10.0635 2.95248 10.1904 2.95353 10.3256V12.5581C2.95354 12.7043 3.08648 12.8372 3.2326 12.8372H5.46515C5.61127 12.8372 5.74421 12.7043 5.74422 12.5581V10.3256C5.74421 10.1795 5.61127 10.0465 5.46515 10.0465C4.71061 10.0465 3.94956 10.0465 3.19771 10.0465ZM7.66283 10.0465C7.5287 10.0635 7.41759 10.1904 7.41864 10.3256V12.5581C7.41865 12.7043 7.55159 12.8372 7.69771 12.8372H9.93027C10.0764 12.8372 10.2093 12.7043 10.2093 12.5581V10.3256C10.2093 10.1795 10.0764 10.0465 9.93027 10.0465C9.17572 10.0465 8.41468 10.0465 7.66283 10.0465ZM12.1279 10.0465C11.9938 10.0635 11.8827 10.1904 11.8838 10.3256V12.5581C11.8838 12.7043 12.0167 12.8372 12.1628 12.8372H14.3954C14.5415 12.8372 14.6744 12.7043 14.6744 12.5581V10.3256C14.6744 10.1795 14.5415 10.0465 14.3954 10.0465C13.6408 10.0465 12.8798 10.0465 12.1279 10.0465ZM3.51166 10.6046H5.18608V12.2791H3.51166V10.6046ZM7.97678 10.6046H9.6512V12.2791H7.97678V10.6046ZM12.4419 10.6046H14.1163V12.2791H12.4419V10.6046ZM3.19771 14.5116C3.06358 14.5287 2.95248 14.6555 2.95353 14.7907V17.0233C2.95354 17.1694 3.08648 17.3023 3.2326 17.3023H5.46515C5.61127 17.3023 5.74421 17.1694 5.74422 17.0233V14.7907C5.74421 14.6446 5.61127 14.5117 5.46515 14.5116C4.71061 14.5116 3.94956 14.5116 3.19771 14.5116ZM7.66283 14.5116C7.5287 14.5287 7.41759 14.6555 7.41864 14.7907V17.0233C7.41865 17.1694 7.55159 17.3023 7.69771 17.3023H9.93027C10.0764 17.3023 10.2093 17.1694 10.2093 17.0233V14.7907C10.2093 14.6446 10.0764 14.5117 9.93027 14.5116C9.17572 14.5116 8.41468 14.5116 7.66283 14.5116ZM12.1279 14.5116C11.9938 14.5287 11.8827 14.6555 11.8838 14.7907V17.0233C11.8838 17.1694 12.0167 17.3023 12.1628 17.3023H14.3954C14.5415 17.3023 14.6744 17.1694 14.6744 17.0233V14.7907C14.6744 14.6446 14.5415 14.5117 14.3954 14.5116C13.6408 14.5116 12.8798 14.5116 12.1279 14.5116ZM3.51166 15.0698H5.18608V16.7442H3.51166V15.0698ZM7.97678 15.0698H9.6512V16.7442H7.97678V15.0698ZM12.4419 15.0698H14.1163V16.7442H12.4419V15.0698ZM3.19771 18.9767C3.06358 18.9938 2.95248 19.1206 2.95353 19.2558V21.4884C2.95354 21.6345 3.08648 21.7674 3.2326 21.7674H5.46515C5.61127 21.7674 5.74421 21.6345 5.74422 21.4884V19.2558C5.74421 19.1097 5.61127 18.9768 5.46515 18.9767C4.71061 18.9767 3.94956 18.9767 3.19771 18.9767ZM7.66283 18.9767C7.5287 18.9938 7.41759 19.1206 7.41864 19.2558V21.4884C7.41865 21.6345 7.55159 21.7674 7.69771 21.7674H9.93027C10.0764 21.7674 10.2093 21.6345 10.2093 21.4884V19.2558C10.2093 19.1097 10.0764 18.9768 9.93027 18.9767C9.17572 18.9767 8.41468 18.9767 7.66283 18.9767ZM12.1279 18.9767C11.9938 18.9938 11.8827 19.1206 11.8838 19.2558V21.4884C11.8838 21.6345 12.0167 21.7674 12.1628 21.7674H14.3954C14.5415 21.7674 14.6744 21.6345 14.6744 21.4884V19.2558C14.6744 19.1097 14.5415 18.9768 14.3954 18.9767C13.6408 18.9767 12.8798 18.9767 12.1279 18.9767ZM3.51166 19.5349H5.18608V21.2093H3.51166V19.5349ZM7.97678 19.5349H9.6512V21.2093H7.97678V19.5349ZM12.4419 19.5349H14.1163V21.2093H12.4419V19.5349Z" fill="#19838C" stroke="#19838C" stroke-width="0.25"/>
</svg>
