<?xml version="1.0" encoding="UTF-8" standalone="no"?>
<!DOCTYPE svg PUBLIC "-//W3C//DTD SVG 1.1//EN" "http://www.w3.org/Graphics/SVG/1.1/DTD/svg11.dtd">
<svg width="100%" height="100%" viewBox="0 0 20 16" version="1.1" xmlns="http://www.w3.org/2000/svg" xmlns:xlink="http://www.w3.org/1999/xlink" xml:space="preserve" style="fill-rule:evenodd;clip-rule:evenodd;stroke-linejoin:round;stroke-miterlimit:2;">
    <path id="Performance" d="M18,14.398l-16,0l0,1.602l16,0l0,-1.602Zm-0.8,-12.796l-1.602,0l0,11.217l1.602,0l0,-11.217Zm-3.198,2.393l-1.602,0l0,8.816l1.602,0l0,-8.816Zm-6.399,4.803l-1.602,0l0,4.008l1.602,0l0,-4.008Zm3.2,-2.405l-1.602,0l0,6.41l1.602,0l0,-6.41Zm-6.398,4.805l-1.602,0l0,1.602l1.602,0l0,-1.602Zm-0.482,-2.374l6.089,-6.089l0,1.273l1.6,0l0,-4.008l-4,0l0,1.6l1.269,0l-6.09,6.092l1.132,1.132Z" style="fill:#120b31;"/>
</svg>
