<?xml version="1.0" encoding="UTF-8" standalone="no"?>
<!DOCTYPE svg PUBLIC "-//W3C//DTD SVG 1.1//EN" "http://www.w3.org/Graphics/SVG/1.1/DTD/svg11.dtd">
<svg width="100%" height="100%" viewBox="0 0 26 26" version="1.1" xmlns="http://www.w3.org/2000/svg" xmlns:xlink="http://www.w3.org/1999/xlink" xml:space="preserve" style="fill-rule:evenodd;clip-rule:evenodd;stroke-linejoin:round;stroke-miterlimit:2;">
    <path d="M25.764,10.569l0.236,2.419c0,7.14 -5.875,13.015 -13.015,13.015c-3.714,0 -7.257,-1.591 -9.725,-4.367l-1.3,0.747l0.519,-4.321l3.998,1.688l-1.268,0.748c1.361,1.431 3.094,2.455 5.004,2.956c2.772,0.746 5.731,0.36 8.22,-1.072c3.791,-2.197 5.817,-6.439 5.297,-10.638l2.034,-1.175Zm-13.406,-0.662c0.269,-0.177 0.587,-0.267 0.91,-0.259c0.629,-0.053 1.256,0.132 1.755,0.519l0.585,0.487l1.462,-2.371l-0.585,-0.325c-0.597,-0.346 -1.243,-0.598 -1.917,-0.747l0,-1.82l-2.698,0l0,1.884c-0.635,0.195 -1.207,0.553 -1.661,1.038c-0.55,0.591 -0.852,1.372 -0.844,2.18c0,1.43 1.141,2.631 3.379,3.606c0.552,0.227 1.526,0.715 1.526,1.299c0.009,0.249 -0.115,0.484 -0.325,0.618c-0.326,0.215 -0.714,0.318 -1.104,0.292c-0.749,0.018 -1.482,-0.223 -2.075,-0.682l-0.586,-0.487l-1.299,2.273l0.422,0.357c0.694,0.529 1.51,0.876 2.372,1.008l0,1.755l2.698,0l0,-1.858c0.676,-0.218 1.281,-0.612 1.755,-1.141c0.562,-0.598 0.876,-1.389 0.877,-2.21c0.03,-0.814 -0.262,-1.609 -0.813,-2.209c-0.688,-0.676 -1.506,-1.206 -2.404,-1.557c-1.661,-0.747 -1.69,-1.201 -1.69,-1.235c0.031,-0.166 0.124,-0.315 0.26,-0.415Zm-12.123,5.451l-0.235,-2.386c0,-7.116 5.856,-12.972 12.972,-12.972c3.732,0 7.288,1.61 9.75,4.415l1.365,-0.779l-0.519,4.289l-3.994,-1.689l1.235,-0.715c-1.36,-1.432 -3.093,-2.456 -5.003,-2.957c-2.773,-0.746 -5.731,-0.36 -8.22,1.072c-2.493,1.421 -4.311,3.788 -5.04,6.563c-0.345,1.306 -0.443,2.656 -0.27,3.98l-2.041,1.179Z" style="fill:#120b31;"/>
</svg>
