<svg xmlns="http://www.w3.org/2000/svg" viewBox="0 0 288.4 288.4">
<path class="a" d="M139.3,33.3V5h21.8V33.3c55.4,5.3,99.8,49.6,105,105h28.3v21.8H266.1c-5.3,55.4-49.6,99.8-105,105v28.3H139.2V265.1c-55.4-5.3-99.8-49.6-105-105H6V138.2H34.3A117,117,0,0,1,139.3,33.3Zm0,21.9a95.2,95.2,0,0,0-83.1,83.1H82.1v21.8H56.2a95.2,95.2,0,0,0,83.1,83.1V235h21.8v8.2a95.2,95.2,0,0,0,83.1-83.1H218.3V138.2h25.9a95.2,95.2,0,0,0-83.1-83.1v8.2H139.2C139.3,63.4,139.3,55.2,139.3,55.2Zm16.2,85V112a14.6,14.6,0,0,1,8.4,11.6l17.6-2.4a30.7,30.7,0,0,0-8.4-17.3,29.2,29.2,0,0,0-17.6-7.8V82.2H145.3V96a28.4,28.4,0,0,0-26.5,29.2,31,31,0,0,0,6.4,19.9,37.9,37.9,0,0,0,20.2,12.2v30.3a18.4,18.4,0,0,1-6.9-6.1,24.6,24.6,0,0,1-4.2-10l-18.3,2a38.4,38.4,0,0,0,9.7,22,32,32,0,0,0,19.7,9.3v13.1h10.2V204.4a33.3,33.3,0,0,0,21.3-11,32.7,32.7,0,0,0,7.7-22,29.6,29.6,0,0,0-6.1-19.2A46.5,46.5,0,0,0,155.5,140.2Zm8.5,43.3a14.6,14.6,0,0,1-8.6,5V160.3a17.2,17.2,0,0,1,9.1,5.3,13.2,13.2,0,0,1,2.8,8.3,13.6,13.6,0,0,1-3.3,9.6Zm-18.7-46.9V111.7a13.1,13.1,0,0,0-6.9,19.7,17.6,17.6,0,0,0,6.9,5.2Z" transform="translate(-6 -5)"  style="fill:#120b31;fill-rule:evenodd;" /></svg>