<?xml version="1.0" encoding="UTF-8" standalone="no"?>
<!DOCTYPE svg PUBLIC "-//W3C//DTD SVG 1.1//EN" "http://www.w3.org/Graphics/SVG/1.1/DTD/svg11.dtd">
<svg width="100%" height="100%" viewBox="0 0 20 16" version="1.1" xmlns="http://www.w3.org/2000/svg" xmlns:xlink="http://www.w3.org/1999/xlink" style="fill-rule:evenodd;clip-rule:evenodd;stroke-linejoin:round;stroke-miterlimit:2;">
    <path id="Costs" d="M14.062,10.597c-1.03,2.701 -3.639,4.504 -6.54,4.504c-3.84,0 -7,-3.159 -7,-7c0,-3.84 3.16,-7 7,-7c2.901,0 5.51,1.804 6.54,4.505l1.836,-1.298l0,2.165l3.58,0l0,3.257l-3.58,0l0,2.168l-1.836,-1.301Zm-0.933,-4.334c-0.791,-2.42 -3.065,-4.072 -5.616,-4.072c-3.242,0 -5.909,2.668 -5.909,5.91c0,3.241 2.667,5.909 5.909,5.909l0.003,0l0.007,-0.001c2.549,-0.005 4.818,-1.657 5.609,-4.074l-2.594,-1.835l2.591,-1.837Zm-4.899,-2.225c0.564,0.083 1.078,0.378 1.435,0.827l0.003,0.004c0.376,0.52 0.566,1.153 0.537,1.795l-0.004,0.103l-1.529,0l0.006,-0.113c0.018,-0.358 -0.083,-0.712 -0.287,-1.006c-0.175,-0.23 -0.452,-0.362 -0.741,-0.351l-0.01,0c-0.268,-0.015 -0.532,0.077 -0.733,0.254c-0.182,0.195 -0.277,0.457 -0.259,0.724l0,0.006l0,0.006c-0.012,0.251 0.081,0.495 0.256,0.675c0.277,0.233 0.597,0.408 0.942,0.515l0.004,0.002c0.379,0.132 0.748,0.292 1.104,0.478c0.256,0.136 0.489,0.31 0.691,0.516l0.001,0.001c0.187,0.192 0.336,0.419 0.438,0.668l0.001,0.002c0.108,0.284 0.161,0.586 0.155,0.889c0.022,0.579 -0.192,1.143 -0.593,1.561l-0.003,0.004c-0.418,0.398 -0.957,0.643 -1.53,0.697l0,1.068l-1.077,0l0,-1.057c-1.247,-0.093 -2.236,-1.147 -2.236,-2.409l0.016,-0.299l1.532,0l-0.007,0.114c-0.022,0.355 0.091,0.704 0.317,0.978c0.233,0.235 0.557,0.358 0.887,0.338l0.007,0l0.007,0c0.312,0.023 0.621,-0.075 0.863,-0.271c0.193,-0.183 0.298,-0.441 0.286,-0.706l0,-0.008c0.008,-0.253 -0.086,-0.498 -0.26,-0.68c-0.27,-0.238 -0.588,-0.414 -0.933,-0.516l-0.003,-0.001c-0.37,-0.123 -0.73,-0.274 -1.077,-0.453c-0.818,-0.374 -1.339,-1.2 -1.324,-2.1c-0.021,-0.573 0.187,-1.133 0.576,-1.554l0.003,-0.003c0.391,-0.396 0.904,-0.646 1.455,-0.711l0,-1.194l1.084,0l0,1.207Zm6.575,2.374l-2.382,1.687l2.382,1.687l0,-1.148l3.58,0l0,-1.078l-3.58,0l0,-1.148Z" style="fill:#120b31;fill-rule:nonzero;"/>
</svg>
