<?xml version="1.0" encoding="UTF-8" standalone="no"?>
<!DOCTYPE svg PUBLIC "-//W3C//DTD SVG 1.1//EN" "http://www.w3.org/Graphics/SVG/1.1/DTD/svg11.dtd">
<svg width="100%" height="100%" viewBox="0 0 20 16" version="1.1" xmlns="http://www.w3.org/2000/svg" xmlns:xlink="http://www.w3.org/1999/xlink" xml:space="preserve" style="fill-rule:evenodd;clip-rule:evenodd;stroke-linejoin:round;stroke-miterlimit:2;">
    <path id="Income" d="M6.395,6.448c0.729,-3.082 3.501,-5.324 6.707,-5.346l0.004,-0.001c3.783,0.003 6.894,3.116 6.894,6.899c0,3.784 -3.114,6.899 -6.899,6.899c-3.186,0 -5.955,-2.208 -6.701,-5.264l-1.004,0l0,2.114l-5.396,-3.711l5.394,-3.705l0,2.115l1.001,0Zm1.109,3.187c0.702,2.482 2.983,4.251 5.601,4.269l0.062,0.001c3.164,-0.037 5.755,-2.651 5.755,-5.823c0,-3.194 -2.628,-5.823 -5.823,-5.823c-2.596,0 -4.871,1.737 -5.589,4.189l1.489,0l0,3.187l-1.495,0Zm6.295,-5.626c0.557,0.083 1.064,0.375 1.414,0.82l0.003,0.003c0.37,0.518 0.556,1.145 0.528,1.781l-0.005,0.102l-1.507,0l0.006,-0.112c0.018,-0.353 -0.081,-0.702 -0.282,-0.992c-0.171,-0.229 -0.444,-0.359 -0.729,-0.348l-0.01,0c-0.264,-0.015 -0.522,0.076 -0.719,0.252c-0.181,0.193 -0.275,0.453 -0.258,0.717l0,0.006l0,0.006c-0.011,0.249 0.08,0.491 0.252,0.67c0.272,0.231 0.587,0.405 0.928,0.512l0.003,0.001c0.374,0.132 0.737,0.29 1.088,0.474c0.253,0.135 0.483,0.307 0.683,0.512l0.001,0.001c0.182,0.19 0.327,0.414 0.426,0.658l0.001,0.003c0.106,0.281 0.158,0.58 0.152,0.88c0.022,0.574 -0.189,1.133 -0.583,1.549l-0.004,0.004c-0.41,0.394 -0.94,0.637 -1.505,0.691l0,1.057l-1.062,0l0,-1.052c-0.607,-0.063 -1.174,-0.342 -1.594,-0.789l-0.004,-0.005c-0.413,-0.499 -0.624,-1.135 -0.593,-1.782l0.005,-0.101l1.514,0l-0.007,0.113c-0.022,0.352 0.091,0.698 0.315,0.97c0.228,0.233 0.547,0.356 0.872,0.337l0.008,-0.001l0.007,0.001c0.307,0.023 0.611,-0.074 0.849,-0.269c0.19,-0.183 0.292,-0.438 0.281,-0.702l0,-0.008c0.008,-0.249 -0.085,-0.492 -0.257,-0.673c-0.265,-0.236 -0.579,-0.411 -0.919,-0.512l-0.004,-0.001c-0.364,-0.122 -0.719,-0.272 -1.06,-0.449c-0.809,-0.374 -1.322,-1.194 -1.305,-2.084c-0.02,-0.568 0.184,-1.122 0.568,-1.541l0.003,-0.003c0.384,-0.392 0.89,-0.64 1.433,-0.705l0,-1.185l1.067,0l0,1.194Zm-9.499,2.384l-2.4,1.65l2.399,1.647l0,-1.124l3.605,0l0,-1.05l-3.604,0l0,-1.123Z" style="fill:#120b31;"/>
</svg>
