<svg width="44px" height="44px" xmlns="http://www.w3.org/2000/svg" viewBox="0 0 40.3 53.5">
  <defs>
    <style>
      .a {
        isolation: isolate;
      }

      .b {
        fill: #bdccd4;
      }

      .b, .l {
        opacity: 0.5;
      }

      .b, .d {
        mix-blend-mode: multiply;
      }

      .c {
        fill: #fff;
      }

      .c, .e, .f, .g {
        stroke: #000;
      }

      .c, .e, .f, .g, .i, .j, .k {
        stroke-linecap: round;
        stroke-linejoin: round;
      }

      .c, .e {
        stroke-width: 0.55px;
      }

      .d, .f, .g {
        fill: #3cb971;
      }

      .e, .i, .j, .k {
        fill: none;
      }

      .f {
        stroke-width: 0.24px;
      }

      .g {
        stroke-width: 0.25px;
      }

      .h {
        fill: #020202;
      }

      .i, .j, .k {
        stroke: #ddd;
        opacity: 0.3;
      }

      .i {
        stroke-width: 2.97px;
      }

      .j {
        stroke-width: 0.8px;
      }

      .k {
        stroke-width: 0.65px;
      }

      .l {
        fill: #ddd;
      }
    </style>
  </defs>
  <g class="a">
    <g>
      <g>
        <rect class="b" x="6.9" width="33.3" height="43.91" rx="0.8"/>
        <path class="c" d="M119,227.4v8.7a1.1,1.1,0,0,1-1.1,1.1H86.8a1.1,1.1,0,0,1-1.1-1.1V194.4a1.1,1.1,0,0,1,1.1-1.1h31.1a1.1,1.1,0,0,1,1.1,1.1v30" transform="translate(-80.1 -191.9)"/>
        <line class="c" x1="38.9" y1="34.3" x2="38.9" y2="34.5"/>
        <path class="d" d="M5.9,1.3H38.5a.4.4,0,0,1,.4.4V6.6a0,0,0,0,1,0,0H5.6a0,0,0,0,1,0,0V1.7a.4.4,0,0,1,.4-.4Z"/>
        <line class="e" x1="5.6" y1="6.6" x2="35.6" y2="6.6"/>
      </g>
      <g>
        <path class="b" d="M97.4,239.5H83.1a1.1,1.1,0,0,1-1.2-1.1V215.9a1.1,1.1,0,0,1,1.2-1.1h20a1.1,1.1,0,0,1,1.1,1.1v22.5a1.1,1.1,0,0,1-1.1,1.1H99.7" transform="translate(-80.1 -191.9)"/>
        <path class="c" d="M95.9,240.9H81.5a1.1,1.1,0,0,1-1.1-1.1V217.3a1.1,1.1,0,0,1,1.1-1.1h20a1.1,1.1,0,0,1,1.1,1.1v22.5a1.1,1.1,0,0,1-1.1,1.1H98.1" transform="translate(-80.1 -191.9)"/>
        <rect class="f" x="5.3" y="31.1" width="2.8" height="12.07"/>
        <rect class="g" x="10" y="35.1" width="2.8" height="8.23"/>
        <rect class="g" x="14.7" y="37.3" width="2.8" height="6.04"/>
        <polyline class="e" points="3.9 29.1 3.9 44.5 19.3 44.5"/>
      </g>
      <g>
        <ellipse class="b" cx="28.7" cy="45.7" rx="6.3" ry="6.2"/>
        <path class="c" d="M110.8,244.2a6.3,6.3,0,0,1-3.3.9,6.1,6.1,0,1,1,4.7-2.1" transform="translate(-80.1 -191.9)"/>
        <path class="h" d="M106.8,239.6a.7.7,0,0,0,.7.6.6.6,0,0,0,.6-.5c0-.4-.1-.5-.7-.7s-1.3-.6-1.3-1.1a1.2,1.2,0,0,1,1.3-1.1c1,0,1.3.5,1.4,1H108c0-.2-.1-.5-.6-.5a.5.5,0,0,0-.5.5c0,.3.1.4.7.6s1.2.6,1.2,1.2-.5,1.1-1.3,1.1-1.4-.5-1.4-1.1Zm.3-2.6v-.5h.6v.5Zm.1,4.1v-.7h.6v.7Z" transform="translate(-80.1 -191.9)"/>
      </g>
      <g>
        <line class="i" x1="34.3" y1="19.5" x2="9.3" y2="19.5"/>
        <line class="j" x1="35.1" y1="23.3" x2="26.8" y2="23.3"/>
        <line class="j" x1="35.1" y1="25.2" x2="26.8" y2="25.2"/>
        <line class="k" x1="35.1" y1="27.2" x2="29.6" y2="27.2"/>
        <rect class="l" x="8.1" y="9.3" width="27.5" height="6.59"/>
      </g>
    </g>
  </g>
</svg>
