<?xml version="1.0" encoding="utf-8"?>
<!-- Generator: Adobe Illustrator 24.1.0, SVG Export Plug-In . SVG Version: 6.00 Build 0)  -->
<svg version="1.1" id="Layer_1" xmlns="http://www.w3.org/2000/svg" xmlns:xlink="http://www.w3.org/1999/xlink" x="0px" y="0px"
	 viewBox="0 0 300 300" style="enable-background:new 0 0 300 300;" xml:space="preserve">
<style type="text/css">
	.st0{fill:#FFF7F5;}
	.st1{fill:#F2B9A7;}
	.st2{fill:#FFB41D;}
	.st3{opacity:0.61;fill:#F9D8CD;enable-background:new    ;}
	.st4{fill:#FFEFE9;}
	.st5{fill:#F9D8CA;}
	.st6{fill:#FCF2EB;}
	.st7{fill:#FEAF84;}
	.st8{fill:#7E3838;}
	.st9{opacity:8.000000e-02;enable-background:new    ;}
	.st10{fill:#301B2C;}
	.st11{fill:#F4D5B5;}
	.st12{fill:#F29D77;}
	.st13{fill:#6B2E2E;}
	.st14{fill:#E5BB98;}
	.st15{fill:#FFBE9D;}
	.st16{fill:#3E2739;}
	.st17{fill:#001118;}
	.st18{fill:#C98455;}
	.st19{fill:#E59A67;}
	.st20{fill:#D38E5F;}
	.st21{opacity:0.43;fill:#FEAF84;enable-background:new    ;}
	.st22{fill:#FFBF4D;}
	.st23{fill:#FFCCB0;}
	.st24{opacity:0.8;}
	.st25{fill:#65B0C4;}
	.st26{fill:#E89C13;}
	.st27{fill:#F2A181;}
	.st28{fill:#605C5A;}
	.st29{fill:#474341;}
	.st30{fill:#7C4E50;}
	.st31{opacity:0.2;fill:none;stroke:#C0621C;stroke-width:0.539;stroke-miterlimit:10;enable-background:new    ;}
	.st32{opacity:0.2;fill:#C0621C;enable-background:new    ;}
	.st33{fill:#FFC8B0;}
	.st34{fill:#6D2B2B;}
	.st35{fill:#FF9100;}
	.st36{opacity:0.35;fill:#5275A0;enable-background:new    ;}
	.st37{fill:#FF5B00;}
	.st38{fill:#FFA515;}
	.st39{fill:#FFC969;}
	.st40{fill:#FF8F1F;}
	.st41{fill:#F9E8DE;}
	.st42{fill:#FCB6AC;}
	.st43{fill:#682A2A;}
	.st44{fill:#F9C9B7;}
	.st45{opacity:0.49;fill:#F29B75;enable-background:new    ;}
	.st46{fill:#F2A49C;}
	.st47{fill:#E2E2E2;}
	.st48{fill:#CECECE;}
	.st49{fill:#F9D8CD;}
</style>
<g id="Group_1039" transform="translate(-36.423 -70.822)">
	<g id="Group_968" transform="translate(48.617 81.784)">
		<path id="Path_1893" class="st0" d="M66.5,112.1H10.6c-8.4,0-8.5-9.6-1.1-11.5c4.6-1.2,9.4-0.2,13.2,2.6c0,0,2-23.6,21.3-20.8
			c15.2,2.2,14.3,17.3,14.3,17.3s3.1-6.2,11.3-3.9C78.1,98.2,77.2,112.1,66.5,112.1z"/>
		<path id="Path_1894" class="st0" d="M176.1,62.2h52.8c8,0,8.1-9.1,1-10.9c-4.3-1.1-8.9-0.2-12.4,2.4c0,0-1.9-22.2-20.1-19.6
			c-14.3,2.1-13.5,16.4-13.5,16.4s-2.9-5.9-10.7-3.7C165.1,49.1,166,62.2,176.1,62.2z"/>
	</g>
	<g id="Group_981" transform="translate(244.324 180.309)">
		<g id="Group_979" transform="translate(0 1.33)">
			<g id="Group_969" transform="translate(32.326)">
				<path id="Path_1895" class="st1" d="M15.7,148.7c-0.4,0-0.8-0.3-0.8-0.7L4.1,34.8c0-0.4,0.3-0.8,0.7-0.9c0.4,0,0.8,0.3,0.8,0.7
					l10.8,113.2C16.5,148.3,16.2,148.7,15.7,148.7C15.8,148.7,15.7,148.7,15.7,148.7z"/>
			</g>
			<g id="Group_970" transform="translate(0 0)">
				<path id="Path_1896" class="st1" d="M4.9,148.7C4.9,148.7,4.8,148.7,4.9,148.7c-0.5,0-0.8-0.4-0.8-0.9L14.9,34.6
					c0.1-0.4,0.5-0.7,0.9-0.7c0.4,0.1,0.7,0.4,0.7,0.8L5.7,148C5.6,148.4,5.3,148.7,4.9,148.7z"/>
			</g>
			<g id="Group_971" transform="translate(10.76 9.029)">
				<rect id="Rectangle_871" x="4.1" y="33.9" class="st1" width="23.2" height="1.6"/>
			</g>
			<g id="Group_972" transform="translate(9.461 22.62)">
				<rect id="Rectangle_872" x="4.1" y="33.9" class="st1" width="25.8" height="1.6"/>
			</g>
			<g id="Group_973" transform="translate(8.162 36.212)">
				<rect id="Rectangle_873" x="4.1" y="33.9" class="st1" width="28.4" height="1.6"/>
			</g>
			<g id="Group_974" transform="translate(6.863 49.803)">
				<rect id="Rectangle_874" x="4.1" y="33.9" class="st1" width="31" height="1.6"/>
			</g>
			<g id="Group_975" transform="translate(5.611 63.394)">
				<rect id="Rectangle_875" x="4.1" y="33.9" class="st1" width="33.6" height="1.6"/>
			</g>
			<g id="Group_976" transform="translate(4.304 76.985)">
				<rect id="Rectangle_876" x="4.1" y="33.9" class="st1" width="36.2" height="1.6"/>
			</g>
			<g id="Group_977" transform="translate(2.976 90.576)">
				<rect id="Rectangle_877" x="4.1" y="33.9" class="st1" width="38.8" height="1.6"/>
			</g>
			<g id="Group_978" transform="translate(2.101 104.168)">
				<rect id="Rectangle_878" x="4.1" y="33.9" class="st1" width="41" height="1.6"/>
			</g>
		</g>
		<g id="Group_980" transform="translate(8.812)">
			<path id="Path_1897" class="st1" d="M5.5,36.7h24.3c0.8,0,1.4-0.6,1.4-1.4l0,0c0-0.8-0.6-1.4-1.4-1.4H5.5c-0.8,0-1.4,0.6-1.4,1.4
				l0,0C4.1,36.1,4.7,36.7,5.5,36.7z"/>
		</g>
	</g>
	<g id="Group_983" transform="translate(234.306 122.866)">
		<g id="Group_982">
			<path id="Path_1898" class="st2" d="M21.7,33.9c0,0,2.3,0.7,5.5,5.7s10,23.2,10,23.2l-22.5,3.2c0,0-8.8-21.6-9.4-22.5
				c-0.6-0.9-1-1.9-1.2-2.9l2.4-2.9L21.7,33.9z"/>
			<path id="Path_1899" class="st3" d="M21.6,48.4c0.1-0.3,0.3-0.6,0.4-1c0.6-1.2-0.3-4.3,0.9-4.5c1.1-0.2,8.5,12.6,8.1,13
				c-0.2,0.2-3.1-3.1-3.3-3c-1.1,0.4-2.6-2.1-3.8-2.2c-0.8,0-1.5-0.4-2-1.1"/>
		</g>
		<path id="Path_1900" class="st2" d="M38.4,66.5c0,0,0.3,7.6,0.3,10.4c0,2-0.1,6.3-0.3,8.4c-0.1,0.5,0,1,0.3,1.5l0,0
			c1.2,2.4,2.1,5.1,2.5,7.8l1.2,7.8l-9.6,1.3l-7.1-23.1c0,0,2.4-9.3,3.1-9.4S38.4,66.5,38.4,66.5z"/>
	</g>
	<g id="Group_985" transform="translate(108.005 116.49)">
		<path id="Path_1901" class="st4" d="M180.2,143.7c3.4-12.8,3.5-26.3,0.4-39.2l-14.4,1.6c-1.7-7.2-4.6-14.2-8.4-20.6l11.4-9.1
			c-4.8-8.3-11.1-15.6-18.5-21.6c-0.5-0.5-1.1-0.9-1.6-1.3c-2.3-1.8-4.8-3.5-7.3-5l-9.1,11.4c-0.7-0.4-1.5-0.9-2.2-1.3
			c-0.8-0.5-1.7-0.9-2.5-1.4c-5-2.6-10.3-4.7-15.7-6.1l1.6-14.5c-12.8-3.4-26.3-3.5-39.2-0.4l1.6,14.4c-7.3,1.7-14.2,4.5-20.6,8.3
			l-9.1-11.4c-11.5,6.6-21.1,16.1-28,27.5l11.3,9c-3.9,6.3-6.9,13.2-8.8,20.5l-14.4-1.6c-3.4,12.8-3.5,26.3-0.4,39.2l14.3-1.6
			c1.7,7.3,4.5,14.2,8.3,20.7l-11.3,9c6.7,11.5,16.1,21.1,27.5,28l9-11.3c6.3,4,13.2,6.9,20.5,8.8L73.1,210
			c12.8,3.4,26.3,3.5,39.2,0.4l-1.6-14.2c7.3-1.7,14.3-4.5,20.7-8.3l9,11.2c11.5-6.7,21.1-16.1,28-27.5l-11.2-9
			c3.9-6.4,6.9-13.3,8.8-20.5L180.2,143.7z M139.4,124.9c-0.8,25.4-22.1,45.2-47.4,44.4c-25.4-0.8-45.2-22.1-44.4-47.4
			C48.4,97.7,67.8,78.3,92,77.5c25.4-0.7,46.7,19.3,47.4,44.7C139.4,123.1,139.4,124,139.4,124.9z"/>
		<g id="Group_984" transform="translate(32.337 32.329)">
			<path id="Path_1902" class="st5" d="M61.1,148c-31.5,0-57-25.6-57-57.1c0-0.6,0-1.2,0-1.8c1-30,25.1-54.1,55.2-55.2
				c31.5-1,57.9,23.7,58.9,55.2c0,1.2,0,2.5,0,3.7l-0.5,0l0.5,0c-1,30-25.1,54.1-55.2,55.2C62.4,148,61.7,148,61.1,148z M61.2,34.9
				c-0.6,0-1.2,0-1.9,0c-29.5,1-53.2,24.7-54.2,54.2c-1,30.9,23.3,56.8,54.2,57.8c1.2,0,2.4,0,3.7,0c30.9-1,55.2-26.9,54.2-57.8
				c-0.5-14.2-6.3-27.7-16.4-37.8C90.3,40.8,76,34.8,61.2,34.9L61.2,34.9z"/>
		</g>
	</g>
	<g id="Group_987" transform="translate(43.394 221.663)">
		<path id="Path_1903" class="st4" d="M78.7,80.4c1.4-5.4,1.5-11.1,0.2-16.6l-6.1,0.7c-0.7-3.1-1.9-6-3.5-8.7l4.8-3.9
			C71.2,47,67.2,42.9,62.4,40l-3.9,4.8c-2.7-1.7-5.6-2.9-8.6-3.7l0.7-6.1c-5.4-1.4-11.1-1.5-16.6-0.2l0.7,6.1
			c-3.1,0.7-6,1.9-8.7,3.5l-3.9-4.8c-4.9,2.8-8.9,6.8-11.9,11.6l4.8,3.8c-1.7,2.7-2.9,5.6-3.7,8.7l-6.1-0.7
			c-1.4,5.4-1.5,11.1-0.2,16.6l6.1-0.7c0.7,3.1,1.9,6,3.5,8.8l-4.8,3.8c2.8,4.9,6.8,8.9,11.6,11.8l3.8-4.8c2.7,1.7,5.6,2.9,8.7,3.7
			l-0.7,6.1c5.4,1.4,11.1,1.5,16.6,0.2l-0.7-6c3.1-0.7,6-1.9,8.8-3.5l3.8,4.8c4.9-2.8,8.9-6.8,11.8-11.6l-4.8-3.8
			c1.7-2.7,2.9-5.6,3.7-8.7L78.7,80.4z M61.4,72.4C61,83.2,52.1,91.6,41.3,91.2s-19.2-9.3-18.8-20.1c0.3-10.2,8.6-18.5,18.8-18.8
			c10.8-0.3,19.8,8.2,20.1,19C61.4,71.7,61.4,72.1,61.4,72.4L61.4,72.4z"/>
		<g id="Group_986" transform="translate(13.695 13.695)">
			<path id="Path_1904" class="st5" d="M28.2,82.2C14.9,82.2,4.1,71.4,4.1,58c0-0.3,0-0.5,0-0.8c0.4-12.7,10.6-22.9,23.4-23.4
				c13.3-0.4,24.5,10,24.9,23.4c0,0.5,0,1.1,0,1.6l-0.2,0l0.2,0C52,71.6,41.8,81.8,29,82.2C28.8,82.2,28.5,82.2,28.2,82.2z
				 M28.3,34.3c-0.3,0-0.5,0-0.8,0C15,34.8,5,44.8,4.5,57.3c-0.4,13.1,9.8,24.1,23,24.5c0.5,0,1,0,1.5,0
				C42.1,81.3,52.4,70.4,52,57.3c-0.2-6-2.7-11.7-6.9-16C40.6,36.8,34.6,34.3,28.3,34.3L28.3,34.3z"/>
		</g>
	</g>
	<g id="Group_997" transform="translate(67.994 177.264)">
		<path id="Path_1905" class="st6" d="M47.6,156.9c0,1.1-9.7,1.9-21.8,1.9s-21.8-0.9-21.8-1.9s9.7-1.9,21.8-1.9
			S47.6,155.8,47.6,156.9z"/>
		<g id="Group_996" transform="translate(2.117)">
			<g id="Group_991" transform="translate(21.034 21.236)">
				<g id="Group_990" transform="translate(23.605 4.14)">
					<g id="Group_989">
						<g id="Group_988">
							<path id="Path_1906" class="st7" d="M4.1,39.9c0.5-0.4,1.5-1.2,1.6-1.7c0.1-0.3,0.5-1.1,0.9-1.8c0.3-0.5,0.6-1,1-1.5
								c0.3-0.3,0.6-1.1,0.9-0.9c0.3,0.3-0.1,1.1-0.3,1.6c-0.1,0.2-0.2,0.4-0.2,0.6c0,0.2,0,0.4,0.1,0.5c0.1,0.1,0.5,0.1,0.7,0.1
								c0.8,0,1.6-0.2,2.4-0.5c0.5-0.2,1.1-0.5,1.6-0.9c0.2-0.2,0.4-0.3,0.6-0.3c0.1,0,0.4,0,0.4,0.2c-0.2,0.3-0.4,0.6-0.7,0.8
								c-0.5,0.4,0,0.1-0.5,0.5c-0.1,0.1-0.1,0.1-0.2,0.2c0,0.1,0,0.2,0,0.2c0,0.1-0.1,0.3-0.2,0.4c-0.2,0.2-0.3,0.4-0.5,0.6
								c-0.3,0.3,0,0.4-0.3,0.7c-0.3,0.3-1.1,0.6-1.5,0.8c-0.2,0.2-0.5,0.4-0.8,0.5c-0.3,0.2-0.7,0.3-1.1,0.4
								c-1,0.3-1.5,1.1-2.3,1.8"/>
						</g>
						<path id="Path_1907" class="st7" d="M8.7,40.1c0.8-0.2,1.5-0.5,2.2-0.8c1-0.5,2-1.1,2.8-1.9c0.1-0.1,0.1-0.2,0.1-0.3
							c-0.2-0.1-0.5-0.1-0.7,0c-0.3,0.2-1.8,0.9-1.8,0.9"/>
						<path id="Path_1908" class="st7" d="M8.5,39.7c0.9-0.3,1.8-0.6,2.6-1c1-0.6,2.6-1.3,3.2-2.1c0-0.1,0-0.2,0-0.3
							c-0.2-0.1-0.5-0.1-0.7,0c-0.3,0.2-2.1,1.1-2.1,1.1"/>
						<path id="Path_1909" class="st7" d="M8.9,38.7c0.9-0.3,1.8-0.6,2.6-1c1-0.5,2-1.1,2.9-1.9c0.1-0.1,0.1-0.2,0-0.3
							c-0.2-0.1-0.5-0.1-0.7,0c-0.3,0.2-1.8,0.9-1.8,0.9"/>
					</g>
				</g>
				<path id="Path_1910" class="st8" d="M31.2,45.4c-0.1-0.3-0.2-0.5-0.4-0.7c-0.5-0.9-1.2-1.6-2-2c0,0-4.8,3.6-6.7,4.7
					c-0.2,0.1-0.4,0.2-0.6,0.3c0,0,0,0-0.1,0.1c-1.9,0.8-3.7,1.8-5.5,2.9c-1.4-4.5-3.5-13.7-6.6-16.2l0,0c-0.7-0.6-1.7-0.8-2.5-0.4
					c0,0-4.6,3.1-1.5,10.9c1,2.4,2.3,4.7,3.9,6.8c1.2,1.5,2.6,2.9,4.2,4.2l0,0c0,0,1.5,1.5,2.8,1.3c1-0.2,2-0.6,2.8-1.3l0,0
					C22.7,53.5,31.2,45.4,31.2,45.4z"/>
				<path id="Path_1911" class="st9" d="M31.2,45.4c-0.1-0.3-0.2-0.5-0.4-0.7c-1.5,1.6-7.9,7.2-11.2,9.7C16.1,57,15,56.3,15,56.3
					c-0.2-0.1-0.4-0.2-0.6-0.4c-1.2-0.9-1.9-2.3-1.8-3.8c0-3.2-0.2-6.3-0.6-9.4c0,0-1.8,5.7-2.9,9.1c1.2,1.5,2.6,2.9,4.2,4.2l0,0
					c0,0,1.5,1.5,2.8,1.3c1-0.2,2-0.6,2.8-1.3h0C22.7,53.5,31.2,45.4,31.2,45.4z"/>
			</g>
			<path id="Path_1912" class="st10" d="M29.2,38.9c0,0,1.4,2.4-0.2,4.2s-3.1-2.8-3.1-2.8L29.2,38.9z"/>
			<path id="Path_1913" class="st8" d="M12.1,59.8c0.1,1.3,0.2,2.6,0.5,3.9c0.8,4.1,2,8,3.6,11.9c0.7,1.8,0.8,3.7,0.4,5.5
				c-0.8,3.7,0.1,3.9,0.1,3.9c2.9,1.8,5.9,3.3,9.1,4.4c2.6,0.8,4.9,0.8,5.4-1.5c0-0.1,0-0.3,0.1-0.4c0.5-0.1,0.5-0.6,0.4-0.8
				c0-0.1,0-0.2-0.1-0.4c0-0.3-0.1-0.6-0.1-0.7c-0.1-7.4,1.1-7,1.5-15.2c0.4-8.5-0.1-12.3-2.4-14.3c-1.4-1.4-3.2-2.3-5.1-2.5
				c-2.2-0.4-4.9,0.2-7.7,0.9C13.4,55.4,12,56.6,12.1,59.8z"/>
			<path id="Path_1914" class="st9" d="M12.1,59.8c0.1,1.3,0.2,2.6,0.5,3.9c0.8,4.1,2,8,3.6,11.9c0.7,1.8,0.8,3.7,0.4,5.5
				c-0.8,3.7,0.1,3.9,0.1,3.9c2.9,1.8,5.9,3.3,9.1,4.4l3.9-0.4l1.5-1.2c0-0.1,0-0.3,0.1-0.4c-3.4,0.2-10.2-2.3-11.6-2.8
				c-1-0.4-1.6-1.4-1.4-2.5c0.3-1.7,0.5-3.4,0.5-5.1c-0.2-2.2-0.7-4.3-1.4-6.3c-0.5-1.5-0.6-3.1-0.5-4.7c0.1-1.8,0.1-3.6,0-5.3
				l-3.1-1.7L12.1,59.8z"/>
			<path id="Path_1915" class="st11" d="M16,91.2c-0.4,0.1-1.3-1.5-1.3-1.5l0.4-0.5c0.2-0.3,0.5-0.5,0.9-0.6l0.1,0
				c0.3-0.1,0.6,0,0.8,0.3c0.3,0.4,0.7,0.8,1.1,0.8h0c0,0,0,0,0.1,0C18.5,89.7,16.4,91.1,16,91.2z"/>
			<g id="Group_992" transform="translate(13.661 2.778)">
				<path id="Path_1916" class="st7" d="M14.7,49.4c-0.9,0.1-1.8,0.2-2.7,0c0,0.1,0,0.5,0.1,0.9c0,0.1,0,0.1,0,0.1
					c0,0.4,0.1,0.8,0.1,0.8l-0.3,2.3l-1.9-0.9l-2.8-0.8c0,0-0.1-2.1-0.2-3c0-0.1,0-0.3-0.1-0.4c-0.1-0.3-1.1-2.3-1.9-4.2
					c-0.4-0.9-0.6-1.8-0.8-2.7c0-0.1,0-0.2,0-0.3c0-0.5,0-1.1,0-1.6c0.1-1.5,0.4-2.9,1.3-3.7c1.3-1.1,9.9-4.7,10.2,1.6v0
					c0,0,0.1,0.5,0.1,1.3c0.1,0.5,0.1,1.2,0.2,2C16.1,44.2,16.2,49,14.7,49.4z"/>
			</g>
			<path id="Path_1917" class="st12" d="M25.7,53.3c-1.1-0.3-2.2-0.9-3.2-1.6c1,0.3,2,0.5,3.1,0.5c0,0.1,0,0.5,0.1,0.9
				C25.7,53.2,25.7,53.2,25.7,53.3z"/>
			<path id="Path_1918" class="st2" d="M25.3,57.8c0,0,1,15.7,0.1,21.3c0,0,1.1,3,1.8,3.3s1.3-1.5,2-3.5s-2.6-21.3-2.6-21.3
				L25.3,57.8z"/>
			<path id="Path_1919" class="st2" d="M24.5,56.9l0.8,1l1.4-0.1c0.1-0.6,0.1-1.1,0.1-1.7c-0.4-0.3-0.8-0.4-1.3-0.5L24.5,56.9z"/>
			<path id="Path_1920" class="st13" d="M20.6,52.8c-0.5,0.3-0.9,0.7-1.2,1.2c0.5,0.2,1,0.5,1.5,0.8c0.6,0.4,3.7,2.5,3.7,2.5
				l0.9-1.8C24,54.4,22.3,53.5,20.6,52.8z"/>
			<path id="Path_1921" class="st13" d="M25.5,55.5c0.6,0.2,1.1,0.6,1.4,1.2c0.3-0.9,0.3-2-0.2-2.9c-0.3-0.3-0.7-0.5-1-0.7
				L25.5,55.5z"/>
			<path id="Path_1922" class="st14" d="M17,88.6c0.2,0.3,0.5,0.6,0.7,0.8c0.2,0.1,0.2-0.1,0.1-0.2S17,88.4,17,88.6z"/>
			<path id="Path_1923" class="st15" d="M14.4,148.5c0,0,0.2,4.1,0.2,4.6c0,0.3,2,0.6,2.9,0c0.1-1.5,0.6-4.6,0.6-5.5"/>
			<path id="Path_1924" class="st16" d="M14.6,103.3c0,0-5.7-9.7,2-18.2c0,0,5.3,2.4,9.5,2.6c1.7,0.2,3.4,0.1,5-0.1
				c0.9,5.5,1.3,11,1.1,16.6L14.6,103.3z"/>
			<path id="Path_1925" class="st15" d="M26.6,147.1l0.5,6l1.5,0.7l1.4-0.7l0.2-5.4"/>
			<path id="Path_1926" class="st16" d="M32.4,125c-0.2,5.2-1.7,15.2-1.7,25.8c-1.2,0.7-2.7,0.8-4,0.1c-1.1-9.2-4.1-18.7-0.9-26.6
				c-1.3-4.7-3.3-14.8-4.1-19.4c0-0.1,0-0.2,0-0.3l0.7-2.2c-0.2-5.9,3.6-10.2,7.6-8.7c0.9,0.3,2.2,2.8,2.3,4.6
				c0.1,1.4,0,23.5,0.1,24c0,0.5,0.1,1.1,0,1.6C32.4,124.4,32.4,124.7,32.4,125z"/>
			<path id="Path_1927" class="st10" d="M26,142.5c0.7,7.8,0.7,8.5,0.7,8.5c-1-8.7-3.7-17-1.4-25.3c0.3-0.9,0.3-1.9,0.1-2.8
				c-1.3-5.1-3-13.7-3.7-17.9l1.1-0.9c0,0,1.7-7.5,2.1-7.7s-0.1,2.5-0.3,6s-0.8,5.6,0,9.7s2.4,9.8,2.8,12.1
				C26.1,127.8,25.2,134.7,26,142.5z"/>
			<g id="Group_994" transform="translate(8.801 59.904)">
				<g id="Group_993">
					<path id="Path_1928" class="st16" d="M12.6,64.6c-0.9,5.2-2.9,20.2-3.3,26.2c-0.2,1-3.5,0.8-4,0.4c0-0.1,0-1.8,0-1.8
						c-0.1-7-2.2-19.7,0.8-26.2C7.9,59.2,13.6,59,12.6,64.6z"/>
					<path id="Path_1929" class="st16" d="M14.5,43.8c-0.2-6.9-3.4-11.8-7.2-9.1c-1.6,1.1-3.5,2-3.2,3.8C4.7,41.6,6.1,60,6,63.4
						c-0.1,7.6,6,4.8,6.4,2.6C13.4,60.5,14.6,47.5,14.5,43.8z"/>
				</g>
			</g>
			<path id="Path_1930" class="st17" d="M26.6,156.7c0,0.1,0.1,0.2,0.2,0.2h9c0.5,0,0.9-0.2,0.9-0.4c0.1-0.4-0.3-0.5-0.5-0.6
				c0,0-4.8-2-5-2.1l-1.2-0.6c-0.5,0.1-1,0.2-1.5,0.2c-0.5,0-0.9-0.1-1.4-0.2C26.4,154.2,26.2,155.5,26.6,156.7z"/>
			<path id="Path_1931" class="st17" d="M14.1,156.7c0,0.1,0.1,0.2,0.2,0.2h9c0.5,0,0.9-0.2,0.9-0.4c0.1-0.4-0.3-0.5-0.5-0.6
				c0,0-4.8-2-5-2.1l-1.2-0.6c-0.5,0.1-1,0.2-1.5,0.2c-0.5,0-0.9-0.1-1.4-0.2C13.8,154.2,13.6,155.5,14.1,156.7z"/>
			<path id="Path_1932" class="st10" d="M29.3,40.3c-0.3,0.4-0.7,0.7-1.2,0.8h0c-1.9,0.7-3.9,1-5.9,1c0,0-0.6,0.2-0.4,1.4
				c0,0.1,0,0.3,0.1,0.5c0.4,1.6,0.9,3.1,0.2,3c-0.9-0.1-1.2-3.5-2.6-2.3c-0.5,0.4-0.4,1.1-0.2,1.7c0.1,0.6,0.3,1.1,0.5,1.6
				c0.6,1,0.9,2.2,1,3.4c0,0.2-0.1,0.3-0.2,0.3c-0.1,0-0.2,0-0.3,0c-0.2-0.1-0.4-0.8-0.8-1.5c-0.8-1.5-1.5-3-2.1-4.6
				c-0.1-0.4-0.3-0.7-0.4-1.1c-0.1-0.3-0.2-0.6-0.2-0.9v0c-0.5-2.4-0.2-4.6,2.7-6.7c3.7-2.7,8.6-0.6,8.6-0.6S30.7,38.5,29.3,40.3z"
				/>
			<path id="Path_1933" class="st18" d="M13.7,101.8L5.1,89.2l16.6-12.9l8.6,12.6L13.7,101.8z"/>
			<path id="Path_1934" class="st19" d="M30.3,88.8l-10.3,8L19.8,97l-6.1,4.7L4.1,89.4l6.4-5l1.4-1.1l8.8-6.9L30.3,88.8z"/>
			<path id="Path_1935" class="st20" d="M20,96.8L19.8,97c-0.3-0.4-0.6-0.8-0.8-1.2c-0.2-0.4-0.3-0.7-0.3-1.1l-0.4-0.4h-0.3
				c-1.1-1-2.1-2.1-3-3.3c-1.6-2.1-3.1-4.3-4.5-6.5l1.4-1.1l5.2,5.2L20,96.8z"/>
			<path id="Path_1936" class="st7" d="M18.2,93.5c0.5,0.5,0.9,1.2,1.1,1.9c0.1,0.5,1.7-1.6,1.7-1.6L19.9,92"/>
			<path id="Path_1937" class="st8" d="M13.9,55.9c0,0-4.4,0.9-6.8,21.7l4.9,2.3c0,0,5.4-16.5,4.9-19.6S16.3,55.4,13.9,55.9z"/>
			<path id="Path_1938" class="st8" d="M7.1,77.5c0,0,4.9,10.4,11.1,16.3l2-1.4c0,0-3.8-10.5-8.5-16.6S7.1,77.5,7.1,77.5z"/>
			<path id="Path_1939" class="st7" d="M22.8,94.5l-0.3,0.2c-0.5-0.4-1.1-0.8-1.7-1.1c0-0.1-0.1-0.1-0.2-0.2
				c0.3-0.2,0.8-0.4,0.4-0.4c-0.6,0-0.7-0.3-0.7-0.3l-0.5,0.3l0.4,0.4c-0.4,0.2-0.8,0.5-1,0.9L19,94.2c0,0.4,0,0.8,0.1,1.1
				c0.2,0.5,0.4,1,0.7,1.5v0c0.1,0.1,0.5,0.6,0.7,0.6c0.2,0,0.3-0.1,0.4-0.3c0.1-0.1,0.2,0,0.4-0.1s0.2-0.3,0.3-0.4
				c0.1-0.1,0.3,0,0.5-0.1s0.2-0.3,0.3-0.4c0.2-0.2,0.4-0.1,0.6-0.4S22.8,94.5,22.8,94.5z"/>
			<path id="Path_1940" class="st7" d="M20,92.9c0.2-0.1,0.4,0,0.5,0c0.4,0.1,0.8,0.2,1.2,0.4c0.6,0.4,1.2,0.8,1.7,1.2
				c0.1,0.2-0.1,0.4-0.6,0.4c-0.9-0.3-1.8-0.6-2.6-1.1"/>
			<path id="Path_1941" class="st21" d="M29.6,43.6c-2.4,0.5-4.9,0.5-7.3-0.2c-0.2,0-0.3,0.1-0.5,0.1c-1.2,0.3-2.9,0.6-4,0.8
				c-0.3,0.1-0.6,0.1-0.8,0.1c-0.1-0.3-0.2-0.6-0.2-0.9v0C16.9,43.3,17,43,17,43c0.3-0.2,0.5-0.4,0.8-0.6c0.4-0.3,0.9-0.6,1-0.7
				c0.2-0.2,5.3-1.9,5.3-1.9c0.1,0,2.3,0.8,3.9,1.3h0c0.6,0.2,1.1,0.4,1.3,0.5C29.5,42.1,29.5,42.8,29.6,43.6z"/>
			<g id="Group_995" transform="translate(12.007)">
				<path id="Path_1942" class="st2" d="M18.1,39.7L18.1,39.7c-0.3-1.6-1.7-6.1-6.8-5.6c-7.6,0.7-7.8,5.7-6.9,9.4l0,0
					c-0.2,0.1-0.3,0.4-0.2,0.6c0.1,0.2,0.3,0.3,0.5,0.2c0.6-0.1,1.3-0.2,1.9-0.4c2.8-0.6,8.2-1.8,11.3-3.5c0.1,0,0.2-0.1,0.3-0.1
					C18.6,39.8,18.1,39.7,18.1,39.7z"/>
				<path id="Path_1943" class="st22" d="M7.3,35.1c0,0,5.8-1.4,7.8,6.6c0.8-0.2,1.6-0.5,2.3-0.9c0,0-1.2-6.2-6-6.7
					C9.9,33.6,8.3,34,7.3,35.1z"/>
				<path id="Path_1944" class="st2" d="M9.7,42.9c2.8,0.8,5.7,0.8,8.5,0c0,0,3.2-1,0-2.6L9.7,42.9z"/>
			</g>
		</g>
	</g>
	<g id="Group_1007" transform="translate(110.847 177.237)">
		<path id="Path_1945" class="st6" d="M58.7,156.9c0,1.1-9.7,1.9-21.8,1.9s-21.8-0.9-21.8-1.9s9.7-1.9,21.8-1.9
			S58.7,155.9,58.7,156.9z"/>
		<g id="Group_1006">
			<path id="Path_1946" class="st23" d="M13.7,76.4c-1.4-0.3-2.8-0.8-4-1.4c-1.1-0.4-1.1,0.5-1.9,0.4s-4.5,0.5-3.5,0.9
				s3.2,0,3.4,0.4s0.2,0.4-0.1,1.5s1.2,1.2,2.2,1.5s2.1-0.8,2.6-0.7s2.2,0,2.2,0s11.6,1.3,13.4,0.9s2.8-11,2.8-11l-5-0.4
				c0,0-1,6.9-1.3,7.1C22,75.5,13.7,76.4,13.7,76.4z"/>
			<path id="Path_1947" class="st8" d="M29.4,55.8c0,0-2,1-3,6.7l-1.1,7.1c0,0,0.6,0.9,5,1"/>
			<g id="Group_1003" transform="translate(19.314 19.954)">
				<g id="Group_1002" transform="translate(4.69)">
					<g id="Group_998" transform="translate(25.08 97.194)" class="st24">
						<path id="Path_1948" class="st25" d="M4.1,33.9L4.1,33.9L4.1,33.9L4.1,33.9z"/>
					</g>
					<g id="Group_1001">
						<path id="Path_1949" class="st8" d="M25.7,40.1c-0.1,1.3-0.2,2.6-0.5,3.9c-0.8,4.1-2,8-3.6,11.9c-0.7,1.8-0.8,3.7-0.4,5.5
							c0.8,3.7-0.1,3.9-0.1,3.9c-2.9,1.8-5.9,3.3-9.1,4.4c-2.6,0.8-4.9,0.8-5.4-1.5c0-0.1,0-0.3-0.1-0.4c-0.5-0.1-0.5-0.6-0.4-0.8
							c0-0.1,0-0.2,0.1-0.4c0-0.3,0.1-0.6,0.1-0.7c0.1-7.4-1.1-7-1.5-15.2c-0.4-8.5,0.8-12.6,1-15c2-0.7,4-1.3,6.1-1.6
							c1.7-0.3,3.4-0.3,5.1,0.1c0.9,0.2,2,0.4,2.9,0.6C24.3,35.8,25.7,36.9,25.7,40.1z"/>
						<path id="Path_1950" class="st11" d="M21.7,71.6C22.1,71.6,23,70,23,70l-0.4-0.5c-0.2-0.3-0.5-0.5-0.9-0.6l-0.1,0
							c-0.3-0.1-0.6,0-0.8,0.3c-0.3,0.4-0.7,0.8-1.1,0.8h0c0,0,0,0-0.1,0C19.2,70,21.3,71.5,21.7,71.6z"/>
						<path id="Path_1955" class="st14" d="M20.7,69c-0.2,0.3-0.5,0.6-0.7,0.8c-0.2,0.1-0.2-0.1-0.1-0.2S20.7,68.8,20.7,69z"/>
						<path id="Path_1956" class="st15" d="M26.6,128.8c0,0-0.2,4.1-0.2,4.6c0,0.3-2,0.6-2.9,0c-0.1-1.5-0.6-4.6-0.6-5.5"/>
						<path id="Path_1957" class="st2" d="M22.4,83.6c0,0,5.7-9.7-2-18.2c0,0-5.3,2.4-9.5,2.6c-1.7,0.2-3.4,0.1-5-0.1
							c-0.9,5.5-1.3,11-1.1,16.6L22.4,83.6z"/>
						<path id="Path_1958" class="st15" d="M9.6,127.4l-0.5,6l-1.5,0.7l-1.4-0.7l-0.2-5.4"/>
						<path id="Path_1959" class="st2" d="M26.8,129.3c-0.2-7,0.3-21.3-3-27.6l0,0c0-0.1,0-0.2,0-0.4c-0.4-3.4,0.2-19.5,0.4-22.6
							c0.1-1.1-0.9-2.1-2-2.9c1.4-0.7,2.3-1.2,2.3-1.2c-0.6-4.9-1.6-6.9-2.1-10.9s1.9-12.1,2.2-16.6c-0.5,1-2.8,2.4-3.8-1.3
							s0.6-10.7,0.6-10.7c-0.6-0.2-1.3-0.4-1.9-0.5c-1,2.6-1.7,5.3-2.2,8c-7-0.9-10.6-0.2-10.6-0.2c-0.1-2.3-0.1-4.7,0.2-7
							c-0.5,0.1-1,0.2-1.5,0.5c-0.3,2.4-0.5,4.8-0.6,7.2c-0.4,3.4,0.1,13.4,0.1,18.3c0,3.1-0.3,12.4-0.5,17.2c0,0.2,0,0.3-0.1,0.5
							c0,0.3,0,1.2,0,2.5l0,0c0,5.7,0,19,0,19.4c0,0.5-0.1,1.1,0,1.6c0,0.3,0,0.6,0,0.9c0.2,5.2,1.5,17.2,1.5,27.9
							c1.2,0.7,2.7,0.8,4,0.1c1.1-9.2,4.3-20.7,1.1-28.6c1-3.9,2.6-9.9,3.5-14.5c0.7,4.5,2,11,3.1,15.2c0,0,0,0,0,0
							c1.2,5.1,4.8,21.6,5.4,27.5c0.2,1,3.5,0.6,4.1,0.2C26.8,131.1,26.8,129.4,26.8,129.3z M13.8,79.9c0-0.1-0.1-0.2-0.1-0.4
							l0.2-0.1C13.9,79.6,13.9,79.7,13.8,79.9z"/>
						<path id="Path_1960" class="st26" d="M10.5,122.9c-0.7,7.8-0.9,8.4-0.9,8.4c1-8.7,4-19.1,1.6-27.3c-0.3-0.9-0.3-1.9-0.1-2.8
							c1.3-5.1,3-11.7,3.7-15.9l-1.1-0.9c0,0-1.7-7.5-2.1-7.7s0.1,2.5,0.3,6s0.8,5.6,0,9.7s-2.4,7.7-2.8,10
							C10.4,106.1,11.2,115.1,10.5,122.9z"/>
					</g>
				</g>
				<path id="Path_1961" class="st17" d="M14.3,137c0,0.1-0.1,0.2-0.2,0.2H5c-0.5,0-0.9-0.2-0.9-0.4c-0.1-0.4,0.3-0.5,0.5-0.6
					c0,0,4.8-2,5-2.1l1.2-0.6c0.5,0.1,1,0.2,1.5,0.2c0.5,0,0.9-0.1,1.4-0.2C14.5,134.5,14.7,135.8,14.3,137z"/>
				<path id="Path_1962" class="st17" d="M31.5,137c0,0.1-0.1,0.2-0.2,0.2h-9c-0.5,0-0.9-0.2-0.9-0.4c-0.1-0.4,0.3-0.5,0.5-0.6
					c0,0,4.8-2,5-2.1l1.2-0.6c0.5,0.1,1,0.2,1.5,0.2c0.5,0,0.9-0.1,1.4-0.2C31.8,134.5,32,135.8,31.5,137z"/>
			</g>
			<path id="Path_1963" class="st8" d="M37.9,98.2c-0.8,0-1.4,0.6-1.4,1.4v2.3h0.9v-2.1c0-0.4,0.3-0.7,0.7-0.7h9.9
				c0.4,0,0.7,0.3,0.7,0.7v2.2h0.9v-2.3c0-0.8-0.6-1.4-1.4-1.4L37.9,98.2z"/>
			<path id="Path_1964" class="st23" d="M44,93.1c-0.3,0.8-0.7,1.5-1.4,2.1c-0.7,0.4-1.4,0.9-2,1.5c-0.3,0.6-0.6,1.1-0.8,1.7
				c0,0.3,0.3,1.3,0.5,1.4s-0.1,0.8,0.1,1c0.3,0.3,0.7,0.3,1,0.1c0.3-0.2,0.6,0.1,0.9,0c0.2-0.1,0.4-0.2,0.6-0.3
				c0.2,0,0.3,0.2,0.7,0c0.4-0.2,0.4-0.3,0.6-0.4s0.3,0.1,0.6-0.3c0.3-0.4,0.6-0.9,0.8-1.4c0.3-0.7,0.4-1.4,0.3-2.1
				c0.1-1,0.4-2,0.9-2.9L44,93.1z"/>
			<path id="Path_1965" class="st27" d="M40.6,99.7c0.2-0.4,0.2-0.9,0.2-1.4c0-0.3,0.2-0.4,0.2-0.8c0.3,0.4,0,0.5,0,1.3
				c0.1,0.3,0,0.7-0.2,1c0,0-0.1,0.1-0.2,0C40.6,99.8,40.6,99.8,40.6,99.7z"/>
			<path id="Path_1966" class="st8" d="M37.9,98.2h2.9c0,0.1,0,0.1,0,0.2c0,0.2,0,0.4,0,0.7H38c-0.4,0-0.7,0.3-0.7,0.7v2.2h-0.9
				v-2.3C36.5,98.8,37.1,98.2,37.9,98.2C37.9,98.2,37.9,98.2,37.9,98.2z"/>
			<path id="Path_1967" class="st23" d="M48.5,80.9c-0.7,1.2-1.2,2.5-1.6,3.8c-0.4,1.5-3.5,10.1-3.5,10.1l1.9,1.5
				c0,0,6.5-9.9,7-13.2c0.2-1-1.6-3.6-1.6-3.6L48.5,80.9z"/>
			<path id="Path_1968" class="st23" d="M46.6,72.1c0,0,1,7,1.9,8.8s3.9,2.2,3.9,2.2c0.5-3.7,0.5-7.5,0.1-11.3"/>
			<path id="Path_1969" class="st8" d="M52.7,72.9c-2,0.3-4,0.3-6,0.2c-1.4-4.9-2.4-11-2.1-12.8c0.5-3.2,0.5-5.4,2.6-4.5
				C47.2,55.8,53.4,57.8,52.7,72.9z"/>
			<path id="Rectangle_879" class="st28" d="M34,101.8h17.8c0.7,0,1.2,0.6,1.2,1.2c0,0,0,0,0,0v1.2l0,0H32.8l0,0v-1.2
				C32.8,102.4,33.4,101.8,34,101.8C34,101.8,34,101.8,34,101.8z"/>
			<path id="Rectangle_880" class="st28" d="M33,104.3h19.9l0,0v6.9c0,0.3-0.2,0.5-0.5,0.5h-19c-0.3,0-0.5-0.2-0.5-0.5c0,0,0,0,0,0
				V104.3L33,104.3z"/>
			<rect id="Rectangle_881" x="33" y="104.3" class="st29" width="19.9" height="0.3"/>
			<path id="Rectangle_882" class="st2" d="M35.6,103.4H37c0.2,0,0.3,0.1,0.3,0.3v1.2c0,0.2-0.1,0.3-0.3,0.3h-1.4
				c-0.2,0-0.3-0.1-0.3-0.3v-1.2C35.3,103.5,35.5,103.4,35.6,103.4z"/>
			<path id="Rectangle_883" class="st2" d="M48.9,103.4h1.4c0.2,0,0.3,0.1,0.3,0.3v1.2c0,0.2-0.1,0.3-0.3,0.3h-1.4
				c-0.2,0-0.3-0.1-0.3-0.3v-1.2C48.6,103.5,48.7,103.4,48.9,103.4z"/>
			<g id="Group_1004" transform="translate(27.257 2.894)">
				<path id="Path_1970" class="st23" d="M5.5,41.2c0-0.3-0.3-0.6-0.6-0.6c-0.2,0-0.4,0.2-0.5,0.4c-0.3,0.7-0.4,1.4-0.3,2.1
					C4.2,43.9,4.8,44,5.4,44"/>
				<path id="Path_1971" class="st23" d="M7.2,48.3c0.2,0.9,0.3,1.8,0.4,2.8c-0.2,0.4-1,0.7-1,0.7c0,1.2,1.1,2.2,2.3,2.2
					c4,0.2,4.9-2.6,4.9-2.6s-0.9-0.3-0.9-0.6s-0.1-5.4-0.1-5.4"/>
				<path id="Path_1972" class="st23" d="M8.9,35.6c-0.7,0.3-2.6,0.2-3,1c-0.3,1.1-0.6,2.2-0.7,3.3c-0.2,1.1-0.3,2.2-0.5,3.3
					c-0.2,1.4-0.4,4,1.1,5c0.3,0.2,0.7,0.4,1.1,0.4c0.7,0,1.3,0.1,2,0.1c1,0.1,2.1,0,3.1-0.4c1.2-0.6,1.7-2.5,1.9-3.8l0.9-7.3
					L8.9,35.6z"/>
				<path id="Path_1973" class="st30" d="M14.3,43.1c-0.5-0.2-0.9-0.4-1.1,0c-0.1,0.2-0.2,0.6-0.4,0.7c-0.3,0.1-0.6-0.1-0.7-0.3
					c-0.1-0.3-0.1-0.5,0-0.8c0.1-0.6,0.2-1.2,0.3-1.8c0.2-0.6,0.1-1.2-0.1-1.7c-0.2-0.3-0.4-0.5-0.6-0.6c-0.9-0.5-1.8-0.7-2.8-0.8
					c-1,0-2-0.1-2.9-0.2c-0.4-0.1-0.8-0.2-1.2-0.4c-0.6-0.4,6.9-3.8,8.6-3.3c1.1,0.3,2,0.5,2.2,2.2c0.1,0.1,0.1,0.2,0.2,0.2
					c1.1,0.7,2.1,1.2,2.2,2.8c0,2.2-0.5,4.3-1.5,6.2c-0.2,0.4-0.4,0.8-0.7,1.1C15.5,46.8,15,47,14.4,47c-0.5,0-1.4,0.1-1.5-0.3
					c-0.1-0.3,0.6-1.1,0.7-1.4"/>
				<path id="Path_1974" class="st23" d="M12.9,45.2c0,0.3,0.2,0.6,0.5,0.7c0.2,0,0.3,0,0.5-0.1c0.6-0.4,1.1-1,1.1-1.8
					c0-0.8-0.5-1.6-1.2-1.3c-0.4,0.2-0.6,0.7-0.6,1.2"/>
				<path id="Path_1975" class="st27" d="M7.3,48.5l2.1,0.1c-0.4,0.7-1.1,1.2-1.9,1.2"/>
			</g>
			<g id="Group_1005" transform="translate(26.806)">
				<path id="Path_1976" class="st2" d="M13.5,42.6c0,0-2.4,2-8.5,0.3c-0.5-0.1-1.9-1.1,0-1.9L13.5,42.6z"/>
				<path id="Path_1977" class="st2" d="M5.1,40.4L5.1,40.4c0.1-1.6,1-6,6-6.1c7.4-0.2,8.1,4.6,7.6,8.3l0,0c0.2,0.1,0.3,0.3,0.3,0.5
					c-0.1,0.2-0.2,0.3-0.4,0.3c-0.6,0-1.3-0.1-1.9-0.2c-2.8-0.3-8.1-0.9-11.3-2.2c-0.1,0-0.2,0-0.3-0.1C4.6,40.5,5.1,40.4,5.1,40.4z
					"/>
				<path id="Path_1978" class="st22" d="M15.1,34.8c0,0-5.7-0.8-6.8,7.1c-0.8-0.1-1.6-0.3-2.3-0.6c0,0,0.5-6.1,5.1-7.1
					C12.4,33.6,13.9,33.9,15.1,34.8z"/>
			</g>
		</g>
	</g>
	<g id="Group_1018" transform="translate(268.212 178.915)">
		<path id="Path_1979" class="st6" d="M63.4,155.2c0,1.1-9.7,1.9-21.8,1.9s-21.8-0.9-21.8-1.9s9.7-1.9,21.8-1.9
			S63.4,154.2,63.4,155.2z"/>
		<g id="Group_1017">
			<g id="Group_1008" transform="translate(0 9.795)">
				<path id="Path_1980" class="st19" d="M4.1,36.4l12.3,37.8c5.8,0.4,11.6,0.2,17.3-0.6c4.6-0.9,9-2.5,13-4.8l-10.1-35
					c-4.5,1.2-9,2.1-13.6,2.8C16.7,37.4,10.3,37.3,4.1,36.4z"/>
				<path id="Path_1981" class="st31" d="M31.5,62.6c0.3-1.1,0.3-2.3,0-3.5l-1.3,0.1c-0.2-0.6-0.4-1.3-0.7-1.8l1-0.8
					c-0.6-1-1.4-1.9-2.4-2.5l-0.8,1c-0.6-0.3-1.2-0.6-1.8-0.8l0.1-1.3c-1.1-0.3-2.3-0.3-3.5,0l0.1,1.3c-0.6,0.2-1.3,0.4-1.8,0.7
					l-0.8-1c-1,0.6-1.9,1.4-2.5,2.4l1,0.8c-0.3,0.6-0.6,1.2-0.8,1.8L16.2,59c-0.3,1.1-0.3,2.3,0,3.5l1.3-0.1
					c0.2,0.6,0.4,1.3,0.7,1.8l-1,0.8c0.6,1,1.4,1.9,2.4,2.5l0.8-1c0.6,0.3,1.2,0.6,1.8,0.8l-0.1,1.3c1.1,0.3,2.3,0.3,3.5,0l-0.1-1.3
					c0.6-0.2,1.3-0.4,1.8-0.7l0.8,1c1-0.6,1.9-1.4,2.5-2.4l-1-0.8c0.3-0.6,0.6-1.2,0.8-1.8L31.5,62.6z M27.9,60.9
					c-0.1,2.2-1.9,4-4.2,3.9c-2.2-0.1-4-1.9-3.9-4.2c0.1-2.1,1.8-3.8,3.9-3.9c2.2-0.1,4.1,1.7,4.2,3.9
					C27.9,60.8,27.9,60.9,27.9,60.9L27.9,60.9z"/>
				<path id="Path_1982" class="st32" d="M37.6,49.8c0.2-0.8,0.2-1.6,0-2.4l-0.9,0.1c-0.1-0.4-0.3-0.9-0.5-1.3l0.7-0.6
					c-0.4-0.7-1-1.3-1.7-1.7l-0.6,0.7c-0.4-0.2-0.8-0.4-1.3-0.5l0.1-0.9c-0.8-0.2-1.6-0.2-2.4,0l0.1,0.9c-0.4,0.1-0.9,0.3-1.3,0.5
					l-0.6-0.7c-0.7,0.4-1.3,1-1.7,1.7l0.7,0.6c-0.2,0.4-0.4,0.8-0.5,1.3l-0.9-0.1c-0.2,0.8-0.2,1.6,0,2.4l0.9-0.1
					c0.1,0.4,0.3,0.9,0.5,1.3l-0.7,0.6c0.4,0.7,1,1.3,1.7,1.7l0.6-0.7c0.4,0.2,0.8,0.4,1.3,0.5L31,53.8c0.8,0.2,1.6,0.2,2.4,0
					L33.3,53c0.4-0.1,0.9-0.3,1.3-0.5l0.6,0.7c0.7-0.4,1.3-1,1.7-1.7l-0.7-0.6c0.2-0.4,0.4-0.8,0.5-1.3L37.6,49.8z M35.1,48.6
					c-0.1,1.6-1.4,2.8-2.9,2.7c-1.6-0.1-2.8-1.4-2.7-2.9c0-1.5,1.2-2.7,2.7-2.7c1.6,0,2.9,1.2,2.9,2.8C35,48.5,35,48.6,35.1,48.6
					L35.1,48.6z"/>
				<path id="Path_1983" class="st32" d="M26,48.1c0.2-0.9,0.3-1.9,0-2.9l-1,0.1c-0.1-0.5-0.3-1-0.6-1.5l0.8-0.7
					c-0.5-0.8-1.2-1.5-2-2L22.5,42c-0.5-0.3-1-0.5-1.5-0.6l0.1-1.1c-0.9-0.2-1.9-0.3-2.9,0l0.1,1.1c-0.5,0.1-1,0.3-1.5,0.6l-0.7-0.8
					c-0.8,0.5-1.5,1.2-2,2l0.8,0.7c-0.3,0.5-0.5,1-0.6,1.5l-1.1-0.1c-0.2,0.9-0.3,1.9,0,2.9l1-0.1c0.1,0.5,0.3,1,0.6,1.5l-0.8,0.7
					c0.5,0.8,1.2,1.5,2,2l0.7-0.8c0.5,0.3,1,0.5,1.5,0.6l-0.1,1c0.9,0.2,1.9,0.3,2.9,0l-0.1-1c0.5-0.1,1-0.3,1.5-0.6l0.7,0.8
					c0.8-0.5,1.5-1.2,2-2l-0.8-0.7c0.3-0.5,0.5-1,0.6-1.5L26,48.1z M23,46.8c-0.1,1.9-1.6,3.3-3.5,3.2s-3.3-1.6-3.2-3.5
					c0.1-1.8,1.5-3.2,3.2-3.2c1.9-0.1,3.4,1.4,3.5,3.3C23,46.6,23,46.7,23,46.8L23,46.8z"/>
			</g>
			<g id="Group_1016" transform="translate(2.571)">
				<g id="Group_1009" transform="translate(26.555 0.997)">
					<path id="Path_1984" class="st30" d="M7.9,35c0,0-5.2,1.1-2.7,6.6C8.2,48.1,7.9,35,7.9,35z"/>
					<path id="Path_1985" class="st33" d="M6.3,37.4c0,0-1.5,0.9-1.5,6c0,0.2-0.6,1.7-0.7,1.8c-0.2,0.7,0.2,0.7,0.8,1
						c0.2,3.8,0.8,3.7,1.3,4.1c0.6,0.4,5-0.5,7.8-1.9s3.8-5.6,2.6-8.1S9.6,35.2,6.3,37.4z"/>
					<path id="Path_1986" class="st30" d="M19,40.9c0.5,2.4-0.7,6-5.4,7.6c0,0-0.4-1.4-0.7-2.9s-4.3-3-6-4.6C6.8,41,6.7,41,6.6,40.9
						c-1.2-1.3-1.2-3.3,0-4.7c1.6-2.1,4.5-2.9,6.9-1.9C16.5,35.3,18.6,37.8,19,40.9z"/>
					<path id="Path_1987" class="st33" d="M7.7,46.3c0.7,0.8,0.9,2.4,0.8,4c0,0.3,0,0.5,0,0.8c-0.1,1-0.2,1.9-0.4,2.9l5.4-0.1
						c-0.1-1.7,0-3.5,0.1-5.2C13.6,48.5,5.9,44.4,7.7,46.3z"/>
					<path id="Path_1988" class="st27" d="M8.4,51c1.3-0.5,2.5-1.1,3.6-1.8c-1.5,0.5-3.5,1-3.5,1C8.5,50.5,8.5,50.7,8.4,51z"/>
				</g>
				<g id="Group_1010" transform="translate(27.046 47.342)">
					<path id="Path_1989" class="st15" d="M4.1,43l8.5-9.1c0,0,5.1,5.4,4.2,11.4c-0.5,2.9-1.3,4.5-1.6,5.8
						c-0.3,1.3-0.9,19.4-0.6,20.7s2.3,4.7,3.4,8.5c1.3,4.5,2.5,11,3.6,14.9s-0.7,9.1-1,7.8C17.4,91.7,9.2,78.7,7.9,73.1
						S5.5,56.9,4.1,43z"/>
					<path id="Path_1990" class="st15" d="M17.9,94.7c0,0,2.6,7.4,2.4,8.3c-0.1,0.6-0.7,2.5-0.8,2.8c-0.1,0.1-1.9,1.6-0.7,1.6
						c1.2,0,4.1-3.9,4.5-4.2c0.6-0.4,1-1.1,0.9-1.9c-0.3-1-0.9-2-1.6-2.8c-0.5-1-0.8-2-1-3L17.9,94.7z"/>
					<path id="Path_1991" class="st17" d="M17.2,107.7c0.6-0.6,1.2-1.2,2-1.6l0,0c0.2-0.3,0.4-0.5,0.3-0.3c-0.2,0.3,0.7,0.5,1.1,0.1
						c1.4-1.1,1.8-2.8,2.5-3.6c0.6-0.9,0.7-2,0.2-2.9c0.7,0.2,1.4,0.5,2,0.9c0.4,0.3,0.8,0.7,1.1,1.2c0.3,0.8,0.6,1.5,1,2.2
						l-1.3,1.1l-1.3-1.2l-0.4,0.4c-0.3,0.4-0.6,0.9-0.7,1.4c-0.1,0.4-0.2,0.7-0.3,1.1c-0.2,0.5-0.5,1-1,1.4l-0.6,0.5
						c-0.4,0.4-1,0.5-1.5,0.5h-2.3l0,0h-0.4c-0.3,0-0.6-0.3-0.6-0.6c0,0,0-0.1,0-0.1C17,108,17.1,107.8,17.2,107.7z"/>
				</g>
				<g id="Group_1011" transform="translate(20.264 46.34)">
					<path id="Path_1992" class="st15" d="M4.4,107.6c0.2-0.2,2.3-0.8,3.3-1.3c1-0.6,1.7-1.5,2.2-2.5c0.1-1.5,0-3.1-0.3-4.6
						C8.7,91,5.8,79.5,5.2,74.8c-1.1-8.3-0.8-17,1.2-30.6l11.1-10.2c0,0,3.9,5.9,3.3,12c-0.3,3.5-3.1,4.3-3.5,5.7
						s-5.6,23.6-5.6,23.6c1.2,3.1,2,6.3,2.4,9.6c0.5,4.4-0.8,9.3-0.7,14.3c0,1.4,0.1,2.7,0.4,4.1c0.4,0.9,1.4,1.9,1.5,3
						c0,0.8-0.5,1.4-1.2,1.7c-0.8,0.3-1.3-0.1-1.6-0.1c-1.7,0.1-2,1.3-5,1.5c-1.1,0-2.1-0.3-3-0.9C4.2,108.2,4.2,107.8,4.4,107.6z"
						/>
					<path id="Path_1993" class="st17" d="M4.2,108.6c0.2,0.3,0.4,0.5,0.6,0.7c0.5,0.4,1.2,0.6,1.9,0.6h1.4c0.6,0,1.1-0.2,1.6-0.4
						c0.3-0.2,0.6-0.4,0.9-0.6c0.4-0.3,0.9-0.6,1.4-0.7c0.3,0,0.6,0,0.9,0l0.1,1.7h2c0.1-0.8,0.2-1.7,0.5-2.5c0.1-0.5,0-1-0.1-1.5
						c-0.3-0.7-0.7-1.4-1.3-2c-0.2,1-1,1.9-2,2.1c-1,0.2-2.4,1.2-4.2,1.2c-0.5,0-1.1-0.6-0.7-0.8s-0.6,0-1.1,0.2
						c-0.6,0.3-1.3,0.6-1.8,0.9C4,107.7,4.1,108.3,4.2,108.6z"/>
				</g>
				<path id="Path_1994" class="st33" d="M48.7,68.7c0,0-0.6,2.9-0.9,4.1s-2.1,8.9-3.8,8.7s-10.9-7.8-10.9-7.8l1.3-2.6l8.1,3.9
					c0,0,0.7-8.8,1.4-10.8L48.7,68.7z"/>
				<path id="Path_1995" class="st27" d="M46.4,69c-0.9,3-2.1,8.1-2.7,9c-0.3,0.4-6.1-2-6.1-4.1l5.6-6.4L46.4,69z"/>
				<path id="Path_1996" class="st8" d="M41.3,54.9c1.8,0.1,3.5,0.7,4.9,1.7c3.5,2.6,2.7,12.4,2.7,12.4s0.2,0.5-2.2,0.4
					c-1.4-0.1-2.8-0.4-4.2-0.8l0.7-7.9L41.3,54.9z"/>
				<path id="Path_1997" class="st34" d="M47.1,60.9c0,0,0.3,5.7-0.7,8.5c-0.6,0-1.3-0.1-1.9-0.2L47.1,60.9z"/>
				<path id="Path_1998" class="st34" d="M41.4,55.4c-0.1-0.6-0.3-1.4-0.9-1.6c-0.2-0.1-0.3-0.1-0.5-0.1c-1.1-0.2-2.3-0.3-3.5-0.3
					c-0.8,0-1.5,0.1-2.2,0.4c-1,0.7-1.8,1.6-2.2,2.8L41.4,55.4z"/>
				<path id="Path_1999" class="st16" d="M48.6,141.6c-0.7-3.1-2.5-11.3-3.8-14.7s-3.1-7.2-3.2-7.7c-0.1-0.5,0.4-4,0.6-5.1
					c0,0,0,0,0-0.1c0-0.4,1.9-14.7,2.5-16.9c0.9-2.3,1.3-4.8,1.2-7.3c-0.2-3.9-3.3-8.6-4.2-9.5L27.3,80c0,0-2.5,5.9-2.7,9.5
					c-0.5,7.7,0.3,23.9,0.3,23.9l0,0c0,2.1,0.2,4.2,0.5,6.3c0.4,3.2,4.9,29.2,4.9,29.2c1.3,0.2,2.7,0,3.9-0.4c0-0.2,0-0.4,0-0.6
					c-0.2-3.1,1.3-13.1,0-19.2c-0.4-2.5-1-5-1.8-7.4l1.4-6.7c0-0.1,0-0.4,0.1-0.4c0.2,2.1,0.5,4.3,1,6.4c0.7,2.4,7,16.2,9.5,22.1
					c0.9,2,1.6,4.3,1.6,4.3s3-0.3,3.9-1.7C49.2,144.1,48.9,142.8,48.6,141.6z"/>
				<path id="Path_2000" class="st8" d="M27.5,77.7c0.6-2,0.9-4.2,0.8-6.3c-0.2-1.2-1.2-1.8-1.7-4.3c-0.4-2.4,0.1-4.9,1.5-7
					c1.1-1.6,2.5-4.7,2.8-4.8c4.5-1.4,5.2-0.7,8.2-0.6c1.3,0,2.6,0.2,3.9,0.5c1.6,0.4,3.6,0.9,3.9,3.1c0.5,3.4,0.1,6.8-0.9,10
					c-0.7,2.1-2.9,11.9-2.9,12.3c0.3,1.5-2.2,1.9-4.5,2.1c-2.3,0.2-4.6,0.2-6.9,0C24.8,82.2,27.3,78.1,27.5,77.7z"/>
				<g id="Group_1014" transform="translate(0 22.287)">
					<path id="Path_2001" class="st33" d="M29.5,43.8c0,0-6.4,11-9.4,11c-1.7,0-11.4-11.6-11.4-11.6l3.3-0.9l7.9,5.5l4.8-7.9
						L29.5,43.8z"/>
					<g id="Group_1013">
						<path id="Path_2002" class="st33" d="M4.8,39.2c0-0.2,0-0.4,0-0.6c-0.1-0.4-0.4-0.8-0.5-1.2c0-0.3-0.1-0.7-0.1-1
							c0-0.4-0.3-1.1,0.1-1.1c-0.1-0.2-0.2-0.5-0.2-0.8c0-0.2,0-0.6,0.2-0.5c0.3,0,0.7,0.5,0.9,0.7c0.3,0.3,0.7,1,0.9,1.3
							c0.3,0.4,0.7,0.7,1.2,1c0,0-0.2-0.3,0-0.4c0.2-0.2,0.8,0.2,1.4,0.3c0.3,0,1.2,1.1,1.4,1.4c0.3,0.8,0.5,1.6,0.6,2.5
							c0.3,0.8,0.8,1.5,1.4,2.1L9.4,44C9.3,44,9,43.6,9,43.5c-0.2-0.2-0.4-0.4-0.6-0.5c-0.9-0.8-2.2-1.3-2.9-2.2
							C5.1,40.3,4.9,39.8,4.8,39.2L4.8,39.2z"/>
						<g id="Group_1012" transform="translate(3.076 2.89)">
							<path id="Path_2003" class="st27" d="M4.3,33.9c0.4,0.3,0.8,0.6,1.2,0.7c0.3,0.2,0.3,0.3,0.6,0.5c-0.5,0.1-0.5-0.2-1.2-0.5
								c-0.3-0.1-0.7-0.3-0.8-0.6c0-0.1,0-0.1,0-0.2C4.2,33.9,4.2,33.9,4.3,33.9L4.3,33.9z"/>
						</g>
					</g>
				</g>
				<path id="Path_2004" class="st8" d="M35.1,54.5c-1.4,0.1-6,0.4-8.8,4.5c-1.6,2.2-3,4.7-4.1,7.2c0.4,1.3,2.8,3.9,5,3.9
					c0.1-0.1,4-3.2,4.7-6.5L35.1,54.5z"/>
				<path id="Path_2005" class="st35" d="M43.5,78.8c-0.1,0.5-0.1,0.9-0.1,1.4c0,0.3,0,0.7,0.1,1c0.1,0.4,0.1,0.8,0.3,1.2
					c0.3,1,0.7,2,1.3,2.9c-8.4,2.8-20-0.4-20-0.4s0.4-1.3,0.9-3c0.1-0.4,0.2-0.9,0.4-1.4c0.1-0.4,0.2-0.8,0.3-1.2
					c0.1-0.5,0.3-1,0.4-1.4c0.3-1.2,0.6-2.4,0.8-3.1c0.3-1.6,0.3-3.2-0.2-4.8c8.3-5.3,4.6-15.2,4.6-15.2c1.7-0.4,3.5-0.6,5.2-0.4
					c7.3,0,9.2,2.4,9.2,2.4c0.9,3.3,0.9,6.9-0.1,10.2C45.3,70.9,44.3,74.9,43.5,78.8z"/>
				<path id="Path_2006" class="st30" d="M46.3,60c-2.6,1.5-5.7,1.4-7.9,0.9c0.1-1.8,0-5.3,0-5.3c-0.1,1.7-0.4,3.5-0.7,5.2
					c-0.6-0.1-1.3-0.3-1.9-0.6c0,0,1.7-8.5,1.7-12.2c0-3.2-3.4-5.4-3.4-5.4l5.7-7.4c3,1.1,5.2,3.6,5.8,6.7
					C46.2,44.6,46.3,60,46.3,60z"/>
				<path id="Path_2007" class="st36" d="M40.9,93.1c-0.4,1.6-1.1,3.1-2.1,4.4l-4.9,18.3c0,0-0.1-0.8-0.2-1.7
					c1.6-6.7,3.6-15.5,3.8-16.3C37.9,96.6,40.2,95.8,40.9,93.1z"/>
				<path id="Path_2008" class="st37" d="M43.5,78.8c-0.1,0.5-0.1,0.9-0.1,1.4c-5.6,1.1-11.3,0.8-16.8-0.8c0.1-0.5,0.3-1,0.4-1.4
					C27.1,78,31.8,80.2,43.5,78.8z"/>
				<path id="Path_2009" class="st37" d="M43.8,82.5c-0.6,0.2-0.9,0.2-0.9,0.2C37.3,83.8,31.5,83.6,26,82c0.1-0.4,0.2-0.9,0.4-1.4
					c0.8,0.4,5.6,2.3,16.1,0.9c0.2,0,0.8-0.2,1-0.3C43.6,81.7,43.7,82.1,43.8,82.5z"/>
				<g id="Group_1015" transform="translate(24.565)">
					<path id="Path_2010" class="st2" d="M21.8,43.7c0,0.3-0.5,0.3-0.5,0.3c-2.3,0.1-4.5,0.1-6.8-0.1c-0.1,0-0.4,0-0.9,0
						c-0.3,0-0.7,0-1.1,0c0,0-0.1,0-0.1,0c-2.8-0.1-7.7-0.4-8.3-0.9c-0.8-0.6,2-1.3,2-1.3h0c-0.1-2.3,0.5-7.6,7.5-7.8
						c0.5,0,0.9,0,1.4,0h0l0,0c6.8,0.6,6.6,6.7,6.3,9.1C21.7,43.2,21.8,43.4,21.8,43.7z"/>
					<path id="Path_2011" class="st38" d="M21.8,43.7c0,0.3-0.5,0.3-0.5,0.3c-2.3,0.1-4.5,0.1-6.8-0.1c-0.1,0-0.4,0-0.9,0
						c4.1,0.1,6-0.9,6-0.9c0.5-8.3-4.2-9-4.5-9.1c6.8,0.6,6.6,6.7,6.3,9.1C21.7,43.2,21.9,43.4,21.8,43.7z"/>
				</g>
			</g>
		</g>
	</g>
	<g id="Group_1021" transform="translate(36.423 276.063)">
		<g id="Group_1019" transform="translate(217.589)">
			<path id="Path_2012" class="st2" d="M26.5,57.7H7.1l0.2-0.6L10.5,46l0.6-2.1l0.4-1.2l0.6-2.1l1.2-4.1c0.6-1.9,2.6-3,4.5-2.5
				c1.2,0.3,2.1,1.3,2.5,2.5l1.2,4.1l0.6,2.1l0.4,1.2L23,46l3.3,11.1L26.5,57.7z"/>
			<path id="Rectangle_884" class="st2" d="M4.8,57.7h23.9c0.4,0,0.8,0.3,0.8,0.8v0c0,0.4-0.3,0.8-0.8,0.8H4.8
				c-0.4,0-0.8-0.3-0.8-0.8v0C4.1,58,4.4,57.7,4.8,57.7z"/>
			<path id="Path_2013" class="st39" d="M22.1,42.6H11.5l0.6-2.1h9.3L22.1,42.6z"/>
			<path id="Path_2014" class="st39" d="M23,46H10.5l0.6-2.1h11.3L23,46z"/>
			<path id="Path_2015" class="st40" d="M26.5,57.7H7.1l0.2-0.6h19.1L26.5,57.7z"/>
		</g>
		<g id="Group_1020">
			<path id="Path_2016" class="st2" d="M26.5,57.7H7.1l0.2-0.6L10.5,46l0.6-2.1l0.4-1.2l0.6-2.1l1.2-4.1c0.6-1.9,2.6-3,4.5-2.5
				c1.2,0.3,2.1,1.3,2.5,2.5l1.2,4.1l0.6,2.1l0.4,1.2L23,46l3.3,11.1L26.5,57.7z"/>
			<path id="Rectangle_885" class="st2" d="M4.8,57.7h23.9c0.4,0,0.8,0.3,0.8,0.8v0c0,0.4-0.3,0.8-0.8,0.8H4.8
				c-0.4,0-0.8-0.3-0.8-0.8v0C4.1,58,4.4,57.7,4.8,57.7z"/>
			<path id="Path_2017" class="st39" d="M22.1,42.6H11.5l0.6-2.1h9.3L22.1,42.6z"/>
			<path id="Path_2018" class="st39" d="M23,46H10.5l0.6-2.1h11.3L23,46z"/>
			<path id="Path_2019" class="st40" d="M26.5,57.7H7.1l0.2-0.6h19.1L26.5,57.7z"/>
		</g>
	</g>
	<g id="Group_1022" transform="translate(130.093 80.647)">
		<path id="Path_2020" class="st41" d="M55.1,57.6l-2-8.2l-3.4,0.8c-1.2-2.7-3-5.1-5.2-7.2l1.8-3l-7.2-4.4l-1.8,3
			c-2.8-1-5.8-1.5-8.7-1.4l-0.8-3.4l-8.2,2l0.8,3.4c-2.7,1.2-5.1,3-7.2,5.2l-3-1.8l-4.4,7.2l3,1.8c-1,2.8-1.5,5.8-1.4,8.7l-3.4,0.8
			l2,8.2l3.4-0.8c1.2,2.7,3,5.1,5.2,7.2l-1.8,3l7.2,4.4l1.8-3c2.8,1,5.8,1.5,8.7,1.4l0.8,3.4l8.2-2l-0.8-3.4c2.7-1.2,5.1-3,7.2-5.2
			l3,1.8l4.4-7.2l-3-1.8c1-2.8,1.5-5.8,1.4-8.7L55.1,57.6z M33.3,74.9c-8.6,2.1-17.2-3.2-19.3-11.8c-2.1-8.6,3.2-17.2,11.8-19.3
			c8.6-2.1,17.2,3.2,19.3,11.8C47.2,64.2,41.9,72.8,33.3,74.9C33.3,74.9,33.3,74.9,33.3,74.9z"/>
		<path id="Path_2021" class="st41" d="M32,69.3c-5.5,1.3-11-2-12.3-7.5c-1.3-5.5,2-11,7.5-12.3s11,2,12.3,7.5c0,0,0,0,0,0
			C40.8,62.5,37.5,68,32,69.3C32,69.3,32,69.3,32,69.3z"/>
	</g>
	<g id="Group_1023" transform="translate(266.699 120.455)">
		<path id="Path_2022" class="st4" d="M39.1,50.1l-1.4-5.6l-2.4,0.6c-0.8-1.9-2.1-3.5-3.6-4.9l1.3-2.1l-4.9-3l-1.3,2.1
			c-1.9-0.7-4-1-6-0.9l-0.6-2.3l-5.6,1.4l0.6,2.3c-1.9,0.8-3.5,2.1-4.9,3.6l-2.1-1.3l-3,4.9l2.1,1.3c-0.7,1.9-1,4-0.9,6l-2.3,0.6
			l1.4,5.6l2.3-0.6c0.8,1.9,2.1,3.5,3.6,4.9l-1.3,2.1l4.9,3l1.3-2.1c1.9,0.7,4,1,6,0.9l0.6,2.4l5.6-1.4l-0.6-2.4
			c1.9-0.8,3.5-2.1,4.9-3.6l2.1,1.3l3-4.9l-2.1-1.3c0.7-1.9,1-4,0.9-6L39.1,50.1z M24.2,62.1c-5.9,1.4-11.8-2.2-13.2-8.1
			c-1.4-5.9,2.2-11.8,8.1-13.2c5.9-1.4,11.8,2.2,13.2,8.1c0,0,0,0,0,0C33.7,54.7,30.1,60.6,24.2,62.1C24.2,62.1,24.2,62.1,24.2,62.1
			L24.2,62.1z"/>
		<path id="Path_2023" class="st4" d="M23.2,58.2c-3.8,0.9-7.6-1.4-8.5-5.2c-0.9-3.8,1.4-7.6,5.2-8.5c3.8-0.9,7.6,1.4,8.5,5.2
			c0,0,0,0,0,0C29.3,53.5,27,57.3,23.2,58.2C23.2,58.2,23.2,58.2,23.2,58.2z"/>
	</g>
	<g id="Group_1035" transform="translate(162.746 158.316)">
		<path id="Path_2024" class="st6" d="M47.6,175.8c0,1.1-9.7,1.9-21.8,1.9s-21.8-0.9-21.8-1.9s9.7-1.9,21.8-1.9
			S47.6,174.8,47.6,175.8z"/>
		<path id="Path_2025" class="st30" d="M29.8,58.5c0.8,0.7,1.4,1.6,1.9,2.7c0.4,1,0.3,2.2-0.3,3.1c-0.3,0.5-0.9,0.8-1.5,0.7
			c-0.1,0-0.3-0.1-0.4-0.2c-1.4-0.9-2.3-2.3-2.5-4"/>
		<g id="Group_1030" transform="translate(3.882)">
			<g id="Group_1024" transform="translate(0 133.127)">
				<path id="Path_2026" class="st42" d="M9.1,34.6c0,0-1,2.8-1.2,3.5s-2.4,0.1-2.5-0.4c0.2-1.3,0.4-2.6,0.8-3.8"/>
				<path id="Path_2027" class="st17" d="M4.7,37.8c-0.3,0.7-0.5,1.4-0.6,2.2c0.1,0.4,2.8,1.5,3.3,1.9c0.6,0.3,1.2,0.6,1.9,0.7
					c1.8,0.3,3.1,0,3.3-0.3c0.6-1.1-2.9-1.9-4.4-5.1c-0.2,0-0.4,0.1-0.5,0.2c-0.4,0.4-1,0.6-1.5,0.3c-0.3-0.2-0.6-0.5-0.7-0.8
					C5.1,37.1,4.8,37.4,4.7,37.8z"/>
			</g>
			<g id="Group_1025" transform="translate(25.115 134.986)">
				<path id="Path_2028" class="st42" d="M7.3,33.9c0,0-0.1,3-0.1,3.7S5,38.4,4.7,38c-0.2-1.3-0.4-2.6-0.4-3.9"/>
				<path id="Path_2029" class="st17" d="M4.1,38.3C4,39,4.1,39.8,4.2,40.5c0.2,0.3,3.1,0.6,3.8,0.8c0.7,0.1,1.4,0.2,2,0.1
					c1.8-0.2,3-0.9,3-1.2c0.2-1.3-3.4-0.9-5.8-3.5c-0.2,0.1-0.4,0.2-0.4,0.4c-0.2,0.5-0.8,0.8-1.3,0.7c-0.4-0.1-0.7-0.3-1-0.6
					C4.3,37.5,4.1,37.9,4.1,38.3z"/>
			</g>
			<path id="Path_2030" class="st42" d="M56.6,52.6c0-0.3-0.4-0.2-0.6,0.1c0,0.1-0.1,0.1-0.1,0.2c0.1-0.5,0.1-1,0.1-1.1
				c0-0.3-0.4-0.2-0.6,0c0-0.2,0-0.4,0-0.4c0-0.4-0.4-0.3-0.6,0.1c-0.1,0.2-0.1,0.4-0.1,0.5c0-0.1,0-0.2,0-0.3c0-0.3-0.4-0.3-0.5,0
				c-0.1,0.2-0.1,0.4-0.2,0.6c-0.1,0.3-0.2,0.7-0.3,1c-0.1,0.3-0.5,1.7-1.2,1.7c-1.1,0.1-0.3-1.6-1-2.1c-0.2-0.1-0.6,1.3-0.7,2.1
				C51,55.5,51,56,51,56.6c0.1,0.5,0.1,1,0.2,1.5c-0.2,0.5-0.4,0.9-0.7,1.4l2.6,0.8c0.3-0.6,0.7-1.2,1.1-1.7
				c0.9-0.7,1.5-1.7,1.9-2.7c0.2-0.7,0.4-1.4,0.5-2.1C56.5,53.7,56.6,52.7,56.6,52.6z"/>
			<path id="Path_2031" class="st42" d="M29.6,72.8c0,0,8.5,0.6,13.5-4.1c4.1-4.8,8.1-10.2,8.4-10.7c0.7,0.3,2.2,1.2,2.2,1.2
				S48,69.5,45.9,71.9s-6.1,6.1-14.2,7.4C28.3,74.7,29.6,72.8,29.6,72.8z"/>
			<path id="Path_2032" class="st2" d="M35.3,140.8c0.5-6.4-1.7-26.5-1.9-28.2s-1.4-1.9-2.4-2.2c-4.6-1.4-10.1,5.8-8.7,12.2
				c0,0.1,0,0.2,0.1,0.3c0.9,3.7,5.8,15.7,5.4,19.2c-2.7,7.3,0.4,22.3,1.3,28.7c0.1,0,0.2,0,0.3,0c1.2,0,2.4-0.2,3.6-0.4
				C33.1,170.4,34.8,147.2,35.3,140.8z"/>
			<path id="Path_2033" class="st26" d="M29.4,142c0.2-2.4-2.2-21.2-2.8-20.9c-0.2,0.1-0.3,0.3-0.4,0.5c-0.5,0.9-1,1.7-1.4,2.6
				c-0.4,0.9-0.8,1.9-1.1,2.8c1.7,5.1,4.4,12.5,4.2,15.1c-1.6,4.3-1.2,11.4-0.4,17.7C27.2,151.5,29.3,143.9,29.4,142z"/>
			<path id="Path_2034" class="st2" d="M32.6,105.7c-1.7,0.3-3.5,0.4-5.3,0.3c-4.5-0.1-10.1-2.4-10.1-2.4
				c-5.7,6.1-2.6,13.3-2.8,15.7c-0.2,2.3-0.2,12.8-0.6,19.2c0,0.5-0.2,1-0.5,1.4c-4.2,6-6.1,20.1-7.7,27.8l-0.1,0.3
				c1.2,0.5,2.5,0.8,3.8,1.1l0.2-0.6c1.7-5.2,9.6-20.1,11.6-25.9c1.8-5.3,6.4-21.3,6.5-21.3l5.9,1C33.7,116.8,33.4,111.3,32.6,105.7
				z"/>
			<g id="Group_1027" transform="translate(12.363 24.513)">
				<g id="Group_1026">
					<path id="Path_2035" class="st42" d="M4.5,40.7c0.3,0.9,0.8,1.7,1.3,2.5c1.1,1.5,2.5,3.1,2.6,3.3c0.5,1.1,0.3,2.3-0.4,3.2
						l3,2.8l0.9,0.9l0.6-0.6l1.9-1.9l0.1-2.2c-0.4-0.4-0.7-0.8-0.9-1.3c0-0.1-0.1-0.2-0.1-0.3c-0.1-0.2-0.1-0.5-0.1-0.5
						c0.2-0.1,0.8-0.3,1.7-0.8c1-0.7,1.4-1.9,1-3c-0.2-0.9-1.7-5.6-1.7-5.6c-1.3-5.8-8.8-2.2-9.8-1.1S4.1,39,4.5,40.7z"/>
				</g>
			</g>
			<path id="Path_2036" class="st8" d="M28.7,72.7c2.8,0.3,5.6-0.1,8.2-1.1c1.5,2,2.5,4.3,3.1,6.7c0,0-5.3,3.4-9.2,3.7
				C30.4,78.9,29.7,75.7,28.7,72.7z"/>
			<path id="Path_2037" class="st43" d="M29.5,73.5c1.7,2.4,2.8,5.2,3.2,8.2c2.6-0.7,5.1-1.8,7.4-3.4c-1.2,0.4-6.2,2.2-6.9,0.7
				C32.2,77,30.9,75.2,29.5,73.5z"/>
			<g id="Group_1028" transform="translate(9.755 38.75)">
				<path id="Path_2038" class="st2" d="M23.6,73.8c-5.5,1.2-11.2,1.4-16.8,0.6c-1.1-0.1-1.6-0.2-2.8-0.4c1.5-5,1-14.4,1.2-18.5
					c0,0,0.2-8.3,0.2-11.5c0-1.7,0.1-3.4,0.4-5.1c0.1-0.4,0.2-0.9,0.5-1.2c0.8-0.7,1.6-1.3,2.4-1.8c1.8,0.2,3.4,1.1,4.4,2.5
					c0.6,1.1,1,2.3,1,3.6c0,0.7,0,1.5-0.2,2.2l6.6-1.8c0,0,0-0.5,0-1.3c0-2.5-0.6-4.9-1.9-7c0.6-0.1,1.2,0,1.7,0.2
					c0.5,0.8,0.8,1.6,1,2.5c0.4,1.5,0.7,2.9,1,4.4c0.1,0.6,0.2,1.3,0.3,1.9C24.8,56.1,23.6,73.8,23.6,73.8z"/>
				<path id="Path_2039" class="st8" d="M14,44.1l6.6-1.8c0,0,0.3-5.1-1.9-8.4c-0.6,0-1.2,0.1-1.8,0.2c0.4,0.6,0.2,1.3-0.3,1.7
					c-0.1,0.1-0.2,0.1-0.3,0.2c-2,0.6-5.3-1.3-5.3-1.3c-0.8,0.3-1.6,0.7-2.3,1.2C9.1,35.8,15.3,36.8,14,44.1z"/>
			</g>
			<path id="Path_2040" class="st44" d="M67.6,51.9l2.5-0.6l-1.5-6l-2.5,0.6c-0.9-2-2.2-3.8-3.8-5.3l1.3-2.2l-5.3-3.2L57,37.4
				c-2.1-0.8-4.2-1.1-6.4-1L50,33.9l-6,1.5l0.6,2.5c-2,0.9-3.8,2.2-5.3,3.8l-2.2-1.3l-3.2,5.3l2.2,1.3c-0.8,2.1-1.1,4.2-1,6.4
				L32.6,54l1.5,6l2.5-0.6c0.9,2,2.2,3.8,3.8,5.3L39,66.9l5.3,3.2l1.3-2.2c2.1,0.8,4.2,1.1,6.4,1l0.6,2.5l6-1.5l-0.6-2.5
				c2-0.9,3.8-2.2,5.3-3.8l2.2,1.3l3.2-5.3l-2.2-1.3C67.3,56.3,67.7,54.1,67.6,51.9z"/>
			<path id="Path_2041" class="st8" d="M14.5,81.1c0,0,0,8.6,4,8.9c2.9,0.2,3.3-6.5,3.3-6.5L14.5,81.1z"/>
			<path id="Path_2042" class="st45" d="M27.5,84.4c0.1,1,0,1.1,0,1.1c-8,2.3-11.4-0.9-11.4-0.9l6.7-3.9l1.1-0.2l6.4-0.9l1.1-0.1
				c0.3,0,0.6,0.1,0.8,0.1c0.1,0.6,0.2,1.3,0.3,1.9C31,82.7,29.3,83.6,27.5,84.4z"/>
			<g id="Group_1029" transform="translate(16.549 18.758)">
				<path id="Path_2043" class="st42" d="M6.6,66.5c3.5-0.9,6.7-2.5,9.7-4.5c1.4-1,2.5-2.5,2.9-4.2c0.8-4.7-0.7-13.2-1.4-16.3
					c-2.1,0.1-2.5,0.6-2.5,0.6s-0.6,9.1-0.6,14.5c0,0-5.1,3.2-10.6,2.9"/>
				<path id="Path_2044" class="st42" d="M15.3,42.5c0-0.8-0.2-1.7-0.5-2.5c-0.5-0.9-1.8-2.1-1.5-3.4c0.5-1,1.3-1.8,2.3-2.1
					c2-0.8,2.8-0.6,3-0.1s-1,1.4-1,2.2s0.5,1.2,0.9,1.9c0.5,1.2-0.7,2.5-0.7,3.3C17.8,42.3,15.3,42.5,15.3,42.5z"/>
			</g>
			<path id="Path_2045" class="st8" d="M21.7,78.1c0,0,1.7-0.2,3.8-0.3c0.9,2.1,1.5,4.4,1.7,6.7c0,0-3.9,2.8-9.8,0.9
				c-1.7-0.6-2.8-2.2-2.8-3.9c-0.1-4.1,2-5.4,2-5.4C18.5,75.4,20.6,76.3,21.7,78.1z"/>
		</g>
		<path id="Path_2046" class="st30" d="M28.1,59.8c1.7-0.5,2.6-0.5,1.6-2.9c-0.6-1.4-7.5,0.7-8.2,1.1c-2.7,1.6-3,4.3-2.3,7
			c0,0,1.6,5.7,6,5.9c0-0.9-0.2-1.8-0.4-2.6c0,0-1.9-0.6-2.2-1.6c-0.1-0.5,0.2-1,0.7-1.1c0,0,0.1,0,0.1,0c0.5,0,0.9,0.6,0.9,0.6
			c0-0.7-0.1-1.5-0.2-2.2c-0.1-0.4-0.3-0.7-0.6-1C23.5,62.9,24.4,61,28.1,59.8z"/>
		<path id="Path_2047" class="st46" d="M27.2,71.2c0.8,0.5,1.8,0.6,2.8,0.4c-0.1-0.2-0.1-0.5-0.1-0.5C28.9,71.2,28.1,71.2,27.2,71.2
			z"/>
		<path id="Path_2048" class="st35" d="M18.4,107.2c0,0,12.7,1.9,19.2,0.9v3.6c-6.6,0.9-13.3,0.6-19.8-0.9
			C17.6,109.5,17.9,108.3,18.4,107.2z"/>
		<g id="Group_1031" transform="translate(30.393 76.591)">
			<path id="Rectangle_886" class="st47" d="M4.8,34L4.8,34c0.1,0,0.2,0.1,0.2,0.2V36c0,0.1-0.1,0.2-0.2,0.2l0,0
				c-0.1,0-0.2-0.1-0.2-0.2v-1.8C4.6,34.1,4.7,34,4.8,34z"/>
			<path id="Rectangle_887" class="st47" d="M5.5,33.9L5.5,33.9c0.1,0,0.2,0.1,0.2,0.2V36c0,0.1-0.1,0.2-0.2,0.2l0,0
				c-0.1,0-0.2-0.1-0.2-0.2v-1.8C5.3,34,5.4,33.9,5.5,33.9z"/>
			<path id="Rectangle_888" class="st47" d="M6.2,33.9L6.2,33.9c0.1,0,0.2,0.1,0.2,0.2V36c0,0.1-0.1,0.2-0.2,0.2l0,0
				C6.1,36.1,6,36.1,6,36v-1.8C6,34,6.1,33.9,6.2,33.9z"/>
			<path id="Rectangle_889" class="st47" d="M6.9,33.9L6.9,33.9c0.1,0,0.2,0.1,0.2,0.2v1.8c0,0.1-0.1,0.2-0.2,0.2l0,0
				c-0.1,0-0.2-0.1-0.2-0.2v-1.8C6.7,34,6.8,33.9,6.9,33.9z"/>
			<path id="Path_2049" class="st35" d="M4.2,34.9c0,0-0.2,1.9,0.1,2.1c0.9,0.1,1.9,0.1,2.8-0.2c0.1-0.7,0.1-1.4,0.1-2L4.2,34.9z"/>
		</g>
		<g id="Group_1032" transform="translate(14.692 68.367)">
			<path id="Path_2050" class="st47" d="M4.2,34.5l-0.1,1.1c0,0.3,0.2,0.6,0.6,0.6c0,0,0,0,0,0l1.1,0.1L5.1,48.4
				c0,0.1,0.1,0.3,0.3,0.3c0,0,0,0,0,0l0.8,0c0.1,0,0.3-0.1,0.3-0.3l0.7-12.1l1.2,0.1c0.3,0,0.6-0.2,0.6-0.6c0,0,0,0,0,0l0.1-1.1
				c0-0.3-0.2-0.6-0.6-0.6c0,0,0,0,0,0l-3.7-0.2C4.5,33.9,4.2,34.1,4.2,34.5C4.2,34.5,4.2,34.5,4.2,34.5z"/>
			<path id="Path_2051" class="st48" d="M5.8,36.3l-1.1-0.1c-0.2,0-0.4-0.1-0.5-0.3c0,0,0.1,0,0.1,0L5.8,36L5.8,36.3z"/>
			<path id="Path_2052" class="st48" d="M9.1,34.7L9,35.9c0,0.3-0.3,0.6-0.6,0.6c0,0,0,0,0,0l-1.2-0.1L6.5,48.5
				c0,0.1-0.1,0.3-0.3,0.3l-0.8,0c-0.1,0-0.3-0.1-0.2-0.3v0l0.7,0c0.1,0,0.3-0.1,0.3-0.2l0.7-12.1l1.2,0.1c0.3,0,0.6-0.2,0.6-0.5
				c0,0,0,0,0,0l0.1-1.1c0-0.1,0-0.2-0.1-0.3C8.9,34.2,9.1,34.4,9.1,34.7z"/>
		</g>
		<g id="Group_1033" transform="translate(20.138 68.851)">
			<path id="Path_2053" class="st48" d="M5.9,46.3l0.4-10.1c0.7-0.2,1-1,0.7-1.7c-0.1-0.3-0.3-0.5-0.5-0.6l0,1.3l-0.7,0.4l-0.8-0.3
				L4.9,34c-0.2,0.2-0.4,0.5-0.4,0.9c0,0.5,0.3,1,0.7,1.2L4.9,46.3c-0.7,0.3-1,1-0.7,1.7c0.3,0.7,1,1,1.7,0.7c0.7-0.3,1-1,0.7-1.7
				C6.5,46.7,6.2,46.4,5.9,46.3L5.9,46.3z M5.8,48.2l-0.8,0l-0.4-0.7L5,46.7l0.8,0l0.4,0.7L5.8,48.2z"/>
			<path id="Path_2054" class="st48" d="M6.1,46.4C6.1,46.4,6.1,46.4,6.1,46.4C6,46.4,6,46.3,5.9,46.3v0l0.4-10.1
				c0.7-0.3,1-1,0.7-1.7c-0.1-0.2-0.3-0.5-0.5-0.6v0l0,1.2l-0.7,0.4l-0.8-0.3l0-0.1L4.9,34c-0.1,0.1-0.1,0.1-0.2,0.2
				c-0.1,0.2-0.2,0.4-0.2,0.7c0,0.4,0.1,0.7,0.4,0.9C5,35.9,5,36,5.1,36c0.1,0,0.1,0.1,0.2,0.1L4.9,46.2c-0.5,0.2-0.8,0.6-0.8,1.2
				c0,0.4,0.1,0.7,0.4,1c0.2,0.2,0.5,0.3,0.8,0.4c0.7,0,1.3-0.5,1.3-1.2C6.7,47.1,6.5,46.7,6.1,46.4z M5.8,46.8l0.4,0.7l-0.4,0.7
				l-0.8,0L4.9,48l-0.3-0.6L5,46.7l0.7,0L5.8,46.8z"/>
			<path id="Path_2055" class="st47" d="M6.1,46.4c-0.1,0-0.1-0.1-0.2-0.1v0c-0.1,0-0.1-0.1-0.2-0.1L6.1,36c0.5-0.2,0.8-0.6,0.8-1.2
				c0-0.4-0.1-0.7-0.4-1l0,1.2l-0.7,0.4l-0.8-0.3l0-0.1l-0.2-0.1l-0.1-0.9c-0.1,0.2-0.2,0.4-0.2,0.7c0,0.4,0.1,0.7,0.4,0.9
				C5,35.9,5,35.9,5.1,36v0c0.1,0,0.1,0.1,0.2,0.1L4.9,46.2c-0.5,0.2-0.8,0.6-0.8,1.2C4,48,4.4,48.5,5,48.6c0.1,0,0.1,0,0.2,0
				c0.7,0,1.3-0.5,1.3-1.2C6.5,47,6.4,46.7,6.1,46.4C6.1,46.4,6.1,46.4,6.1,46.4z M5.8,48.2l-0.8,0L4.9,48l-0.1,0l-0.4-0.7l0.4-0.7
				l0.8,0l0.1,0.1l0.1,0l0.4,0.7L5.8,48.2z"/>
		</g>
		<path id="Path_2056" class="st35" d="M20.2,107.7l1.7,0.2l-0.2,3.4c-0.6-0.1-1.2-0.1-1.8-0.3L20.2,107.7z"/>
		<path id="Path_2057" class="st35" d="M24.9,108.2c0.6,0.1,1.1,0.1,1.7,0.1l-0.2,3.5c-0.6,0-1.2-0.1-1.8-0.2L24.9,108.2z"/>
		<path id="Path_2058" class="st47" d="M34.2,112c0,0,0,0.1,0,0.1c0,0.1-0.1,0.2-0.1,0.3c-1.1,0.2-2.2,0.2-3.4,0
			c-0.3-0.2-0.1-4.4,0-4.6c1.2-0.2,2.3-0.2,3.5,0c0,0.1,0.1,0.1,0.1,0.2c0,0.1,0,0.1,0,0.2l-2.8,0c0,0.4-0.1,3.8-0.1,3.8
			C31.9,112.2,34.2,112,34.2,112z"/>
		<path id="Path_2059" class="st48" d="M34.2,112c0,0,0,0.1,0,0.1c-1,0.1-2,0.1-3,0.1c-0.1-1.3-0.1-2.7,0-4c1-0.1,2-0.1,3-0.1
			c0,0.1,0,0.1,0,0.2l-2.8,0c0,0.4-0.1,3.8-0.1,3.8C31.9,112.2,34.2,112,34.2,112z"/>
		<path id="Path_2060" class="st47" d="M33.4,110.5c0,0,0,0.1,0,0.1c-1,0.2-2,0.2-2.9-0.1v-0.4c0,0,1.3-0.1,2.9-0.3
			C33.4,110.1,33.5,110.3,33.4,110.5z"/>
		<path id="Path_2061" class="st48" d="M33.4,110.5c0,0,0,0.1,0,0.1c-1,0.2-2,0.2-2.9-0.1v-0.1c0.4,0.1,0.9,0.2,1.3,0.2
			C32.3,110.6,32.8,110.6,33.4,110.5z"/>
		<g id="Group_1034" transform="translate(13.319 20.323)">
			<path id="Path_2062" class="st2" d="M7.6,35c-5.6,3-3.1,8.4-2,10.2l0,0c0,0-0.2,0.8,0.6,0.5c0,0,3.6-4,11.6-6.3
				C18.3,39,15.1,31,7.6,35z"/>
			<path id="Path_2063" class="st2" d="M8.5,43.2c0,0,5.1-0.3,8.4-2.1s0.5-2.7,0.5-2.7l-4,0.4L8.5,43.2z"/>
			<path id="Path_2064" class="st22" d="M5.7,36.4c0,0,4.5-2.6,8.1,3.9c0.6-0.4,1.2-0.7,1.9-0.9c-0.9-3.1-3.8-5.1-7-4.9
				C7.5,34.5,6.3,35.2,5.7,36.4z"/>
		</g>
	</g>
	<g id="Group_1036" transform="translate(66.084 70.822)">
		<path id="Path_2065" class="st44" d="M182.5,84.1h-1.3v-1.3c0-0.2-0.2-0.4-0.4-0.4s-0.4,0.2-0.4,0.4v1.3H179
			c-0.2,0-0.4,0.2-0.4,0.4c0,0.2,0.2,0.4,0.4,0.4c0,0,0,0,0,0h1.3v1.3c0,0.2,0.2,0.4,0.4,0.4s0.4-0.2,0.4-0.4v-1.3h1.3
			c0.2,0,0.4-0.2,0.4-0.4C182.9,84.3,182.7,84.1,182.5,84.1z"/>
		<path id="Path_2066" class="st44" d="M175.1,43.2h-1.3v-1.3c0-0.2-0.2-0.4-0.4-0.4s-0.4,0.2-0.4,0.4v1.3h-1.3
			c-0.2,0-0.4,0.2-0.4,0.4c0,0.2,0.2,0.4,0.4,0.4h1.3v1.3c0,0.2,0.2,0.4,0.4,0.4s0.4-0.2,0.4-0.4V44h1.3c0.2,0,0.4-0.2,0.4-0.4
			C175.5,43.4,175.4,43.2,175.1,43.2z"/>
		<path id="Path_2067" class="st44" d="M57.9,136.1h-1.3v-1.3c0-0.2-0.2-0.4-0.4-0.4c-0.2,0-0.4,0.2-0.4,0.4v1.3h-1.3
			c-0.2,0-0.4,0.2-0.4,0.4c0,0.2,0.2,0.4,0.4,0.4c0,0,0,0,0,0h1.3v1.3c0,0.2,0.2,0.4,0.4,0.4c0.2,0,0.4-0.2,0.4-0.4c0,0,0,0,0,0
			v-1.3h1.3c0.2,0,0.4-0.2,0.4-0.4C58.3,136.3,58.2,136.1,57.9,136.1L57.9,136.1z"/>
		<path id="Path_2068" class="st44" d="M233.9,129.2h-1.3v-1.3c0-0.2-0.2-0.4-0.4-0.4c-0.2,0-0.4,0.2-0.4,0.4v1.3h-1.3
			c-0.2,0-0.4,0.2-0.4,0.4s0.2,0.4,0.4,0.4l0,0h1.3v1.3c0,0.2,0.2,0.4,0.4,0.4c0.2,0,0.4-0.2,0.4-0.4v-1.3h1.3
			c0.2,0,0.4-0.2,0.4-0.4S234.1,129.2,233.9,129.2L233.9,129.2L233.9,129.2z"/>
		<path id="Path_2069" class="st44" d="M34.7,57.4h-1.3V56c0-0.2-0.2-0.4-0.4-0.4c-0.2,0-0.4,0.2-0.4,0.4l0,0v1.3h-1.3
			c-0.2,0-0.4,0.2-0.4,0.4c0,0.2,0.2,0.4,0.4,0.4h1.3v1.3c0,0.2,0.2,0.4,0.4,0.4c0.2,0,0.4-0.2,0.4-0.4v-1.3h1.3
			c0.2,0,0.4-0.2,0.4-0.4C35.1,57.5,34.9,57.4,34.7,57.4L34.7,57.4z"/>
		<circle id="Ellipse_79" class="st44" cx="70.5" cy="90.7" r="1.4"/>
		<path id="Path_2070" class="st44" d="M164.9,179.6c0,0.8-0.6,1.4-1.4,1.4s-1.4-0.6-1.4-1.4c0-0.8,0.6-1.4,1.4-1.4c0,0,0,0,0,0
			C164.3,178.2,164.9,178.8,164.9,179.6C164.9,179.6,164.9,179.6,164.9,179.6z"/>
		<path id="Path_2071" class="st44" d="M6.9,144.8c0,0.8-0.6,1.4-1.4,1.4c-0.8,0-1.4-0.6-1.4-1.4c0-0.8,0.6-1.4,1.4-1.4
			C6.2,143.4,6.9,144,6.9,144.8C6.9,144.8,6.9,144.8,6.9,144.8z"/>
		<circle id="Ellipse_80" class="st44" cx="101.5" cy="35.3" r="1.4"/>
		<path id="Path_2072" class="st44" d="M221.7,136.4c0,0.8-0.6,1.4-1.4,1.4c-0.8,0-1.4-0.6-1.4-1.4c0-0.8,0.6-1.4,1.4-1.4l0,0
			C221,135,221.7,135.6,221.7,136.4C221.7,136.3,221.7,136.4,221.7,136.4z"/>
	</g>
	<g id="Group_1038" transform="translate(212.071 102.291)">
		<path id="Path_2073" class="st49" d="M26.4,72.7c-2.7,2.6-5.5,5.1-8.5,7.3c-2.3,1.5-6.8,4.2-6.8,4.2L11,83.9
			c-0.5,0.3-0.9,0.8-1.1,1.3c-0.3,0.7-0.8,1.3-1.3,1.9L8.1,85l1.1-1.6l2.7-2l12-10.1C24.8,71.8,25.6,72.2,26.4,72.7z"/>
		<path id="Path_2074" class="st42" d="M11.8,82.8c-0.7,0.4-1.4,0.9-2,1.5c-0.4,0.5-0.6,1.1-0.7,1.7c-0.3,0.7-0.8,1.4-1.4,1.9
			c-0.3,0.3-0.4,0-0.3-0.5s0.5-1.2,0.5-1.4s-0.3-0.2-0.8,0c-0.6,0.3-1.1,0.7-1.5,1.2c-0.3,0.4-0.8,1.4-1.1,1.5s-0.5,0-0.3-0.5
			c0.1-0.5,0.3-1.1,0.6-1.6c0.2-0.3-0.2-0.7,0.4-2c0.2-0.4,0.4-0.7,0.6-1.1c0-0.1,0-0.1,0-0.2c0.2-0.5,1.8-0.7,2.3-1
			c0.7-0.6,1.4-1.3,2.1-2.1L11.8,82.8z"/>
		<path id="Path_2075" class="st8" d="M50.3,61.5L40.1,62l-12.9,1.5c-3.7-6.4,4.5-10,6-10.1l4.5-0.7c2.4,0.3,4.7,1,6.9,2.1
			C46.6,55.8,48.8,58.3,50.3,61.5z"/>
		<path id="Path_2076" class="st42" d="M32.3,52c0,0,0.4,1.9,0.5,2.4c0.1,0.7,0.8,1.2,1.5,1.2c4,0,3.8-2.5,3.8-2.5c-0.7-1.3-1-5-1-5
			"/>
		<path id="Path_2077" class="st49" d="M46.7,68.9c-1.1,2.8-2.6,5.4-4.4,7.7C39.5,79.8,27.9,88,27.9,88l-0.1-0.1
			c-0.4,0.3-0.8,0.7-1.1,1.1c-0.3,0.4-0.6,2.1-1.1,2.2c-0.1,0-0.1,0-0.2,0c-0.2,0.1-0.4,0.2-0.7,0.3c-0.5,0-1-0.1-1.5-0.2
			c-0.2,0.2-0.4,0.4-0.7,0.5c-0.6,0.3-1.2,0.6-1.8,0.8c-0.5,0.1-0.6,0-0.5-0.4c0.1-0.3,1.2-0.8,1.5-1.1c0.5-0.4,0.9-0.9,1.3-1.5
			c0.2-0.5,0.3-0.7,0-0.8s-0.9,0.4-1.5,0.4s-0.8-0.1-0.5-0.4c0.5-0.6,1.2-1.1,1.9-1.3c0.6,0,1.2-0.2,1.8-0.6c0.4-0.3,0.7-0.7,1-1.1
			l-0.2-0.2c0,0,6.1-7.6,10.7-13.5c0.1-0.1,0.2-0.2,0.3-0.4c2.7-4.7,3.7-4.6,3.7-4.6l4.7,0.3C45.6,68,46.1,68.5,46.7,68.9z"/>
		<path id="Path_2078" class="st42" d="M25.4,85.5c-0.5,0.7-1,1.4-1.6,2C23.2,87.8,22.6,88,22,88c-0.7,0.2-1.4,0.7-1.9,1.3
			c-0.3,0.3,0,0.4,0.5,0.4s1.2-0.5,1.5-0.4s0.2,0.3,0,0.8c-0.3,0.6-0.8,1.1-1.3,1.5c-0.4,0.3-1.4,0.8-1.5,1.1s-0.1,0.5,0.5,0.4
			c0.5-0.1,1.1-0.3,1.6-0.5c0.4-0.2,0.7,0.2,2-0.3c0.4-0.2,0.7-0.4,1.1-0.6c0.1,0,0.1,0,0.2,0c0.5-0.2,0.8-1.8,1.1-2.2
			c0.7-0.7,1.4-1.4,2.2-2L25.4,85.5z"/>
		<path id="Path_2079" class="st8" d="M47.4,63.9c1.5-2.2-3.2-4.9-3.2-4.9l-1.8,0.7c-1.1-0.5-2.9-1.4-2.9-1.4l-1,2.6
			c-0.1,0.4,0,0.8,0.1,1.2c-0.1,1.5-2.8,9.8-2.9,9.9C31.8,76.4,28.2,81,25,85.7c0.2,0.5,0.6,1,1,1.3c0.4,0.4,0.8,0.7,1.3,0.9
			c0,0,8.5-6.9,12.3-10.9C43.2,73.3,45.9,66.1,47.4,63.9z"/>
		<path id="Path_2080" class="st42" d="M27.5,50.1c0.5,1.1,1.4,2,2.5,2.6c1.2,0.5,2.6,0.5,3.8-0.1c3-1.3,4.3-4.8,3-7.8
			c-0.6-1.4-1.7-2.5-3.2-3.1c-2-0.8-5.1-0.4-6.5,1.2C25.6,44.7,26.6,48.3,27.5,50.1z"/>
		<path id="Path_2081" class="st46" d="M37.3,47.1c0,2.4-1.4,4.5-3.5,5.5c-1.1,0.5-2.3,0.6-3.4,0.2c0.7,0,1.5-0.2,2.2-0.4
			c2.2-1,3.6-3.1,3.6-5.5c0-2.3-2-4.5-4.2-5.4c-0.2-0.1-0.5-0.2-0.7-0.2c3.2-0.1,5.9,2.4,6,5.7C37.3,47,37.3,47.1,37.3,47.1
			L37.3,47.1z"/>
		<path id="Path_2082" class="st10" d="M26.6,45.4c1.5-0.2,2.9-1.2,3.6-2.5c0.4,1.2,1.8,1.9,3,1.5c0.2-0.1,0.4-0.2,0.6-0.3
			c-0.1,1.5,1,2.8,2.5,3c-0.3,0.6-0.2,1.3,0.4,1.7c0.1,0.1,0.2,0.1,0.3,0.1c0.8,0.1,1.5-0.4,1.8-1.1c0.2-0.8,0-1.6-0.5-2.2
			c1.8-1.2,2.3-3.7,1.1-5.5c-1-1.4-2.8-2.1-4.4-1.6c-0.7-2-2.9-3.1-4.9-2.4c-1.1,0.4-2,1.2-2.4,2.3c0-0.1-1.1-0.1-1.2-0.1
			c-0.5,0-0.9,0.1-1.4,0.3C24.4,38.9,25.2,45.5,26.6,45.4z"/>
		<path id="Path_2083" class="st42" d="M37.2,47.3c0.1-0.8-0.3-1.8-1-2c-0.6-0.2-1.2,0.1-1.4,0.7c0,0.1,0,0.1-0.1,0.2
			c-0.1,0.8,0.3,2.1,1,2.2C36.5,48.5,37.1,48.1,37.2,47.3C37.2,47.4,37.2,47.4,37.2,47.3z"/>
		<path id="Path_2084" class="st8" d="M27.1,57.7l-7.2,12.2l3.7,3.9c0,0,2.1-1.9,3.5-3.5c0.6-0.7,1.2-1.4,1.7-2
			c1.1-1.3,1.5-3,1.2-4.6c-0.1-1-0.4-1.9-0.7-2.8C27.8,58,27.1,57.7,27.1,57.7z"/>
		<path id="Path_2085" class="st8" d="M19.8,69.9c0,0-7.5,7.4-10.7,11.2l1.8,2.4c0,0,10.3-6,14.3-11.9
			C28.1,67.4,19.8,69.9,19.8,69.9z"/>
		<path id="Path_2086" class="st8" d="M44.6,61.8c0,0,2.3,5.1,4.8,4.5c2-0.5,0.9-4.7,0.9-4.7l-2.7-2.5L44.6,61.8z"/>
		<path id="Path_2087" class="st2" d="M27.8,57.8c-0.3,3.7,0.3,7.5,1.8,10.9l0.8-5.5c-0.6-2.8-0.6-5.8,0-8.6
			c-0.3,0.1-0.6,0.2-0.9,0.4C28.4,55.6,27.8,56.6,27.8,57.8z"/>
		<path id="Path_2088" class="st2" d="M36.4,62.8c0,0,0.4-8.8,5.3-9.2c0.7,0,1.3,0.3,1.8,0.7c0,0-4.3,1.3-5,8.3L36.4,62.8z"/>
		<g id="Group_1037" transform="translate(20.403)">
			<path id="Path_2089" class="st2" d="M14.3,42.9c0,0-1.6,3.1-8.7,3.8c-0.5,0.1-2.4-0.4-0.8-2L14.3,42.9z"/>
			<path id="Path_2090" class="st2" d="M4.5,44.1L4.5,44.1C4,42.4,3,37.4,8.2,35.2c7.6-3.3,10.4,1.4,11.4,5.5l0,0
				c0.2,0,0.5,0.2,0.5,0.4c0,0.2-0.1,0.4-0.3,0.5c-0.7,0.3-1.3,0.5-2,0.6c-3,0.9-8.8,2.5-12.6,2.5c-0.1,0.1-0.2,0.1-0.3,0
				C4.2,44.5,4.5,44.1,4.5,44.1z"/>
			<path id="Path_2091" class="st22" d="M12.6,34.1c0,0-6.3,1.6-4.1,10.3c-0.9,0.2-1.8,0.3-2.7,0.3c0,0-2-6.6,2.4-9.5
				C9.3,34.1,11,33.6,12.6,34.1z"/>
		</g>
	</g>
</g>
</svg>
