<?xml version="1.0" encoding="UTF-8" standalone="no"?>
<!DOCTYPE svg PUBLIC "-//W3C//DTD SVG 1.1//EN" "http://www.w3.org/Graphics/SVG/1.1/DTD/svg11.dtd">
<svg width="100%" height="100%" viewBox="0 0 24 26" version="1.1" xmlns="http://www.w3.org/2000/svg" xmlns:xlink="http://www.w3.org/1999/xlink" style="fill-rule:evenodd;clip-rule:evenodd;stroke-linejoin:round;stroke-miterlimit:2;">
    <path id="Path_1833" d="M7.32,1.889l-1.47,0c0.001,-0.001 0,-1.886 0,-1.889l11.726,0c0,0.005 0,1.889 0,1.889l-1.47,0l0.025,6.461l6.985,13.384c0.192,0.368 0.293,0.778 0.293,1.193c0,1.412 -1.162,2.573 -2.573,2.573l-18.235,0c-1.413,0 -2.576,-1.163 -2.576,-2.576c0,-0.414 0.1,-0.822 0.291,-1.19l6.984,-13.384l0.02,-6.461Zm6.895,0l-5.002,0l-0.025,6.698c-0.001,0.151 -0.038,0.299 -0.107,0.433l-1.092,2.091l4.031,0c0.003,0 0.004,1.885 0,1.889l-5.018,0l-1.187,2.278l5.206,0l0,1.889l-6.191,0l-1.189,2.277l6.379,0l0,1.889l-7.332,0l-0.031,-0.002l-0.665,1.272c-0.052,0.098 -0.079,0.207 -0.079,0.318c0,0.377 0.311,0.687 0.687,0.687l18.236,0c0.238,0.003 0.461,-0.122 0.582,-0.327l0.032,-0.054c0.096,-0.193 0.093,-0.423 -0.011,-0.616c0,0 -7.092,-13.591 -7.092,-13.591c-0.069,-0.134 -0.106,-0.282 -0.107,-0.433l-0.025,-6.698Z" style="fill:#120b31;fill-rule:nonzero;"/>
</svg>
