<svg width="23" height="24" viewBox="0 0 23 24" fill="none" xmlns="http://www.w3.org/2000/svg">
<path d="M0.290579 6.4038L11.212 11.8164C11.2852 11.853 11.3646 11.8708 11.4441 11.8708C11.5235 11.8708 11.603 11.853 11.6761 11.8164L22.5969 6.4038C22.7749 6.316 22.8875 6.13447 22.8875 5.93553C22.8875 5.73658 22.7749 5.55576 22.5969 5.46726L11.6761 0.0546142C11.5298 -0.0182047 11.3584 -0.0182047 11.212 0.0546142L0.290579 5.46726C0.112538 5.55576 0 5.73658 0 5.93553C0 6.13447 0.112887 6.316 0.290579 6.4038ZM11.4441 1.10613L21.1879 5.93553L11.4441 10.7653L1.69957 5.93553L11.4441 1.10613Z" fill="#19838C"/>
<path d="M22.1329 9.64123L11.4442 14.9389L0.754783 9.64123C0.496606 9.51406 0.182684 9.61928 0.0544669 9.87745C-0.0737502 10.136 0.0321675 10.4499 0.290692 10.5778L11.2121 15.9904C11.2853 16.027 11.3647 16.0448 11.4442 16.0448C11.5236 16.0448 11.6031 16.027 11.6762 15.9904L22.597 10.5778C22.8555 10.4499 22.9614 10.136 22.8332 9.87745C22.705 9.61893 22.3911 9.51336 22.1329 9.64123Z" fill="#19838C"/>
<path d="M22.1329 13.6173L11.4442 18.915L0.754783 13.6173C0.496606 13.4895 0.182684 13.595 0.0544669 13.8536C-0.0737502 14.1121 0.0321675 14.426 0.290692 14.5539L11.2121 19.9665C11.2853 20.0031 11.3647 20.0209 11.4442 20.0209C11.5236 20.0209 11.6031 20.0031 11.6762 19.9665L22.597 14.5539C22.8555 14.426 22.9614 14.1121 22.8332 13.8536C22.705 13.5947 22.3911 13.4884 22.1329 13.6173Z" fill="#19838C"/>
<path d="M22.1329 17.5975L11.4442 22.8952L0.754783 17.5975C0.496606 17.4703 0.182684 17.5752 0.0544669 17.8337C-0.0737502 18.0922 0.0321675 18.4062 0.290692 18.534L11.2121 23.9467C11.2853 23.9833 11.3647 24.001 11.4442 24.001C11.5236 24.001 11.6031 23.9833 11.6762 23.9467L22.597 18.534C22.8555 18.4062 22.9614 18.0922 22.8332 17.8337C22.705 17.5749 22.3911 17.4693 22.1329 17.5975Z" fill="#19838C"/>
</svg>
