<svg width="24" height="24" viewBox="0 0 24 24" fill="none" xmlns="http://www.w3.org/2000/svg">
<g clip-path="url(#clip0)">
<path d="M23.5506 5.64964H21.203V3.28459C21.1972 3.01663 20.9817 2.80692 20.7137 2.79527H18.3487V0.447696C18.3487 0.197211 18.1389 -0.00667282 17.8885 -0.000847579C17.8826 -0.000847579 17.8826 -0.000847579 17.8768 -0.000847579H0.447696C0.208861 -0.00667282 0.00497762 0.18556 -0.000847616 0.424395C-0.000847616 0.430221 -0.000847616 0.441871 -0.000847616 0.447696V17.8827C-0.00667285 18.1331 0.18556 18.3428 0.436045 18.3487C0.44187 18.3487 0.44187 18.3487 0.447696 18.3487H2.79527V20.7137C2.80109 20.9817 3.01663 21.1914 3.28459 21.203H5.64963V23.5506C5.64963 23.8011 5.85934 24.005 6.10983 23.9992C6.11565 23.9992 6.11565 23.9992 6.12148 23.9992H23.5564C23.8011 24.005 23.9991 23.8128 24.005 23.5739C24.005 23.5681 24.005 23.5564 24.005 23.5506V6.11566C24.0108 5.86517 23.8186 5.65547 23.5681 5.64964C23.5564 5.64964 23.5506 5.64964 23.5506 5.64964ZM0.931191 0.931192H17.4166V17.4166H0.931191V0.931192ZM3.7273 18.3487H17.8826C18.1389 18.3487 18.3487 18.139 18.3487 17.8827V3.72731H20.271V20.271H3.7273V18.3487ZM23.0671 23.0671H6.58167V21.203H20.7137C20.9817 21.1972 21.1914 20.9817 21.203 20.7137V6.58168H23.0671V23.0671Z" fill="#23B4C3"/>
<path d="M14.0976 4.10645H4.07812V5.09674H14.0976V4.10645Z" fill="#23B4C3"/>
<path d="M14.0976 7.25293H4.07812V8.24322H14.0976V7.25293Z" fill="#23B4C3"/>
<path d="M14.0976 10.3984H4.07812V11.3887H14.0976V10.3984Z" fill="#23B4C3"/>
<path d="M9.43152 13.5439H4.07812V14.5342H9.43152V13.5439Z" fill="#23B4C3"/>
</g>
<defs>
<clipPath id="clip0">
<rect width="24" height="24" fill="white"/>
</clipPath>
</defs>
</svg>
