<?xml version="1.0" encoding="UTF-8" standalone="no"?>
<!DOCTYPE svg PUBLIC "-//W3C//DTD SVG 1.1//EN" "http://www.w3.org/Graphics/SVG/1.1/DTD/svg11.dtd">
<svg width="100%" height="100%" viewBox="0 0 217 217" version="1.1" xmlns="http://www.w3.org/2000/svg"
    xmlns:xlink="http://www.w3.org/1999/xlink" 
    style="fill-rule:evenodd;clip-rule:evenodd;stroke-linejoin:round;stroke-miterlimit:2;">
    <path
        d="M183.333,0l-150,0c-18.409,0 -33.333,14.924 -33.333,33.333l0,150c0,18.41 14.924,33.334 33.333,33.334l150,-0c18.41,-0 33.334,-14.924 33.334,-33.334l-0,-150c-0,-18.409 -14.924,-33.333 -33.334,-33.333Z"
        style="fill:#21B8C7;fill-rule:nonzero;" />
    <path
        d="M142.295,100.019c0,18.317 -15.089,33.162 -33.7,33.162c-18.61,-0 -33.699,-14.847 -33.699,-33.162c0,-18.312 15.089,-33.156 33.699,-33.156c18.613,-0 33.7,14.847 33.7,33.156Zm33.702,0c-0.003,-36.626 -30.185,-66.311 -67.409,-66.308c-37.224,-0 -67.397,29.692 -67.394,66.318c0.002,36.627 30.18,66.313 67.401,66.313c37.227,0 67.402,-29.691 67.402,-66.318l-0,-0.005Zm-117.952,96.192c-9.308,-0 -16.851,-7.422 -16.851,-16.583c-0,-9.156 7.543,-16.579 16.851,-16.579c9.305,0 16.851,7.423 16.851,16.579l0,0.005c-0.002,9.155 -7.546,16.578 -16.851,16.578Z"
        style="fill:#def6fc;fill-rule:nonzero;" />
</svg>