<svg viewBox="0 0 33 25" xmlns="http://www.w3.org/2000/svg" fill-rule="evenodd" clip-rule="evenodd" stroke-linejoin="round" stroke-miterlimit="2"><path d="M.061 23.773A.77.77 0 0 1 0 23.499V.773A.778.778 0 0 1 .774 0h8.074c.269 0 .519.14.66.369l2.014 3.282h15.015c.425 0 .774.349.774.774V7.03h4.6a.777.777 0 0 1 .732 1.024l-5.371 15.672a.57.57 0 0 1-.024.049l.001-.002-.01.019a.764.764 0 0 1-.146.212l-.029.029a.772.772 0 0 1-.203.137l-.032.016a.763.763 0 0 1-.288.062H.771a.77.77 0 0 1-.288-.061l-.017-.006a.766.766 0 0 1-.233-.159l-.017-.018.005.006-.077-.086a.792.792 0 0 1-.083-.151zM6.694 8.577L1.857 22.7h24.13l4.834-14.123H6.694zM25.762 7.03l.002-1.835H1.55v13.634L5.41 7.552a.776.776 0 0 1 .732-.522h19.62zM1.55 1.55v2.1h8.158l-1.29-2.1H1.55z" fill="#120b31" fill-rule="nonzero"/></svg>