<svg width="80px" height="auto"  xmlns="http://www.w3.org/2000/svg" viewBox="0 0 40.6 51.7">
  <defs>
    <style>
      .a, .b, .e, .f {
        fill: #fff;
      }

      .a, .b, .d, .e, .f, .g {
        stroke: #000;
        stroke-linecap: round;
        stroke-linejoin: round;
      }

      .a {
        stroke-width: 0.44px;
      }

      .b, .d, .g {
        stroke-width: 0.54px;
      }

      .c {
        fill: #ddd;
      }

      .d {
        fill: none;
      }

      .e {
        stroke-width: 0.63px;
      }

      .f {
        stroke-width: 0.71px;
      }

      .g {
        fill: #3cb971;
      }
    </style>
  </defs>
  <g>
    <g>
      <path class="a" d="M154,134a4.8,4.8,0,0,1-2.6.7,5,5,0,1,1,5-4.9,5.1,5.1,0,0,1-1.3,3.3" transform="translate(-131.7 -124.6)"/>
      <path d="M150.8,130.3c0,.3.2.4.5.4s.6-.1.6-.4-.2-.4-.6-.5-1-.5-1-.9a.9.9,0,0,1,1-.9,1,1,0,0,1,1.1.8h-.6c0-.1-.1-.3-.5-.3s-.4.2-.4.3.1.4.6.5,1,.5,1,1-.5.9-1.2.9-1.1-.4-1.1-.9Zm.3-2.1v-.4h.5v.4Zm0,3.3v-.6h.5v.6Z" transform="translate(-131.7 -124.6)"/>
    </g>
    <g>
      <rect class="b" x="0.3" y="34.9" width="11" height="16.52"/>
      <rect class="c" x="6.6" y="35.2" width="4.3" height="15.94"/>
      <g>
        <line class="d" x1="0.3" y1="37.2" x2="2.3" y2="37.2"/>
        <line class="d" x1="8.4" y1="37.2" x2="11" y2="37.2"/>
        <line class="d" x1="0.4" y1="40" x2="3.2" y2="40"/>
        <line class="d" x1="4.1" y1="40" x2="4.6" y2="40"/>
        <line class="d" x1="9" y1="40" x2="11.1" y2="40"/>
        <line class="d" x1="0.4" y1="42.9" x2="1.4" y2="42.9"/>
        <line class="d" x1="9" y1="42.9" x2="11.1" y2="42.9"/>
        <line class="d" x1="0.4" y1="45.8" x2="3.5" y2="45.8"/>
        <line class="d" x1="9.8" y1="45.8" x2="11.1" y2="45.8"/>
        <line class="d" x1="0.4" y1="48.7" x2="2.6" y2="48.7"/>
        <line class="d" x1="9" y1="48.7" x2="11.1" y2="48.7"/>
      </g>
    </g>
    <g>
      <rect class="e" x="14.8" y="28.5" width="11" height="22.9"/>
      <rect class="c" x="21.1" y="28.8" width="4.3" height="22.32"/>
      <g>
        <line class="d" x1="14.8" y1="37.2" x2="16.8" y2="37.2"/>
        <line class="d" x1="22.9" y1="37.2" x2="25.5" y2="37.2"/>
        <line class="d" x1="14.8" y1="34.3" x2="16.8" y2="34.3"/>
        <line class="d" x1="22.9" y1="34.3" x2="25.5" y2="34.3"/>
        <line class="d" x1="14.8" y1="31.4" x2="16.8" y2="31.4"/>
        <line class="d" x1="22.9" y1="31.4" x2="25.5" y2="31.4"/>
        <line class="d" x1="14.9" y1="40" x2="17.7" y2="40"/>
        <line class="d" x1="18.6" y1="40" x2="19.1" y2="40"/>
        <line class="d" x1="23.5" y1="40" x2="25.6" y2="40"/>
        <line class="d" x1="14.9" y1="42.9" x2="15.9" y2="42.9"/>
        <line class="d" x1="23.5" y1="42.9" x2="25.6" y2="42.9"/>
        <line class="d" x1="14.9" y1="45.8" x2="18" y2="45.8"/>
        <line class="d" x1="24.3" y1="45.8" x2="25.6" y2="45.8"/>
        <line class="d" x1="14.9" y1="48.7" x2="17.1" y2="48.7"/>
        <line class="d" x1="23.5" y1="48.7" x2="25.6" y2="48.7"/>
      </g>
    </g>
    <g>
      <rect class="f" x="29.3" y="23" width="11" height="28.41"/>
      <rect class="c" x="35.6" y="23.3" width="4.3" height="27.83"/>
      <g>
        <line class="d" x1="29.3" y1="37.2" x2="31.3" y2="37.2"/>
        <line class="d" x1="37.4" y1="37.2" x2="40" y2="37.2"/>
        <line class="d" x1="29.3" y1="34.3" x2="31.3" y2="34.3"/>
        <line class="d" x1="37.4" y1="34.3" x2="40" y2="34.3"/>
        <line class="d" x1="29.3" y1="31.4" x2="31.3" y2="31.4"/>
        <line class="d" x1="37.4" y1="31.4" x2="40" y2="31.4"/>
        <line class="d" x1="29.4" y1="40" x2="32.2" y2="40"/>
        <line class="d" x1="33.1" y1="40" x2="33.6" y2="40"/>
        <line class="d" x1="38" y1="40" x2="40.1" y2="40"/>
        <line class="d" x1="29.4" y1="28.4" x2="32.2" y2="28.4"/>
        <line class="d" x1="33.1" y1="28.4" x2="33.6" y2="28.4"/>
        <line class="d" x1="38" y1="28.4" x2="40.1" y2="28.4"/>
        <line class="d" x1="29.4" y1="42.9" x2="30.4" y2="42.9"/>
        <line class="d" x1="38" y1="42.9" x2="40.1" y2="42.9"/>
        <line class="d" x1="29.4" y1="45.8" x2="32.4" y2="45.8"/>
        <line class="d" x1="38.8" y1="45.8" x2="40.1" y2="45.8"/>
        <line class="d" x1="29.4" y1="25.5" x2="32.4" y2="25.5"/>
        <line class="d" x1="38.8" y1="25.5" x2="40.1" y2="25.5"/>
        <line class="d" x1="29.4" y1="48.7" x2="31.6" y2="48.7"/>
        <line class="d" x1="38" y1="48.7" x2="40.1" y2="48.7"/>
      </g>
    </g>
    <polygon class="g" points="28 11.5 23.1 12.4 25.3 14.9 19.5 19.8 11.9 17 11.9 17 11.9 17 4.6 23.1 6.2 25.1 12.4 19.9 20 22.6 20 22.6 20.1 22.6 26.9 16.8 29.6 20 31.2 15.3 32.8 10.6 28 11.5"/>
  </g>
</svg>
