<svg width="24" height="24" viewBox="0 0 24 24" fill="none" xmlns="http://www.w3.org/2000/svg">
<path d="M23.3899 5.59119L18.4084 0.609615C18.0037 0.204949 17.5088 0 16.938 0H2.09266C0.938842 0 0 0.938406 0 2.09223V21.9069C0 23.0607 0.938842 23.9991 2.09266 23.9991H21.9073C23.0612 23.9991 24 23.0607 24 21.9069V7.06116C24 6.49864 23.7889 5.99062 23.3899 5.59119ZM17.1822 23.127H6.81783V14.4036C6.81783 13.7307 7.36509 13.1835 8.03837 13.1835H15.9738C16.6401 13.1835 17.1822 13.7307 17.1822 14.4036V23.127ZM23.1279 21.9069C23.1279 22.5797 22.5806 23.127 21.9073 23.127H18.0543V14.4036C18.0543 13.2498 17.1211 12.3113 15.9738 12.3113H8.03837C6.88455 12.3113 5.94571 13.2498 5.94571 14.4036V23.127H2.09266C1.41982 23.127 0.872125 22.5797 0.872125 21.9069V2.09223C0.872125 1.41938 1.41938 0.872125 2.09266 0.872125H16.938C17.2785 0.872125 17.5498 0.984629 17.7918 1.22664L22.7729 6.20822C23.0084 6.44369 23.1274 6.73062 23.1274 7.06159L23.1279 21.9069Z"/>
<path fill-rule="evenodd" clip-rule="evenodd" d="M11.4363 15.8027H9.51172C9.37365 15.8027 9.26172 15.9147 9.26172 16.0527V20.5937C9.26172 20.7317 9.37365 20.8437 9.51172 20.8437H11.4363C11.5744 20.8437 11.6863 20.7317 11.6863 20.5937V16.0527C11.6863 15.9147 11.5744 15.8027 11.4363 15.8027ZM9.51172 15.0527C8.95943 15.0527 8.51172 15.5004 8.51172 16.0527V20.5937C8.51172 21.146 8.95943 21.5937 9.51172 21.5937H11.4363C11.9886 21.5937 12.4363 21.146 12.4363 20.5937V16.0527C12.4363 15.5004 11.9886 15.0527 11.4363 15.0527H9.51172Z" fill="#1C252C"/>
</svg>
