<svg width="19" height="16" viewBox="0 0 19 16" fill="none" xmlns="http://www.w3.org/2000/svg">
<path fill-rule="evenodd" clip-rule="evenodd" d="M12.8 13.7322V14.7H9.99998V11.663C9.8732 11.483 9.75695 11.295 9.65213 11.1H4.09998V14.7H1.2V1.2H12.8V3.26776C13.1833 3.14332 13.585 3.05982 14 3.02242V0H0V16H4.09998H9.99998H14V13.9776C13.585 13.9402 13.1833 13.8567 12.8 13.7322ZM9.9 5.4839V5.3H7.5V7H9.20703C9.361 6.45563 9.59669 5.94557 9.9 5.4839ZM9.02242 8H7.5V9.7H9.13129C9.04534 9.31373 9 8.91216 9 8.5C9 8.33146 9.00758 8.16468 9.02242 8ZM8.69998 12.4V14.7H5.29998V12.4H8.69998ZM7.5 2.6H9.9V4.3H7.5V2.6ZM6.49998 2.6H4.09998V4.3H6.49998V2.6ZM6.49998 5.3H4.09998V7H6.49998V5.3ZM6.49998 8H4.09998V9.7H6.49998V8Z" fill="#19838C"/>
<path fill-rule="evenodd" clip-rule="evenodd" d="M14.5 12C16.433 12 18 10.433 18 8.5C18 6.567 16.433 5 14.5 5C12.567 5 11 6.567 11 8.5C11 10.433 12.567 12 14.5 12ZM14.5 13C16.9853 13 19 10.9853 19 8.5C19 6.01472 16.9853 4 14.5 4C12.0147 4 10 6.01472 10 8.5C10 10.9853 12.0147 13 14.5 13ZM13.85 6.25H15.1V7.25H13.85V6.25ZM15.1 7.95H13.85V10.6899H15.1V7.95Z" fill="#19838C"/>
</svg>
