<svg width="100%" height="100%" viewBox="0 0 24 24" fill="none" xmlns="http://www.w3.org/2000/svg">
<path fill-rule="evenodd" clip-rule="evenodd" d="M13.9999 1.44624V0H10.0001V1.57536L1.14768 7.99992H0V12H1.76208L4.2072 18H3V22.0001H7.00008V20.4761L16.0001 22.4834V24H19.9999V19.9999H18.6907L22.4983 10.0001H24V6H20.6422L13.9999 1.44624V1.44624ZM19.0001 21V22.9999H16.9999V21H19.0001ZM13.9999 2.65416V4.00008H10.0001V2.75112L2.76768 7.99992H4.00008V12H2.81592L5.26104 18H7.00008V19.4914L16.0001 21.4987V19.9999H17.6518L21.4594 10.0001H19.9999V6.76776L13.9999 2.65416V2.65416ZM6 19.0001V21H4.00008V19.0001H6ZM3 9V10.9999H1.00008V9H3ZM22.9999 7.00008V9H21V7.00008H22.9999ZM13.0001 1.88568L12.9662 1.94544L13.0001 1.96848V3H10.9999V1.00008H13.0001V1.88568Z"/>
</svg>
