<svg width="100%" height="100%" viewBox="0 0 100 100" version="1.1" xmlns="http://www.w3.org/2000/svg" style="fill-rule:evenodd;clip-rule:evenodd;stroke-linejoin:round;stroke-miterlimit:2;"><path d="M11.995,100.001l63.242,0c6.677,0 12.069,-5.317 12.069,-11.995l-0,-30.396c-0,-1.237 -0.989,-2.226 -2.226,-2.226c-1.237,-0 -2.226,0.989 -2.226,2.226l0,30.396c0,4.229 -3.388,7.543 -7.617,7.543l-63.242,0c-4.229,0 -7.543,-3.338 -7.543,-7.543l-0,-63.241c-0,-4.229 3.314,-7.618 7.543,-7.618l30.397,0c1.236,0 2.225,-0.989 2.225,-2.226c0,-1.236 -0.989,-2.226 -2.225,-2.226l-30.397,0c-6.678,0 -11.995,5.367 -11.995,12.07l-0,63.241c-0,6.678 5.317,11.995 11.995,11.995Zm30.571,-59.532l-5.664,19.662c-0.223,0.767 -0,1.608 0.544,2.177c0.421,0.42 0.989,0.667 1.583,0.667c0.198,0 0.396,-0.024 0.593,-0.074l19.861,-5.466c0.371,-0.099 0.717,-0.296 0.989,-0.569l36.011,-36.01c2.3,-2.3 3.561,-5.342 3.561,-8.558c0,-3.215 -1.261,-6.282 -3.562,-8.557l-0.197,-0.198c-4.724,-4.724 -12.416,-4.724 -17.14,-0l-36.01,35.961c-0.273,0.272 -0.446,0.618 -0.569,0.965Zm39.72,-33.81c1.459,-1.459 3.364,-2.25 5.417,-2.25c2.052,-0 3.982,0.791 5.416,2.25l0.198,0.198c1.459,1.459 2.251,3.364 2.251,5.417c-0,2.052 -0.792,3.981 -2.251,5.416l-35.565,35.615l-15.458,4.254l4.402,-15.31l35.59,-35.59Z" /></svg>