<svg width="100%" height="100%" viewBox="0 0 88 100" version="1.1" xmlns="http://www.w3.org/2000/svg" style="fill-rule:evenodd;clip-rule:evenodd;stroke-linejoin:round;stroke-miterlimit:2;"><path d="M2.284,16.008l5.692,-0c-0,-0 -0,64.012 -0,64.012c-0,5.299 2.105,10.381 5.852,14.128c3.747,3.747 8.829,5.852 14.128,5.852l31.398,0c5.299,0 10.381,-2.105 14.128,-5.852c3.747,-3.747 5.852,-8.829 5.852,-14.128l0,-64.012c0,-0 5.691,-0 5.691,-0c0.606,-0 1.188,-0.241 1.616,-0.669c0.428,-0.429 0.669,-1.01 0.669,-1.615c-0,-0.606 -0.241,-1.187 -0.669,-1.616c-0.428,-0.428 -1.01,-0.669 -1.616,-0.669l-24.386,0c0,0 0,-4.099 0,-4.099c0,-1.946 -0.773,-3.813 -2.149,-5.19c-1.377,-1.377 -3.244,-2.15 -5.191,-2.15l-19.288,0c-1.947,0 -3.814,0.773 -5.191,2.15c-1.376,1.377 -2.15,3.244 -2.15,5.19c0,0 0,4.099 0,4.099c0,0 -24.386,0 -24.386,0c-0.605,0 -1.186,0.241 -1.615,0.669l0,0c-0.428,0.429 -0.669,1.01 -0.669,1.616c-0,0.605 0.241,1.186 0.669,1.615l0,-0c0.429,0.428 1.01,0.669 1.615,0.669Zm10.261,-0l62.22,-0c0,-0 0,64.012 0,64.012c0,4.087 -1.623,8.007 -4.514,10.898c-2.89,2.89 -6.81,4.513 -10.897,4.513l-31.398,0c-4.087,0 -8.007,-1.623 -10.897,-4.513c-2.891,-2.891 -4.514,-6.811 -4.514,-10.898l-0,-64.012Zm20.408,66.045c0.605,0 1.186,-0.24 1.615,-0.669c0.428,-0.428 0.669,-1.01 0.669,-1.615c-0,-0 -0,-47.893 -0,-47.893c-0,-0.606 -0.241,-1.187 -0.669,-1.615c-0.429,-0.428 -1.01,-0.669 -1.615,-0.669c-0.606,-0 -1.187,0.241 -1.616,0.669c-0.428,0.428 -0.669,1.009 -0.669,1.615l0,47.893c0,0.605 0.241,1.187 0.669,1.615c0.429,0.429 1.01,0.669 1.616,0.669Zm21.404,0c0.606,0 1.187,-0.24 1.616,-0.669l-0,0c0.428,-0.429 0.669,-1.01 0.669,-1.615c-0,-0 -0,-47.893 -0,-47.893c-0,-0.605 -0.241,-1.186 -0.669,-1.615l-0,0c-0.429,-0.429 -1.01,-0.669 -1.616,-0.669c-0.605,-0 -1.186,0.24 -1.615,0.669c-0.429,0.428 -0.669,1.009 -0.669,1.615l-0,47.893c-0,0.606 0.24,1.187 0.669,1.615c0.428,0.429 1.01,0.669 1.615,0.669Zm-23.118,-74.713c0,-0.735 0.292,-1.44 0.812,-1.959l-0,-0c0.52,-0.52 1.225,-0.812 1.96,-0.812c-0,-0 19.288,-0 19.288,-0c0.735,-0 1.44,0.292 1.96,0.812c0.52,0.519 0.812,1.224 0.812,1.959c-0,0 -0,4.099 -0,4.099c-0,0 -24.832,0 -24.832,0c0,0 0,-4.099 0,-4.099Z" /></svg>