<svg width="28" height="28" viewBox="0 0 28 28" fill="none" xmlns="http://www.w3.org/2000/svg">
<circle cx="14" cy="14" r="8.125" stroke="#19838C" stroke-width="1.25"/>
<rect x="13.5625" width="0.875" height="3.5" rx="0.4375" fill="#19838C"/>
<rect x="13.5625" y="24.5" width="0.875" height="3.5" rx="0.4375" fill="#19838C"/>
<rect y="14.4375" width="0.875" height="3.5" rx="0.4375" transform="rotate(-90 0 14.4375)" fill="#19838C"/>
<rect x="24.5" y="14.4375" width="0.875" height="3.5" rx="0.4375" transform="rotate(-90 24.5 14.4375)" fill="#19838C"/>
<rect x="1.65686" y="7.37885" width="0.875" height="3.5" rx="0.4375" transform="rotate(-60 1.65686 7.37885)" fill="#19838C"/>
<rect x="22.8746" y="19.6288" width="0.875" height="3.5" rx="0.4375" transform="rotate(-60 22.8746 19.6288)" fill="#19838C"/>
<rect x="7.37903" y="26.3431" width="0.875" height="3.5" rx="0.4375" transform="rotate(-150 7.37903 26.3431)" fill="#19838C"/>
<rect x="19.629" y="5.12549" width="0.874999" height="3.5" rx="0.4375" transform="rotate(-150 19.629 5.12549)" fill="#19838C"/>
<rect x="6.62097" y="2.09442" width="0.875" height="3.5" rx="0.4375" transform="rotate(-30 6.62097 2.09442)" fill="#19838C"/>
<rect width="0.875" height="3.5" rx="0.4375" transform="matrix(0.866025 -0.500001 0.499999 0.866026 18.871 23.312)" fill="#19838C"/>
<rect x="2.09424" y="21.3789" width="0.875" height="3.5" rx="0.4375" transform="rotate(-120 2.09424 21.3789)" fill="#19838C"/>
<rect x="23.312" y="9.12891" width="0.875" height="3.5" rx="0.4375" transform="rotate(-120 23.312 9.12891)" fill="#19838C"/>
</svg>
