<svg width="30" height="23" viewBox="0 0 30 23" fill="none" xmlns="http://www.w3.org/2000/svg">
<path d="M29 11.4502C28.7684 11.7726 23.2441 19.2778 15.7238 13.892C7.15444 7.75472 1.06083 13.9165 1 13.9797" stroke="#19838C" stroke-width="1.25" stroke-linecap="round" stroke-linejoin="round"/>
<path d="M7.81677 7.49798C7.8508 7.46329 12.5033 3.98234 18.468 8.66887C18.468 8.66887 19.5731 9.94702 22.3024 9.94702C25.0317 9.94702 25.9247 8.17231 26.4742 7.49798C26.989 6.53863 28.4937 3.57339 25.0317 1.63124C22.5075 0.215112 20.2922 1.42897 19.2618 2.84505" stroke="#19838C" stroke-width="1.25" stroke-linecap="round" stroke-linejoin="round"/>
<path d="M29 17.3442C28.7684 17.6666 23.2441 25.1718 15.7238 19.786C7.15444 13.6488 1.06083 19.8106 1 19.8737" stroke="#19838C" stroke-width="1.25" stroke-linecap="round" stroke-linejoin="round"/>
</svg>
