<svg viewBox="0 0 43 40" xmlns="http://www.w3.org/2000/svg" fill-rule="evenodd" clip-rule="evenodd" stroke-linejoin="round" stroke-miterlimit="2"><path d="M1.591 4.012a.436.436 0 0 1 .218-.372L8.014.057a.434.434 0 0 1 .255-.049.428.428 0 0 1 .181.051l31.822 18.372a.435.435 0 0 1 .216.376V27.44l1.25.721a.439.439 0 0 1 .341.425v6.32c0 .1-.034.192-.092.266a.439.439 0 0 1-.122.113l-7.8 4.5a.435.435 0 0 1-.217.058h-.001a.435.435 0 0 1-.217-.058L.217 20.494a.598.598 0 0 1-.057-.042.436.436 0 0 1-.16-.336v-6.299l.001-.015a.436.436 0 0 1 .216-.361l1.374-.794V4.018v-.006zm32.365 31.261v3.571l7.254-4.185v-3.571l-7.254 4.185zM.869 19.866l32.87 18.978V35.27L.869 16.292v3.574zM41.21 30.665V28.99l-7.254 4.184v1.849l7.254-4.185v-.132l-.001-.021.001-.02zM.869 16.041l32.87 18.978V33.17L.869 14.193v1.848zm1.048-2.266v-.312l-.939.542 32.875 18.978 7.251-4.183-.942-.544v.351a.108.108 0 0 1-.038.082.107.107 0 0 1-.016.014l-6.205 3.583a.106.106 0 0 1-.055.012h-.001a.106.106 0 0 1-.065-.022L1.983 13.918c-.007-.004-.014-.007-.02-.012a.109.109 0 0 1-.046-.131zm37.702 13.81v-8.399l-5.663 3.27v9.548l5.937-3.428-1.372-.792a.055.055 0 0 1-.027-.047c0-.03.024-.054.054-.054.009 0 .019.002.027.007l1.37.791v-.35l-.109-.063a.435.435 0 0 1-.217-.483zM2.461 4.389v8.51a.438.438 0 0 1-.233.385l-.094.054v.416L33.739 32v-9.552L2.461 4.389zm35.334 22.972a.052.052 0 0 1-.027-.007l-1.506-.869a.055.055 0 0 1-.027-.047c0-.03.024-.054.054-.054.009 0 .019.002.027.007l1.506.87c.016.01.026.027.026.046a.055.055 0 0 1-.053.054zm-2.259-1.3a.052.052 0 0 1-.027-.007l-1.506-.87a.055.055 0 0 1-.02-.074.056.056 0 0 1 .074-.02l1.506.87c.016.01.026.027.026.046a.055.055 0 0 1-.053.054v.001zm-2.259-1.3a.052.052 0 0 1-.027-.007l-1.506-.869a.055.055 0 0 1-.027-.047c0-.03.024-.054.054-.054.009 0 .019.002.027.007l1.506.87c.016.01.026.027.026.046a.055.055 0 0 1-.053.054zm-2.259-1.3a.052.052 0 0 1-.027-.007l-1.506-.87a.055.055 0 0 1-.02-.074.056.056 0 0 1 .074-.02l1.506.87c.016.01.026.027.026.046a.055.055 0 0 1-.053.054v.001zM8.177.967L2.573 4.203l5.604 3.236V5.887a.054.054 0 0 1 .109 0v1.615l25.566 14.764 5.661-3.269L8.286.968V2.41c0 .03-.024.054-.054.054h-.001a.054.054 0 0 1-.054-.054V.967zm20.582 21.194a.052.052 0 0 1-.027-.007l-1.506-.87a.055.055 0 0 1-.02-.074.056.056 0 0 1 .074-.02l1.506.869c.016.01.026.027.026.046a.055.055 0 0 1-.053.054v.002zm-2.259-1.3a.052.052 0 0 1-.027-.007l-1.506-.87a.055.055 0 0 1-.027-.047c0-.03.024-.054.054-.054.009 0 .019.002.027.007l1.506.869c.016.01.026.027.026.046a.055.055 0 0 1-.053.054v.002zm-2.259-1.3a.064.064 0 0 1-.027-.007l-1.506-.87a.055.055 0 0 1-.027-.047c0-.03.024-.054.054-.054.009 0 .019.002.027.007l1.506.869c.016.01.026.027.026.046a.055.055 0 0 1-.053.054v.002zm-2.259-1.3a.064.064 0 0 1-.027-.007l-1.506-.87a.055.055 0 0 1-.027-.047c0-.03.024-.054.054-.054.009 0 .019.002.027.007l1.506.87c.016.01.026.027.026.046a.055.055 0 0 1-.053.054v.001zm-2.259-1.3a.052.052 0 0 1-.027-.007l-1.506-.87a.055.055 0 0 1-.027-.047c0-.03.024-.054.054-.054.009 0 .019.002.027.007l1.506.869c.016.01.026.027.026.046a.055.055 0 0 1-.053.054v.002zm-2.259-1.3a.052.052 0 0 1-.027-.007l-1.506-.87a.056.056 0 0 1-.02-.074.056.056 0 0 1 .074-.02l1.506.87c.016.01.026.027.026.046a.055.055 0 0 1-.053.054v.001zm-2.259-1.3a.052.052 0 0 1-.027-.007l-1.506-.87a.055.055 0 0 1-.027-.047c0-.03.024-.054.054-.054.009 0 .019.002.027.007l1.506.87c.016.01.026.027.026.046a.055.055 0 0 1-.053.054v.001zm-12.998-.594a.055.055 0 0 1-.053-.054c0-.019.01-.036.026-.046l1.506-.869a.052.052 0 0 1 .027-.007c.03 0 .054.024.054.054 0 .019-.01.037-.027.047l-1.506.87a.05.05 0 0 1-.027.005zm10.739-.706a.052.052 0 0 1-.027-.007l-1.506-.87a.055.055 0 0 1-.02-.074.056.056 0 0 1 .074-.02l1.506.87c.016.01.026.027.026.046a.055.055 0 0 1-.053.054v.001zm-8.48-.594a.055.055 0 0 1-.053-.054c0-.019.01-.036.026-.046l1.506-.87a.052.052 0 0 1 .027-.007c.03 0 .054.024.054.054 0 .019-.01.037-.027.047l-1.506.87a.05.05 0 0 1-.027.001v.005zm6.221-.706a.052.052 0 0 1-.027-.007l-1.506-.869a.055.055 0 0 1-.027-.047c0-.03.024-.054.054-.054.009 0 .019.002.027.007l1.506.869c.016.01.026.027.026.046a.055.055 0 0 1-.053.054v.001zm-2.51-1.548V8.496a.054.054 0 0 1 .109 0v1.739l-.001.009a.052.052 0 0 1-.003.018l.173.098c.016.01.026.027.026.046a.055.055 0 0 1-.053.054v.001a.052.052 0 0 1-.027-.007l-.2-.113a.064.064 0 0 1-.013-.01l-1.436.829a.05.05 0 0 1-.027-.002v.009a.055.055 0 0 1-.053-.054c0-.019.01-.036.026-.046l1.479-.854zm.054-5.141a.054.054 0 0 1-.054-.054V3.279c0-.03.025-.055.054-.055.03 0 .055.025.055.055v1.739c0 .03-.024.054-.054.054h-.001z" fill-rule="nonzero"/></svg>