<svg viewBox="0 0 43 50" xmlns="http://www.w3.org/2000/svg" fill-rule="evenodd" clip-rule="evenodd" stroke-linejoin="round" stroke-miterlimit="2"><path d="M1.923 3.574L8.013.058A.434.434 0 0 1 8.25.007a.43.43 0 0 1 .198.052L40.27 18.431a.436.436 0 0 1 .218.377v18.43l1.332.77a.436.436 0 0 1 .261.398v6.3a.424.424 0 0 1-.077.245.42.42 0 0 1-.138.137l-7.8 4.5a.435.435 0 0 1-.463-.019L.216 30.294A.437.437 0 0 1 0 29.917v-6.301c0-.172.102-.321.247-.392l1.344-.776V4.018v-.021c0-.203.142-.376.332-.423zm32.033 41.498v3.576l7.255-4.186v-3.576l-7.255 4.186zM.87 29.667l32.869 18.977v-3.573L.87 26.094v3.573zm33.086 13.305v1.849l7.255-4.186v-1.849l-7.255 4.186zM.87 23.993v1.85L33.739 44.82v-1.85L.87 23.993zm1.047-.414v-.315l-.938.541 32.87 18.977 7.254-4.184-.942-.544v.322a.108.108 0 0 1-.055.125l-.006.004-6.202 3.581a.196.196 0 0 1-.014.006.105.105 0 0 1-.036.008v.003a.102.102 0 0 1-.054-.015L1.972 23.715a.108.108 0 0 1-.055-.136zM2.46 4.393v18.306a.433.433 0 0 1-.164.338.33.33 0 0 1-.052.038l-.11.063v.42l31.605 18.247V22.452L2.46 4.393zm37.158 14.791l-5.662 3.27v19.348l5.934-3.427-1.369-.791a.055.055 0 0 1-.027-.047c0-.03.024-.054.054-.054.009 0 .019.002.027.007l1.369.791v-.353l-.108-.062c-.014-.009-.028-.018-.041-.029a.435.435 0 0 1-.177-.349V19.184zm-1.823 17.977a.052.052 0 0 1-.027-.007l-1.506-.87a.055.055 0 0 1-.027-.047c0-.03.024-.054.054-.054.009 0 .019.002.027.007l1.506.869c.016.01.026.027.026.046a.055.055 0 0 1-.053.054v.002zm-2.259-1.3a.052.052 0 0 1-.027-.007l-1.506-.87a.055.055 0 0 1-.02-.074.056.056 0 0 1 .074-.02l1.506.87c.016.01.026.027.026.046a.055.055 0 0 1-.053.054v.001zm-2.259-1.3a.052.052 0 0 1-.027-.007l-1.506-.87a.055.055 0 0 1-.027-.047c0-.03.024-.054.054-.054.009 0 .019.002.027.007l1.506.869c.016.01.026.027.026.046a.055.055 0 0 1-.053.054v.002zm-2.259-1.3a.052.052 0 0 1-.027-.007l-1.506-.87a.055.055 0 0 1-.027-.047c0-.03.024-.054.054-.054.009 0 .019.002.027.007l1.506.87c.016.01.026.027.026.046a.055.055 0 0 1-.053.054v.001zm-2.259-1.3a.052.052 0 0 1-.027-.007l-1.506-.87a.055.055 0 0 1-.02-.074.056.056 0 0 1 .074-.02l1.506.87c.016.01.026.027.026.046a.055.055 0 0 1-.053.054v.001zm-2.259-1.3a.052.052 0 0 1-.027-.007l-1.506-.87a.055.055 0 0 1-.027-.047c0-.03.024-.054.054-.054.009 0 .019.002.027.007l1.506.87c.016.01.026.027.026.046a.055.055 0 0 1-.053.054v.001zm-2.259-1.3a.052.052 0 0 1-.027-.007l-1.506-.87a.055.055 0 0 1-.027-.047c0-.03.024-.054.054-.054.009 0 .019.002.027.007l1.506.869c.016.01.026.027.026.046a.055.055 0 0 1-.053.054v.002zm-2.259-1.3a.052.052 0 0 1-.027-.007l-1.506-.87a.055.055 0 0 1-.02-.074.056.056 0 0 1 .074-.02l1.506.87c.016.01.026.027.026.046a.055.055 0 0 1-.053.054v.001zm-2.259-1.3a.052.052 0 0 1-.027-.007l-1.506-.869a.055.055 0 0 1-.027-.047c0-.03.024-.054.054-.054.009 0 .019.002.027.007l1.506.87c.016.01.026.027.026.046a.055.055 0 0 1-.053.054zm-2.259-1.3a.052.052 0 0 1-.027-.007l-1.506-.87a.055.055 0 0 1-.02-.074.056.056 0 0 1 .074-.02l1.506.87c.016.01.026.027.026.046a.055.055 0 0 1-.053.054v.001zm-2.259-1.3a.052.052 0 0 1-.027-.007l-1.506-.87a.055.055 0 0 1-.027-.047c0-.03.024-.054.054-.054.009 0 .019.002.027.007l1.506.87c.016.01.026.027.026.046a.055.055 0 0 1-.053.054v.001zm-12.997-.594a.055.055 0 0 1-.053-.054c0-.019.01-.036.026-.046l1.506-.87a.052.052 0 0 1 .027-.007c.03 0 .054.024.054.054 0 .019-.01.037-.027.047l-1.506.87a.063.063 0 0 1-.027.006zm10.738-.706a.052.052 0 0 1-.027-.007l-1.506-.87a.055.055 0 0 1-.027-.047c0-.03.024-.054.054-.054.009 0 .019.002.027.007l1.506.87c.016.01.026.027.026.046a.055.055 0 0 1-.053.054v.001zm-8.479-.594a.055.055 0 0 1-.053-.054c0-.019.01-.036.026-.046l1.506-.87a.052.052 0 0 1 .027-.007c.03 0 .054.024.054.054 0 .019-.01.037-.027.047l-1.506.869a.054.054 0 0 1-.028.002l.001.005zm3.71-21.3L2.57 4.205l31.279 18.06 5.66-3.269L8.286.97v.806c0 .03-.024.054-.054.054h-.001v-.001a.054.054 0 0 1-.054-.054V.967zm2.51 20.594a.052.052 0 0 1-.027-.007l-1.506-.869a.055.055 0 0 1-.027-.047c0-.03.024-.054.054-.054.009 0 .019.002.027.007l1.506.869c.016.01.026.027.026.046a.055.055 0 0 1-.053.054v.001zm-2.51-1.548v-1.717c0-.03.025-.055.055-.055.029 0 .054.025.054.055v1.748a.063.063 0 0 1-.003.019l.172.097c.016.01.026.027.026.046a.055.055 0 0 1-.053.054v.001a.052.052 0 0 1-.027-.007l-.2-.113a.062.062 0 0 1-.012-.009l-1.436.829a.063.063 0 0 1-.027-.003v.009a.055.055 0 0 1-.053-.054c0-.019.01-.036.026-.046l1.478-.854zm.054-2.532a.054.054 0 0 1-.054-.054v-1.739c0-.03.025-.055.055-.055.029 0 .054.025.054.055v1.739c0 .03-.024.054-.054.054h-.001zm0-2.609a.054.054 0 0 1-.054-.054v-1.739c0-.03.025-.055.055-.055.029 0 .054.025.054.055v1.74c0 .03-.024.054-.054.054l-.001-.001zm0-2.608a.054.054 0 0 1-.054-.054v-1.737c0-.03.025-.055.055-.055.029 0 .054.025.054.055v1.739a.054.054 0 0 1-.055.052zm0-2.609a.054.054 0 0 1-.054-.054V7.862c0-.03.025-.055.055-.055.029 0 .054.025.054.055v1.739c0 .03-.024.054-.054.054h-.001zm0-2.609a.054.054 0 0 1-.054-.054V5.253c0-.03.025-.055.055-.055.029 0 .054.025.054.055v1.74c0 .03-.024.054-.054.054l-.001-.001zm0-2.608a.054.054 0 0 1-.054-.054V2.645a.055.055 0 0 1 .109 0v1.739c0 .03-.024.054-.054.054h-.001z" fill-rule="nonzero"/></svg>