<svg viewBox="0 0 52 46" xmlns="http://www.w3.org/2000/svg" fill-rule="evenodd" clip-rule="evenodd" stroke-linejoin="round" stroke-miterlimit="2"><path d="M1.926 9.177L17.719.059a.43.43 0 0 1 .521.049l31.735 18.323.024.015a.437.437 0 0 1 .195.362v8.63l1.26.728c.189.047.33.219.33.422V34.907c0 .126-.055.24-.142.32a.46.46 0 0 1-.077.061l-17.5 10.1-.015.008a.435.435 0 0 1-.419-.007l-7.8-4.5a.452.452 0 0 1-.214-.378v-4.2l-.001-.021.001-.02-.001-2.081c0-.204.145-.378.336-.423l1.256-.726v-2.566l-9.272-5.35-9.488 5.475a.435.435 0 0 1-.217.058H8.23a.435.435 0 0 1-.217-.058l-7.8-4.5a.406.406 0 0 1-.093-.077.435.435 0 0 1-.12-.299V19.42c0-.169.098-.316.24-.388l1.351-.781v-8.63V9.6c0-.204.144-.378.335-.423zm24.56 31.086l7.253 4.184v-3.573l-7.253-4.184v3.573zm7.47.614v3.57l16.959-9.788V31.09l-16.959 9.787zm16.959-10.211v-1.675l-16.959 9.787v1.848l16.959-9.787v-.132-.021-.02zm-24.429 5.773l7.253 4.184v-1.849l-7.253-4.184V36.439zm23.381-8.185v.353a.11.11 0 0 1-.026.071.133.133 0 0 1-.027.026L33.903 37.89a.106.106 0 0 1-.055.012.102.102 0 0 1-.062-.02l-6.182-3.569a.122.122 0 0 1-.029-.017.108.108 0 0 1-.041-.128v-.312l-.942.544 7.259 4.188 16.961-9.789-.945-.545zm-.543-.666v-8.401l-15.368 8.872v2.452l1.105-.638a.052.052 0 0 1 .027-.007c.03 0 .054.024.054.054 0 .019-.01.037-.027.047l-1.159.669v6.972l15.642-9.03-1.373-.792a.055.055 0 0 1-.027-.047c0-.03.024-.054.054-.054.009 0 .019.002.027.007l1.371.792v-.356l-.062-.035a.434.434 0 0 1-.112-.071.435.435 0 0 1-.152-.434zm-15.585 3.049v-2.582l-5.988-3.457v5.185c.187.049.327.22.327.421l-.001 2.981a.439.439 0 0 1-.164.45.522.522 0 0 1-.096.058l-.066.038v.355l.534-.308a.052.052 0 0 1 .027-.007c.03 0 .054.024.054.054 0 .019-.01.037-.027.047l-.532.307 5.932 3.424v-6.842l-.13.075a.057.057 0 0 1-.026-.001l-.001.009a.055.055 0 0 1-.047-.027.055.055 0 0 1 .02-.074l.184-.106zm-4.675 2.807a.055.055 0 0 1-.047-.027.055.055 0 0 1 .02-.074l1.506-.869a.052.052 0 0 1 .027-.007c.03 0 .054.024.054.054 0 .019-.01.037-.027.047l-1.506.869a.055.055 0 0 1-.031.007h.004zm2.259-1.3a.055.055 0 0 1-.053-.054c0-.019.01-.036.026-.046l1.506-.869a.052.052 0 0 1 .027-.007c.03 0 .054.024.054.054 0 .019-.01.037-.027.047l-1.506.87a.057.057 0 0 1-.026.001l-.001.004zM.87 25.474l7.253 4.185v-3.574L.87 21.9v3.574zm26.664 4.184v-3.573l-9.489-5.475v3.595a.422.422 0 0 1 .109.041l9.38 5.412zm-9.706-5.453v-3.591L8.34 26.088v3.569l9.379-5.411a.422.422 0 0 1 .109-.041zm19.466 4.385v-1.722a.055.055 0 0 1 .109 0v1.742a.036.036 0 0 1-.002.011v.001c0 .019-.01.037-.027.047l-1.506.869a.048.048 0 0 1-.026-.007l-.001.013a.055.055 0 0 1-.053-.054c0-.019.01-.036.026-.046l1.48-.854zm-.15-.046a.052.052 0 0 1-.027-.007l-1.506-.869a.055.055 0 0 1-.027-.047c0-.03.024-.054.054-.054.009 0 .019.002.027.007l1.506.869a.055.055 0 0 1 .02.074.055.055 0 0 1-.047.027zM17.883.968L2.571 9.809l5.663 3.27 9.603-5.54a.119.119 0 0 1 .046-.043V5.86a.054.054 0 0 1 .109 0V7.5a.13.13 0 0 1 .023.018L37.4 18.712a.112.112 0 0 1 .049.08.11.11 0 0 1-.045.112l-2.195 1.267 1.022.59c.016.01.026.027.026.046a.055.055 0 0 1-.053.054v.001a.052.052 0 0 1-.027-.007l-1.076-.621-6.086 3.513 1.379.796c.016.01.026.027.026.046a.055.055 0 0 1-.053.054v.001a.052.052 0 0 1-.027-.007l-1.431-.826-1.045.601 5.988 3.457 3.442-1.988v-1.622a.055.055 0 0 1 .109 0v1.559l11.815-6.821L17.992.969v1.415c0 .03-.024.054-.054.054l-.001-.001a.054.054 0 0 1-.054-.054V.968zm29.616 26.394a.052.052 0 0 1-.027-.007l-1.506-.869a.055.055 0 0 1-.027-.047c0-.03.024-.054.054-.054.009 0 .019.002.027.007l1.506.87c.016.01.026.027.026.046a.055.055 0 0 1-.053.054zm-12.614-.118a.052.052 0 0 1-.027-.007l-1.506-.87a.055.055 0 0 1-.027-.047c0-.03.024-.054.054-.054.009 0 .019.002.027.007l1.506.87c.016.01.026.027.026.046a.055.055 0 0 1-.053.054v.001zm10.355-1.182a.052.052 0 0 1-.027-.007l-1.506-.87a.055.055 0 0 1-.027-.047c0-.03.024-.054.054-.054.009 0 .019.002.027.007l1.506.87c.016.01.026.027.026.046a.055.055 0 0 1-.053.054v.001zm-12.614-.118a.052.052 0 0 1-.027-.007l-1.506-.869a.055.055 0 0 1-.027-.047c0-.03.024-.054.054-.054.009 0 .019.002.027.007l1.506.869c.016.01.026.027.026.046a.055.055 0 0 1-.053.054v.001zM8.34 23.988v1.849l9.488-5.474v-1.849L8.34 23.988zM.87 19.799v1.851l7.253 4.184v-1.85l-5.924-3.418-.629.363a.055.055 0 0 1-.08-.048c0-.019.01-.036.026-.046l.574-.331-1.22-.705zm26.757 4.498l.225-.129-9.807-5.66v1.851l9.489 5.475v-1.39a.099.099 0 0 1-.007-.038.11.11 0 0 1 .1-.109zm15.354.465a.052.052 0 0 1-.027-.007l-1.506-.87a.055.055 0 0 1-.027-.047c0-.03.024-.054.054-.054.009 0 .019.002.027.007l1.506.87c.016.01.026.027.026.046a.055.055 0 0 1-.053.054v.001zm-25.038-7.234L8.286 23.1a.102.102 0 0 1-.054.012h-.001a.102.102 0 0 1-.054-.015l-5.181-2.991-.58.335 5.819 3.357 9.602-5.54a.108.108 0 0 1 .016-.02.108.108 0 0 1 .083-.039.11.11 0 0 1 .091.048l10.041 5.797.581-.334-10.706-6.182zm17.049 2.518l2.143-1.238-19.09-11.021v2.51l.114.064c.016.01.026.027.026.046a.055.055 0 0 1-.053.054v.001a.052.052 0 0 1-.027-.007l-.06-.034v6.916l10.82 6.246 6.018-3.475-.212-.122a.055.055 0 0 1-.027-.047c0-.03.024-.054.054-.054.009 0 .019.002.027.007l.267.154zm5.73 3.416a.052.052 0 0 1-.027-.007l-1.506-.87a.055.055 0 0 1-.027-.047c0-.03.024-.054.054-.054.009 0 .019.002.027.007l1.506.87c.016.01.026.027.026.046a.055.055 0 0 1-.053.054v.001zm-3.374-.018a.054.054 0 0 1-.054-.054v-1.739a.055.055 0 0 1 .109 0v1.739c0 .03-.024.054-.054.054h-.001zm-19.52-13.183V7.795L8.34 13.269v2.454l.534-.308a.052.052 0 0 1 .027-.007c.03 0 .054.024.054.054 0 .019-.01.037-.027.047l-.588.34v6.969l9.488-5.474v-6.957l-1.37.791a.052.052 0 0 1-.027-.019v.025a.055.055 0 0 1-.053-.054c0-.019.01-.036.026-.046l1.424-.823zM2.46 9.996v8.506a.433.433 0 0 1-.217.377l-.109.063v.37a.055.055 0 0 1 .046.054l-.002.017 5.945 3.432v-6.841l-.701.405a.063.063 0 0 1-.027-.003v.008a.055.055 0 0 1-.053-.054c0-.019.01-.036.026-.046l.755-.436v-2.582L2.46 9.996zm36.003 12.166a.052.052 0 0 1-.027-.007l-1.506-.87a.055.055 0 0 1-.027-.047c0-.03.024-.054.054-.054.009 0 .019.002.027.007l1.506.87c.016.01.026.027.026.046a.055.055 0 0 1-.053.054v.001zm-1.115-1.326a.054.054 0 0 1-.054-.054v-1.739a.054.054 0 0 1 .109 0v1.739c0 .03-.024.054-.054.054h-.001zM1.917 19.067l-.94.543 1.331.768.58-.334-.907-.524a.108.108 0 0 1-.064-.099v-.354zm32.028.495a.052.052 0 0 1-.027-.007l-1.506-.869a.055.055 0 0 1-.027-.047c0-.03.024-.054.054-.054.009 0 .019.002.027.007l1.506.869c.016.01.026.027.026.046a.055.055 0 0 1-.053.054v.001zm-31.068-.578a.055.055 0 0 1-.053-.054c0-.019.01-.036.026-.046l1.506-.869a.052.052 0 0 1 .027-.007c.03 0 .054.024.054.054 0 .019-.01.037-.027.047l-1.506.869a.063.063 0 0 1-.027.006zm28.809-.722a.052.052 0 0 1-.027-.007l-1.506-.869a.055.055 0 0 1-.027-.047c0-.03.024-.054.054-.054.009 0 .019.002.027.007l1.506.869c.016.01.026.027.026.046a.055.055 0 0 1-.053.054v.001zm-26.55-.578a.055.055 0 0 1-.053-.054c0-.019.01-.036.026-.046l1.506-.869a.055.055 0 0 1 .074.02.055.055 0 0 1-.02.074l-1.506.869a.05.05 0 0 1-.027.002v.004zm24.291-.722a.052.052 0 0 1-.027-.007l-1.506-.869a.055.055 0 0 1-.027-.047c0-.03.024-.054.054-.054.009 0 .019.002.027.007l1.506.869a.055.055 0 0 1 .02.074.057.057 0 0 1-.047-.012v.039zm-2.259-1.3a.052.052 0 0 1-.027-.007l-1.506-.87a.055.055 0 0 1-.027-.047c0-.03.024-.054.054-.054.009 0 .019.002.027.007l1.506.87c.016.01.026.027.026.046a.055.055 0 0 1-.053.054v.001zm-17.514-.578a.055.055 0 0 1-.053-.054c0-.019.01-.036.026-.046l1.506-.869a.052.052 0 0 1 .027-.007c.03 0 .054.024.054.054 0 .019-.01.037-.027.047l-1.506.869a.052.052 0 0 1-.027-.007v.013zm15.255-.722a.052.052 0 0 1-.027-.007l-1.506-.869a.055.055 0 0 1-.027-.047c0-.03.024-.054.054-.054.009 0 .019.002.027.007l1.506.869c.016.01.026.027.026.046a.055.055 0 0 1-.053.054v.001zm-12.996-.578a.055.055 0 0 1-.053-.054c0-.019.01-.036.026-.046l1.506-.869a.052.052 0 0 1 .027-.007c.03 0 .054.024.054.054 0 .019-.01.037-.027.047l-1.506.87a.055.055 0 0 1-.027-.012v.017zm10.737-.722a.052.052 0 0 1-.027-.007l-1.506-.869a.055.055 0 0 1-.027-.047c0-.03.024-.054.054-.054.009 0 .019.002.027.007l1.506.87c.016.01.026.027.026.046a.055.055 0 0 1-.053.054zm-8.478-.578a.055.055 0 0 1-.053-.054c0-.019.01-.036.026-.046l1.506-.87a.052.052 0 0 1 .027-.007c.03 0 .054.024.054.054 0 .019-.01.037-.027.047l-1.506.87a.056.056 0 0 1-.027-.015v.021zm6.219-.722a.052.052 0 0 1-.027-.007l-1.506-.87a.055.055 0 0 1-.027-.047c0-.03.024-.054.054-.054.009 0 .019.002.027.007l1.506.87c.016.01.026.027.026.046a.055.055 0 0 1-.053.054v.001zm-2.454-6.717a.054.054 0 0 1-.054-.054V3.253c0-.03.025-.055.054-.055.03 0 .055.025.055.055v1.739c0 .03-.024.054-.054.054h-.001v-.001z" fill-rule="nonzero"/></svg>