<?xml version="1.0" encoding="UTF-8" standalone="no"?>
<!DOCTYPE svg PUBLIC "-//W3C//DTD SVG 1.1//EN" "http://www.w3.org/Graphics/SVG/1.1/DTD/svg11.dtd">
<svg width="100%" height="100%" viewBox="0 0 48 70" version="1.1" xmlns="http://www.w3.org/2000/svg" xmlns:xlink="http://www.w3.org/1999/xlink" xml:space="preserve" style="fill-rule:evenodd;clip-rule:evenodd;stroke-linejoin:round;stroke-miterlimit:2;">
    <path id="Path_2208" d="M0.036,54.846c-0.022,-0.042 -0.034,-0.086 -0.034,-0.131l0,-40.426c-0.005,-0.037 -0.007,-0.075 -0.007,-0.114c0,-0.039 0.002,-0.077 0.007,-0.114l0,-0.315c0,-0.21 0.258,-0.389 0.618,-0.451l22.754,-13.132c0.146,-0.102 0.323,-0.162 0.513,-0.162c0.158,0 0.313,0.041 0.45,0.12l22.365,12.91c0.358,0.062 0.614,0.238 0.614,0.446l0,40.557c0,0.009 0,0.018 -0.001,0.026c0.077,0.384 -0.085,0.794 -0.432,1.011l-22.983,13.847c-0.135,0.083 -0.291,0.127 -0.45,0.128c-0.245,-0.003 -0.474,-0.105 -0.64,-0.276l-22.327,-13.17c-0.274,-0.165 -0.433,-0.454 -0.447,-0.754Zm32.016,-32.384l0,0.431c0.004,0.032 -0.019,0.061 -0.05,0.066l0,-0.002c-0.031,-0.005 -0.052,-0.033 -0.05,-0.064l0,-0.373l-8.296,4.79l0,39.583l21.86,-13.173l0,-39.032l-13.464,7.774Zm-30.25,31.797l20.336,11.995l0,-1.434c0,-0.039 0.05,-0.072 0.113,-0.072c0.063,0 0.113,0.032 0.113,0.072l0,1.567l0.842,0.497l0,-39.572l-8.934,-5.158l0,0.739c0.001,0.036 -0.051,0.066 -0.113,0.066l0,-0.002c-0.062,0 -0.113,-0.03 -0.113,-0.066l0,-0.868l-12.244,-7.069l0,39.305Zm20.449,9.486c-0.062,0 -0.113,-0.032 -0.113,-0.072l0,-2.3c0,-0.039 0.05,-0.072 0.113,-0.072c0.063,0 0.113,0.032 0.113,0.072l0,2.3c0.001,0.038 -0.051,0.07 -0.113,0.07l0,0.002Zm-8.092,-2.784c-0.062,0 -0.113,-0.03 -0.113,-0.066l0,-2.111c0,-0.036 0.05,-0.066 0.113,-0.066c0.063,0 0.113,0.03 0.113,0.066l0,2.111c0.001,0.036 -0.051,0.066 -0.113,0.066Zm17.843,0c-0.031,-0.005 -0.054,-0.034 -0.05,-0.066l0,-2.111c-0.004,-0.032 0.019,-0.061 0.05,-0.066c0.031,0.005 0.054,0.034 0.05,0.066l0,2.111c0.004,0.032 -0.019,0.061 -0.05,0.066Zm-9.751,-0.658c-0.062,0 -0.113,-0.032 -0.113,-0.072l0,-2.295c0,-0.04 0.05,-0.072 0.113,-0.072c0.063,0 0.113,0.032 0.113,0.072l0,2.295c0.001,0.038 -0.051,0.07 -0.113,0.07l0,0.002Zm-8.092,-2.509c-0.062,0 -0.113,-0.03 -0.113,-0.066l0,-2.111c0,-0.036 0.05,-0.066 0.113,-0.066c0.063,0 0.113,0.03 0.113,0.066l0,2.111c0.001,0.037 -0.051,0.066 -0.113,0.066Zm17.843,0c-0.031,-0.005 -0.054,-0.034 -0.05,-0.066l0,-2.111c-0.004,-0.032 0.019,-0.061 0.05,-0.066c0.031,0.005 0.054,0.034 0.05,0.066l0,2.111c0.004,0.032 -0.019,0.061 -0.05,0.066Zm-9.751,-0.933c-0.062,0 -0.113,-0.032 -0.113,-0.072l0,-2.295c0,-0.04 0.05,-0.072 0.113,-0.072c0.063,0 0.113,0.032 0.113,0.072l0,2.293c0.001,0.04 -0.051,0.072 -0.113,0.072l0,0.002Zm9.751,-2.234c-0.031,-0.005 -0.053,-0.034 -0.05,-0.065l0,-2.112c-0.004,-0.032 0.019,-0.061 0.05,-0.066c0.031,0.005 0.054,0.034 0.05,0.066l0,2.111c0.004,0.032 -0.018,0.062 -0.05,0.067l0,-0.001Zm-17.843,0c-0.062,0 -0.113,-0.03 -0.113,-0.066l0,-2.111c0,-0.037 0.05,-0.066 0.113,-0.066c0.063,0 0.113,0.03 0.113,0.066l0,2.111c0.001,0.037 -0.051,0.066 -0.113,0.066Zm8.092,-1.208c-0.062,0 -0.113,-0.032 -0.113,-0.072l0,-2.295c0,-0.04 0.05,-0.072 0.113,-0.072c0.063,0 0.113,0.032 0.113,0.072l0,2.295c0.001,0.04 -0.051,0.07 -0.113,0.07l0,0.002Zm-8.092,-1.959c-0.062,0 -0.113,-0.03 -0.113,-0.066l0,-2.111c0,-0.036 0.05,-0.066 0.113,-0.066c0.063,0 0.113,0.03 0.113,0.066l0,2.111c0.001,0.037 -0.051,0.067 -0.113,0.067l0,-0.001Zm17.843,0c-0.031,-0.005 -0.053,-0.034 -0.05,-0.065l0,-2.112c-0.004,-0.032 0.019,-0.061 0.05,-0.066c0.031,0.005 0.054,0.034 0.05,0.066l0,2.111c0.004,0.032 -0.018,0.062 -0.05,0.067l0,-0.001Zm-9.751,-1.483c-0.062,0 -0.113,-0.032 -0.113,-0.072l0,-2.295c0,-0.04 0.05,-0.072 0.113,-0.072c0.063,0 0.113,0.032 0.113,0.072l0,2.295c0.001,0.038 -0.051,0.07 -0.113,0.07l0,0.002Zm-8.092,-1.684c-0.062,0 -0.113,-0.03 -0.113,-0.066l0,-2.115c0,-0.036 0.05,-0.066 0.113,-0.066c0.063,0 0.113,0.029 0.113,0.066l0,2.111c0.001,0.041 -0.051,0.071 -0.113,0.071l0,-0.001Zm17.843,0c-0.031,-0.005 -0.053,-0.034 -0.05,-0.065l0,-2.111c-0.004,-0.032 0.019,-0.061 0.05,-0.066c0.031,0.005 0.054,0.034 0.05,0.066l0,2.111c0.004,0.032 -0.019,0.061 -0.05,0.066l0,-0.001Zm-9.751,-1.758c-0.062,0 -0.113,-0.032 -0.113,-0.072l0,-2.295c0,-0.04 0.05,-0.072 0.113,-0.072c0.063,0 0.113,0.032 0.113,0.072l0,2.295c0.001,0.037 -0.051,0.07 -0.113,0.07l0,0.002Zm-8.092,-1.409c-0.062,0 -0.113,-0.03 -0.113,-0.066l0,-2.111c0,-0.036 0.05,-0.066 0.113,-0.066c0.063,0 0.113,0.03 0.113,0.066l0,2.111c0.001,0.037 -0.051,0.067 -0.113,0.067l0,-0.001Zm17.843,0c-0.031,-0.005 -0.053,-0.034 -0.05,-0.065l0,-2.111c-0.004,-0.032 0.019,-0.061 0.05,-0.066c0.031,0.005 0.054,0.034 0.05,0.066l0,2.111c0.004,0.032 -0.019,0.061 -0.05,0.066l0,-0.001Zm-9.751,-2.033c-0.062,0 -0.113,-0.032 -0.113,-0.072l0,-2.295c0,-0.04 0.05,-0.072 0.113,-0.072c0.063,0 0.113,0.032 0.113,0.072l0,2.295c0.001,0.037 -0.051,0.066 -0.113,0.066l0,0.006Zm-8.092,-1.134c-0.062,0 -0.113,-0.03 -0.113,-0.066l0,-2.111c0,-0.036 0.05,-0.066 0.113,-0.066c0.063,0 0.113,0.029 0.113,0.066l0,2.111c0.001,0.037 -0.051,0.067 -0.113,0.067l0,-0.001Zm17.843,0c-0.031,-0.005 -0.053,-0.034 -0.05,-0.065l0,-2.111c-0.004,-0.032 0.019,-0.061 0.05,-0.066c0.031,0.005 0.054,0.034 0.05,0.066l0,2.111c0.004,0.032 -0.019,0.061 -0.05,0.066l0,-0.001Zm-9.751,-2.308c-0.062,0 -0.113,-0.032 -0.113,-0.072l0,-2.295c0,-0.039 0.05,-0.072 0.113,-0.072c0.063,0 0.113,0.032 0.113,0.072l0,2.295c0.001,0.037 -0.051,0.069 -0.113,0.069l0,0.003Zm-8.092,-0.859c-0.062,0 -0.113,-0.03 -0.113,-0.066l0,-2.114c0,-0.037 0.05,-0.066 0.113,-0.066c0.063,0 0.113,0.029 0.113,0.066l0,2.111c0.001,0.041 -0.051,0.07 -0.113,0.07l0,-0.001Zm17.843,0c-0.031,-0.005 -0.053,-0.034 -0.05,-0.065l0,-2.111c-0.004,-0.032 0.019,-0.061 0.05,-0.066c0.031,0.005 0.054,0.034 0.05,0.066l0,2.111c0.004,0.032 -0.019,0.061 -0.05,0.066l0,-0.001Zm-9.751,-2.583c-0.062,0 -0.113,-0.032 -0.113,-0.072l0,-2.295c0,-0.039 0.05,-0.072 0.113,-0.072c0.063,0 0.113,0.032 0.113,0.072l0,2.295c0.001,0.037 -0.051,0.069 -0.113,0.069l0,0.003Zm9.751,-0.584c-0.031,-0.005 -0.053,-0.034 -0.05,-0.065l0,-2.111c-0.004,-0.032 0.019,-0.061 0.05,-0.066c0.031,0.005 0.054,0.034 0.05,0.066l0,2.111c0.004,0.032 -0.018,0.062 -0.05,0.067l0,-0.002Zm-17.843,0c-0.062,0 -0.113,-0.029 -0.113,-0.066l0,-2.111c0,-0.036 0.05,-0.066 0.113,-0.066c0.063,0 0.113,0.03 0.113,0.066l0,2.111c0.001,0.038 -0.051,0.067 -0.113,0.067l0,-0.001Zm8.092,-2.858c-0.062,0 -0.113,-0.032 -0.113,-0.072l0,-2.298c0,-0.04 0.05,-0.072 0.113,-0.072c0.063,0 0.113,0.032 0.113,0.072l0,2.295c0.001,0.039 -0.051,0.072 -0.113,0.072l0,0.003Zm-8.092,-0.309c-0.062,0 -0.113,-0.029 -0.113,-0.066l0,-2.11c0,-0.036 0.05,-0.066 0.113,-0.066c0.063,0 0.113,0.03 0.113,0.066l0,2.111c0.001,0.037 -0.051,0.066 -0.113,0.066l0,-0.001Zm17.843,0c-0.031,-0.005 -0.052,-0.033 -0.05,-0.064l0,-2.112c-0.004,-0.032 0.019,-0.061 0.05,-0.066c0.031,0.005 0.054,0.034 0.05,0.066l0,2.111c0.004,0.032 -0.019,0.061 -0.05,0.066l0,-0.001Zm-9.751,-3.133c-0.062,0 -0.113,-0.032 -0.113,-0.072l0,-2.294c0,-0.04 0.05,-0.072 0.113,-0.072c0.063,0 0.113,0.032 0.113,0.072l0,2.294c0.001,0.034 -0.051,0.068 -0.113,0.068l0,0.004Zm-8.092,-0.034c-0.062,0 -0.113,-0.03 -0.113,-0.066l0,-2.113c0,-0.036 0.05,-0.066 0.113,-0.066c0.063,0 0.113,0.03 0.113,0.066l0,2.111c0.001,0.04 -0.051,0.07 -0.113,0.07l0,-0.002Zm17.843,0c-0.031,-0.005 -0.052,-0.033 -0.05,-0.064l0,-2.111c-0.004,-0.032 0.019,-0.061 0.05,-0.066c0.031,0.005 0.054,0.034 0.05,0.066l0,2.111c0.004,0.032 -0.019,0.061 -0.05,0.066l0,-0.002Zm0.05,-7.35l13.236,-7.642l-21.396,-12.354l-21.86,12.621l12.014,6.936l0,-0.72c0,-0.036 0.05,-0.066 0.113,-0.066c0.063,0 0.113,0.03 0.113,0.066l0,0.851l9.157,5.287l8.523,-4.921l0,-1.217c-0.004,-0.032 0.019,-0.061 0.05,-0.066c0.031,0.005 0.054,0.034 0.05,0.066l0,1.159Zm-17.893,4.183c-0.062,0 -0.113,-0.03 -0.113,-0.066l0,-2.111c0,-0.036 0.05,-0.066 0.113,-0.066c0.063,0 0.113,0.03 0.113,0.066l0,2.111c0.001,0.038 -0.051,0.068 -0.113,0.068l0,-0.002Zm17.843,0c-0.031,-0.005 -0.052,-0.033 -0.05,-0.064l0,-2.111c-0.004,-0.032 0.019,-0.061 0.05,-0.066c0.031,0.005 0.054,0.034 0.05,0.066l0,2.111c0.004,0.032 -0.019,0.061 -0.05,0.066l0,-0.002Zm-9.751,-0.241c-0.062,0 -0.113,-0.032 -0.113,-0.072l0,-2.295c0,-0.04 0.05,-0.072 0.113,-0.072c0.063,0 0.113,0.032 0.113,0.072l0,2.295c0.001,0.036 -0.051,0.068 -0.113,0.068l0,0.004Zm0,-3.442c-0.062,0 -0.113,-0.032 -0.113,-0.072l0,-2.295c0,-0.04 0.05,-0.072 0.113,-0.072c0.063,0 0.113,0.032 0.113,0.072l0,2.295c0.001,0.036 -0.051,0.068 -0.113,0.068l0,0.004Zm-8.092,-2.651c-0.062,0 -0.113,-0.03 -0.113,-0.066l0,-2.112c0,-0.036 0.05,-0.066 0.113,-0.066c0.063,0 0.113,0.03 0.113,0.066l0,2.111c0.001,0.04 -0.051,0.069 -0.113,0.069l0,-0.002Zm17.843,0c-0.031,-0.005 -0.052,-0.033 -0.05,-0.064l0,-2.111c-0.004,-0.032 0.019,-0.061 0.05,-0.066c0.031,0.005 0.054,0.034 0.05,0.066l0,2.111c0.004,0.032 -0.019,0.061 -0.05,0.066l0,-0.002Zm-0.036,-6.352l-9.718,5.665l-8.604,-5.68l10.239,-5.78l8.51,5.546l-0.341,0.199l0,0.005c0.004,0.032 -0.019,0.061 -0.05,0.066c-0.015,-0.002 -0.027,-0.01 -0.036,-0.021Zm0.036,3.185c-0.03,-0.005 -0.052,-0.032 -0.05,-0.063l0,-2.112c-0.004,-0.032 0.019,-0.061 0.05,-0.066c0.031,0.005 0.054,0.034 0.05,0.066l0,2.112c0.003,0.031 -0.019,0.06 -0.05,0.065l0,-0.002Zm-17.843,0c-0.062,0 -0.113,-0.029 -0.113,-0.066l0,-2.111c0,-0.036 0.05,-0.066 0.113,-0.066c0.063,0 0.113,0.03 0.113,0.066l0,2.111c0.001,0.039 -0.051,0.068 -0.113,0.068l0,-0.002Z" style="fill-rule:nonzero;"/>
</svg>
