<svg viewBox="0 0 52 40" xmlns="http://www.w3.org/2000/svg" fill-rule="evenodd" clip-rule="evenodd" stroke-linejoin="round" stroke-miterlimit="2"><path d="M17.9-.003a.437.437 0 0 1 .35.119l31.605 18.247a.437.437 0 0 1 .338.424V27.436l1.259.727c.19.047.332.22.332.423V34.787a.435.435 0 0 1-.213.498l-7.8 4.5a.417.417 0 0 1-.218.059.435.435 0 0 1-.217-.058L17.939 25.123l-9.491 5.476a.435.435 0 0 1-.434 0l-7.8-4.5A.452.452 0 0 1 0 25.721v-4.2-.021-2.1c0-.203.142-.376.332-.423l1.259-.727V9.621 9.6c0-.205.145-.379.337-.424L17.636.108a.432.432 0 0 1 .264-.111zm.332 24.291l25.213 14.557v-3.569l-25.4-14.665v3.581c.07.017.134.05.187.096zm25.43 10.986v3.57l7.253-4.185v-3.57l-7.253 4.185zM18.045 20.36l25.4 14.665v-1.854l-25.4-14.665v1.854zm32.87 10.305v-1.676l-7.253 4.184v1.85l7.253-4.184v-.133-.021-.02zM17.943 17.528L8.285 23.1a.102.102 0 0 1-.054.012v.001a.102.102 0 0 1-.054-.015l-6.191-3.575a.117.117 0 0 1-.034-.02.109.109 0 0 1-.037-.119v-.317l-.94.543 7.259 4.188 9.608-5.544a.108.108 0 0 1 .182-.011l25.531 14.741 7.256-4.186-.945-.546v.355a.11.11 0 0 1-.031.076c-.006.008-.014.014-.022.02l-6.205 3.582a.113.113 0 0 1-.054.013h-.001a.102.102 0 0 1-.054-.015L17.943 17.528zm31.381 1.658l-5.662 3.27v9.548l5.935-3.427-1.371-.791a.055.055 0 0 1-.027-.047c0-.03.024-.054.054-.054.009 0 .019.002.027.007l1.369.791v-.357l-.085-.049a.436.436 0 0 1-.24-.388v-8.503zm-31.279-8.765v6.915l25.4 14.665v-9.548l-25.4-14.665v2.508l.115.065c.016.01.026.027.026.046a.055.055 0 0 1-.053.054v.001a.052.052 0 0 1-.027-.007l-.061-.034zm-.217 13.768v-3.576l-9.489 5.475v3.57l9.284-5.357a.44.44 0 0 1 .205-.112zM.869 25.473l7.253 4.184v-3.573L.869 21.9v3.573zM47.5 27.362a.052.052 0 0 1-.027-.007l-1.506-.869a.055.055 0 0 1-.027-.047c0-.03.024-.054.054-.054.009 0 .019.002.027.007l1.506.87c.016.01.026.027.026.046a.055.055 0 0 1-.053.054zm-2.259-1.3a.052.052 0 0 1-.027-.007l-1.506-.87a.055.055 0 0 1-.027-.047c0-.03.024-.054.054-.054.009 0 .019.002.027.007l1.506.869c.016.01.026.027.026.046a.055.055 0 0 1-.053.054v.002zM8.339 23.988v1.849l9.489-5.475v-1.849l-9.489 5.475zm-7.47-2.467v.128l7.253 4.184v-1.849L.869 19.8V21.521zm42.113 3.241a.052.052 0 0 1-.027-.007l-1.506-.869a.055.055 0 0 1-.027-.047c0-.03.024-.054.054-.054.009 0 .019.002.027.007l1.506.87c.016.01.026.027.026.046a.055.055 0 0 1-.053.054zm-2.259-1.3a.052.052 0 0 1-.027-.007l-1.506-.869a.055.055 0 0 1-.027-.047c0-.03.024-.054.054-.054.009 0 .019.002.027.007l1.506.87c.016.01.026.027.026.046a.055.055 0 0 1-.053.054zm-22.895-13.2V7.794l-9.489 5.475v2.452l.534-.308a.052.052 0 0 1 .027-.007c.03 0 .054.024.054.054 0 .019-.01.037-.027.047l-.588.34v6.971l9.489-5.475v-6.956l-1.371.791a.06.06 0 0 1-.027-.02v.026a.055.055 0 0 1-.053-.054c0-.019.01-.036.026-.046l1.425-.822zm-9.706 5.585v-2.582L2.46 9.996v8.399a.435.435 0 0 1-.217.483l-.111.064v.369a.056.056 0 0 1 .047.054.047.047 0 0 1-.003.017l5.946 3.433v-6.843l-.701.405a.05.05 0 0 1-.027-.002v.009a.055.055 0 0 1-.047-.027.055.055 0 0 1 .02-.074l.755-.436zM17.989.97v1.414c0 .03-.024.054-.054.054h-.001a.054.054 0 0 1-.054-.054V.971L2.571 9.809l5.663 3.27 9.608-5.544a.102.102 0 0 1 .038-.039V5.862a.055.055 0 0 1 .109 0v1.631a.103.103 0 0 1 .036.033l25.531 14.74 5.66-3.268L17.989.97zm20.475 21.192a.052.052 0 0 1-.027-.007l-1.506-.869a.055.055 0 0 1-.027-.047c0-.03.024-.054.054-.054.009 0 .019.002.027.007l1.506.87c.016.01.026.027.026.046a.055.055 0 0 1-.053.054zm-2.259-1.3a.052.052 0 0 1-.027-.007l-1.506-.869a.055.055 0 0 1-.027-.047c0-.03.024-.054.054-.054.009 0 .019.002.027.007l1.506.87c.016.01.026.027.026.046a.055.055 0 0 1-.053.054zm-2.259-1.3a.052.052 0 0 1-.027-.007l-1.506-.869a.055.055 0 0 1-.027-.047c0-.03.024-.054.054-.054.009 0 .019.002.027.007l1.506.87a.055.055 0 0 1 .02.074.055.055 0 0 1-.047-.004v.03zm-31.07-.578a.055.055 0 0 1-.053-.054c0-.019.01-.036.026-.046l1.506-.87a.052.052 0 0 1 .027-.007c.03 0 .054.024.054.054 0 .019-.01.037-.027.047l-1.506.87a.05.05 0 0 1-.027.005v.001zm28.811-.722a.052.052 0 0 1-.027-.007l-1.506-.87a.055.055 0 0 1-.027-.047c0-.03.024-.054.054-.054.009 0 .019.002.027.007l1.506.87a.055.055 0 0 1 .02.074.053.053 0 0 1-.047-.008v.035zm-26.552-.578a.055.055 0 0 1-.047-.027.055.055 0 0 1 .02-.074l1.506-.87a.052.052 0 0 1 .027-.007c.03 0 .054.024.054.054 0 .019-.01.037-.027.047l-1.506.87a.05.05 0 0 1-.027.002v.005zm24.293-.722a.052.052 0 0 1-.027-.007l-1.506-.87a.055.055 0 0 1-.027-.047c0-.03.024-.054.054-.054.009 0 .019.002.027.007l1.506.87a.055.055 0 0 1 .02.074.053.053 0 0 1-.047-.012v.039zm-2.259-1.3a.052.052 0 0 1-.027-.007l-1.506-.87a.055.055 0 0 1-.027-.047c0-.03.024-.054.054-.054.009 0 .019.002.027.007l1.506.869c.016.01.026.027.026.046a.055.055 0 0 1-.053.054v.002zm-17.516-.578a.055.055 0 0 1-.047-.027.055.055 0 0 1 .02-.074l1.506-.869a.052.052 0 0 1 .027-.007c.03 0 .054.024.054.054 0 .019-.01.037-.027.047l-1.506.87a.052.052 0 0 1-.027-.007v.013zm15.257-.722a.052.052 0 0 1-.027-.007l-1.506-.87a.055.055 0 0 1-.027-.047c0-.03.024-.054.054-.054.009 0 .019.002.027.007l1.506.87c.016.01.026.027.026.046a.055.055 0 0 1-.053.054v.001zm-12.998-.578a.055.055 0 0 1-.053-.054c0-.019.01-.036.026-.046l1.506-.869a.052.052 0 0 1 .027-.007c.03 0 .054.024.054.054 0 .019-.01.037-.027.047l-1.506.87a.055.055 0 0 1-.027-.012v.017zm10.739-.722a.052.052 0 0 1-.027-.007l-1.506-.869a.055.055 0 0 1-.027-.047c0-.03.024-.054.054-.054.009 0 .019.002.027.007l1.506.87c.016.01.026.027.026.046a.055.055 0 0 1-.053.054zm-8.48-.578a.055.055 0 0 1-.053-.054c0-.019.01-.036.026-.046l1.506-.869a.052.052 0 0 1 .027-.007c.03 0 .054.024.054.054 0 .019-.01.037-.027.047l-1.506.87a.06.06 0 0 1-.027-.017v.022zm6.221-.722a.052.052 0 0 1-.027-.007l-1.506-.869a.055.055 0 0 1-.027-.047c0-.03.024-.054.054-.054.009 0 .019.002.027.007l1.506.869c.016.01.026.027.026.046a.055.055 0 0 1-.053.054v.001zm-2.458-6.716a.054.054 0 0 1-.054-.054V3.253a.055.055 0 0 1 .109 0v1.739c0 .03-.024.054-.054.054h-.001z" fill-rule="nonzero"/></svg>