<svg viewBox="0 0 68 55" xmlns="http://www.w3.org/2000/svg" fill-rule="evenodd" clip-rule="evenodd" stroke-linejoin="round" stroke-miterlimit="2"><path d="M33.539.111a.435.435 0 0 1 .328-.117.437.437 0 0 1 .283.113L65.887 18.43a.424.424 0 0 1 .159.161.423.423 0 0 1 .059.217v8.629l1.374.794a.442.442 0 0 1 .217.376v6.299c0 .142-.07.27-.177.349-.013.011-.027.02-.041.029L34.097 54.556a.427.427 0 0 1-.25.081v-.004a.435.435 0 0 1-.217-.058L.217 35.288A.435.435 0 0 1 0 34.805v-4.099-.021-2.099c0-.204.144-.378.335-.423l1.256-.726v-8.629a.433.433 0 0 1 .217-.377L33.539.111zM.869 34.66l32.87 18.978V50.06L.869 31.083v3.577zm33.087 15.403v3.571l32.87-18.978v-3.569l-32.87 18.976zm0-2.096v1.846l32.87-18.977v-1.849l-32.87 18.98zM.869 30.706v.126l32.87 18.977v-1.848L.869 28.984v1.681l.001.02-.001.021zm64.909-2.453v.354a.11.11 0 0 1-.026.071.133.133 0 0 1-.027.026l-31.819 18.37a.108.108 0 0 1-.058.014v.001a.102.102 0 0 1-.054-.015L1.972 28.702l-.004-.003a.107.107 0 0 1-.051-.092v-.354l-.939.543L33.85 47.775l32.87-18.978-.942-.544zm-.543-.666v-8.401L33.956 37.244v2.446l1.204-.695a.052.052 0 0 1 .027-.007c.03 0 .054.024.054.054 0 .019-.01.037-.027.047l-1.258.726v6.979L65.51 28.577l-1.373-.792a.055.055 0 0 1-.027-.047c0-.03.024-.054.054-.054.009 0 .019.002.027.007l1.37.791v-.355l-.093-.053-.022-.013a.435.435 0 0 1-.211-.474zm-54.873-3.842l-7.901-4.562v8.404a.435.435 0 0 1-.211.474l-.022.013-.094.054v.357l.066-.037a.052.052 0 0 1 .027-.007c.03 0 .054.024.054.054 0 .019-.01.037-.027.047l-.063.036 31.548 18.213v-6.976l-1.424-.822a.055.055 0 0 1-.027-.047c0-.03.024-.054.054-.054.009 0 .019.002.027.007l1.37.791v-2.448L10.47 23.808l-.69.398a.046.046 0 0 1-.028-.006l.001.013a.055.055 0 0 1-.047-.027.055.055 0 0 1 .02-.074l.636-.367zM35.94 38.66a.055.055 0 0 1-.053-.054c0-.019.01-.036.026-.046l1.506-.869a.052.052 0 0 1 .027-.007c.03 0 .054.024.054.054 0 .019-.01.037-.027.047l-1.506.869a.06.06 0 0 1-.026.007l-.001-.001zm-4.351-.091a.052.052 0 0 1-.027-.007l-1.506-.869a.055.055 0 0 1-.027-.047c0-.03.024-.054.054-.054.009 0 .019.002.027.007l1.506.869c.016.01.026.027.026.046a.055.055 0 0 1-.053.054v.001zm6.61-1.209a.055.055 0 0 1-.047-.027.055.055 0 0 1 .02-.074l1.506-.869a.052.052 0 0 1 .027-.007c.03 0 .054.024.054.054 0 .019-.01.037-.027.047l-1.506.869a.057.057 0 0 1-.026.003l-.001.004zm-8.869-.091a.052.052 0 0 1-.027-.007l-1.506-.869a.055.055 0 0 1-.027-.047c0-.03.024-.054.054-.054.009 0 .019.002.027.007l1.506.869c.016.01.026.027.026.046a.055.055 0 0 1-.053.054v.001zM33.794.968L2.57 18.995l8.009 4.625.653-.377a.052.052 0 0 1 .027-.007c.03 0 .054.024.054.054 0 .019-.01.037-.027.047l-.598.345 3.694 2.133V24.26a.055.055 0 0 1 .109 0v1.618l2.286 1.32 1.397-.807a.052.052 0 0 1 .027-.007c.03 0 .054.024.054.054 0 .019-.01.037-.027.047l-1.343.775 16.909 9.763v-1.581a.054.054 0 0 1 .109 0v1.583l19.302-11.144V24.26a.054.054 0 0 1 .109 0v1.558l11.814-6.821L33.903.969v1.415c0 .03-.024.054-.054.054l-.001.001a.054.054 0 0 1-.054-.054V.968zm6.664 35.092a.055.055 0 0 1-.053-.054c0-.019.01-.036.026-.046l1.506-.869a.052.052 0 0 1 .027-.007c.03 0 .054.024.054.054 0 .019-.01.037-.027.047l-1.506.869a.046.046 0 0 1-.026-.002l-.001.008zm-13.387-.091a.052.052 0 0 1-.027-.007l-1.506-.869a.055.055 0 0 1-.027-.047c0-.03.024-.054.054-.054.009 0 .019.002.027.007l1.506.87c.016.01.026.027.026.046a.055.055 0 0 1-.053.054zm15.646-1.209a.055.055 0 0 1-.053-.054c0-.019.01-.036.026-.046l1.506-.869a.052.052 0 0 1 .027-.007c.03 0 .054.024.054.054 0 .019-.01.037-.027.047l-1.506.869a.058.058 0 0 1-.026-.006l-.001.012zm-17.905-.091a.052.052 0 0 1-.027-.007l-1.506-.869a.055.055 0 0 1-.027-.047c0-.03.024-.054.054-.054.009 0 .019.002.027.007l1.506.87c.016.01.026.027.026.046a.055.055 0 0 1-.053.054zm9.036-.042a.054.054 0 0 1-.054-.054v-1.739a.054.054 0 0 1 .109 0v1.739a.055.055 0 0 1-.054.053l-.001.001zm11.128-1.167a.055.055 0 0 1-.053-.054c0-.019.01-.036.026-.046l1.506-.87a.052.052 0 0 1 .027-.007c.03 0 .054.024.054.054 0 .019-.01.037-.027.047l-1.506.869a.062.062 0 0 1-.026-.009l-.001.016zm-22.423-.091a.052.052 0 0 1-.027-.007l-1.506-.87a.055.055 0 0 1-.027-.047c0-.03.024-.054.054-.054.009 0 .019.002.027.007l1.506.869c.016.01.026.027.026.046a.055.055 0 0 1-.053.054v.002zm24.682-1.209a.055.055 0 0 1-.053-.054c0-.019.01-.036.026-.046l1.506-.87a.052.052 0 0 1 .027-.007c.03 0 .054.024.054.054 0 .019-.01.037-.027.047l-1.506.87a.053.053 0 0 1-.026-.015l-.001.021zm-26.941-.091a.052.052 0 0 1-.027-.007l-1.506-.869a.055.055 0 0 1-.027-.047c0-.03.024-.054.054-.054.009 0 .019.002.027.007l1.506.869c.016.01.026.027.026.046a.055.055 0 0 1-.053.054v.001zm13.554-.05a.054.054 0 0 1-.054-.054v-1.739a.054.054 0 0 1 .109 0v1.739a.055.055 0 0 1-.054.053l-.001.001zm15.646-1.159a.055.055 0 0 1-.047-.027.055.055 0 0 1 .02-.074l1.506-.869a.052.052 0 0 1 .027-.007c.03 0 .054.024.054.054 0 .019-.01.037-.027.047l-1.506.869a.058.058 0 0 1-.026-.018l-.001.025zm-31.459-.091a.052.052 0 0 1-.027-.007l-1.506-.869a.055.055 0 0 1-.027-.047c0-.03.024-.054.054-.054.009 0 .019.002.027.007l1.506.869c.016.01.026.027.026.046a.055.055 0 0 1-.053.054v.001zM33.794 7.495V5.862a.054.054 0 0 1 .109 0v1.634a.112.112 0 0 1 .024.019l.013.013 19.374 11.186a.107.107 0 0 1 .045.121.105.105 0 0 1-.045.069l-2.193 1.266 1.022.591c.016.01.026.027.026.046a.055.055 0 0 1-.053.054.052.052 0 0 1-.027-.007l-1.077-.621-6.085 3.513 1.378.795c.016.01.026.027.026.046a.055.055 0 0 1-.053.054v.001a.052.052 0 0 1-.027-.007l-1.432-.826-10.913 6.3a.108.108 0 0 1-.058.014.102.102 0 0 1-.054-.015l-17.106-9.876-.131.076a.06.06 0 0 1-.027-.02v.025a.055.055 0 0 1-.053-.054c0-.019.01-.036.026-.046l.076-.044-2.196-1.268a.117.117 0 0 1-.049-.095c0-.037.018-.071.049-.091L33.754 7.531l.01-.011a.103.103 0 0 1 .03-.025zm-10.65 16.213l10.707 6.182 10.707-6.181-10.707-6.182-10.707 6.181zm30.061 4.898v-1.738a.054.054 0 0 1 .109 0v1.739a.041.041 0 0 1-.003.016c.002.005.002.009.002.014 0 .019-.01.037-.027.047l-1.506.869a.051.051 0 0 1-.026-.022l-.001.029a.055.055 0 0 1-.053-.054c0-.019.01-.036.026-.046l1.479-.854zm-38.82.02a.058.058 0 0 1-.003-.019v-1.739a.055.055 0 0 1 .109 0v1.646l1.424-.822a.052.052 0 0 1 .027-.007c.03 0 .054.024.054.054 0 .019-.01.037-.027.047l-1.453.839 1.287.743c.016.01.026.027.026.046a.055.055 0 0 1-.053.054v.001a.052.052 0 0 1-.027-.007l-1.339-.773a.055.055 0 0 1-.027-.047l.002-.016zm38.67-.084a.052.052 0 0 1-.027-.007l-1.506-.869a.055.055 0 0 1-.027-.047c0-.03.024-.054.054-.054.009 0 .019.002.027.007l1.506.87c.016.01.026.027.026.046a.055.055 0 0 1-.053.054zm-50.079-.429a.055.055 0 0 1-.053-.054c0-.019.01-.036.026-.046l1.506-.869a.052.052 0 0 1 .027-.007c.03 0 .054.024.054.054 0 .019-.01.037-.027.047l-1.506.869a.063.063 0 0 1-.027.006zm60.435-.752a.052.052 0 0 1-.027-.007l-1.506-.869a.055.055 0 0 1-.027-.047c0-.03.024-.054.054-.054.009 0 .019.002.027.007l1.506.869a.056.056 0 0 1 .02.074.055.055 0 0 1-.047.022v.005zm-12.615-.119a.052.052 0 0 1-.027-.007l-1.506-.869a.055.055 0 0 1-.027-.047c0-.03.024-.054.054-.054.009 0 .019.002.027.007l1.506.87c.016.01.026.027.026.046a.055.055 0 0 1-.053.054zm-45.561-.429a.055.055 0 0 1-.053-.054c0-.019.01-.036.026-.046l1.506-.869a.052.052 0 0 1 .027-.007c.03 0 .054.024.054.054 0 .019-.01.037-.027.047l-1.506.869a.05.05 0 0 1-.027.002v.004zm55.917-.752a.052.052 0 0 1-.027-.007l-1.506-.87a.055.055 0 0 1-.027-.047c0-.03.024-.054.054-.054.009 0 .019.002.027.007l1.506.869a.055.055 0 0 1 .02.074.053.053 0 0 1-.047.019v.009zm-42.198 0a.055.055 0 0 1-.053-.054c0-.019.01-.036.026-.046l1.506-.87a.052.052 0 0 1 .027-.007c.03 0 .054.024.054.054 0 .019-.01.037-.027.047l-1.506.869a.05.05 0 0 1-.027-.001v.008zm29.583-.119a.052.052 0 0 1-.027-.007l-1.506-.869a.055.055 0 0 1-.027-.047c0-.03.024-.054.054-.054.009 0 .019.002.027.007l1.506.869c.016.01.026.027.026.046a.055.055 0 0 1-.053.054v.001zm-41.043-.429a.055.055 0 0 1-.053-.054c0-.019.01-.036.026-.046l1.506-.869A.052.052 0 0 1 9 24.537c.03 0 .054.024.054.054 0 .019-.01.037-.027.047l-1.506.869a.063.063 0 0 1-.027-.003v.009zm51.399-.752a.052.052 0 0 1-.027-.007l-1.506-.869a.055.055 0 0 1-.027-.047c0-.03.024-.054.054-.054.009 0 .019.002.027.007l1.506.869c.016.01.026.027.026.046a.055.055 0 0 1-.053.054v.001zm-37.68 0a.055.055 0 0 1-.053-.054c0-.019.01-.036.026-.046l1.506-.869a.052.052 0 0 1 .027-.007c.03 0 .054.024.054.054 0 .019-.01.037-.027.047l-1.506.869a.058.058 0 0 1-.026-.006l-.001.012zm29.69-4.716l2.141-1.236-19.088-11.02v2.506l.115.065c.016.01.026.027.026.046a.055.055 0 0 1-.053.054v.001a.052.052 0 0 1-.027-.007l-.061-.034v6.917l10.819 6.246 6.02-3.476-.212-.122a.055.055 0 0 1-.027-.047c0-.03.024-.054.054-.054.009 0 .019.002.027.007l.266.154zm-17.164-9.753V7.791L14.656 18.808l2.141 1.236 1.212-.7a.052.052 0 0 1 .027-.007c.03 0 .054.024.054.054 0 .019-.01.037-.027.047l-1.157.669 6.021 3.476 10.812-6.242v-6.924l-1.369.79a.052.052 0 0 1-.027-.043v-.006.055a.055.055 0 0 1-.053-.054c0-.019.01-.036.026-.046l1.423-.821zm22.895 13.169a.052.052 0 0 1-.027-.007l-1.506-.869a.055.055 0 0 1-.027-.047c0-.03.024-.054.054-.054.009 0 .019.002.027.007l1.506.869c.016.01.026.027.026.046a.055.055 0 0 1-.053.054v.001zm-3.375-.016a.054.054 0 0 1-.054-.054v-1.739a.054.054 0 0 1 .109 0v1.739a.055.055 0 0 1-.054.053h-.001v.001zm-38.823 0a.054.054 0 0 1-.054-.054v-1.739a.054.054 0 0 1 .109 0v1.739a.055.055 0 0 1-.054.053h-.001v.001zm-2.424-.532a.055.055 0 0 1-.053-.054c0-.019.01-.036.026-.046l1.506-.87a.052.052 0 0 1 .027-.007c.03 0 .054.024.054.054 0 .019-.01.037-.027.047l-1.506.87a.054.054 0 0 1-.027-.011v.017zm42.363-.752a.052.052 0 0 1-.027-.007l-1.506-.869a.055.055 0 0 1-.027-.047c0-.03.024-.054.054-.054.009 0 .019.002.027.007l1.506.869c.016.01.026.027.026.046a.055.055 0 0 1-.053.054v.001zm-40.104-.548a.055.055 0 0 1-.047-.027.055.055 0 0 1 .02-.074l1.506-.87a.052.052 0 0 1 .027-.007c.03 0 .054.024.054.054 0 .019-.01.037-.027.047l-1.506.869a.057.057 0 0 1-.027-.013v.021zm.165-.776a.054.054 0 0 1-.054-.054v-1.739a.054.054 0 0 1 .109 0v1.739a.054.054 0 0 1-.055.052v.002zm38.823 0a.054.054 0 0 1-.054-.054v-1.739a.054.054 0 0 1 .109 0v1.739a.054.054 0 0 1-.055.052v.002zm-3.402-1.276a.052.052 0 0 1-.027-.007l-1.506-.869a.055.055 0 0 1-.027-.047c0-.03.024-.054.054-.054.009 0 .019.002.027.007l1.506.869a.055.055 0 0 1 .02.074.058.058 0 0 1-.048-.003l.001.03zm-31.068-.548a.055.055 0 0 1-.053-.054c0-.019.01-.036.026-.046l1.506-.869a.052.052 0 0 1 .027-.007c.03 0 .054.024.054.054 0 .019-.01.037-.027.047l-1.506.869a.053.053 0 0 1-.027-.024v.03zm28.809-.752a.052.052 0 0 1-.027-.007l-1.506-.869a.055.055 0 0 1-.027-.047c0-.03.024-.054.054-.054.009 0 .019.002.027.007l1.506.869c.016.01.026.027.026.046a.055.055 0 0 1-.053.054v.001zm-26.55-.548a.055.055 0 0 1-.053-.054c0-.019.01-.036.026-.046l1.506-.869a.052.052 0 0 1 .027-.007c.03 0 .054.024.054.054 0 .019-.01.037-.027.047l-1.506.869a.057.057 0 0 1-.027-.028v.034zm24.291-.752a.052.052 0 0 1-.027-.007l-1.506-.869a.055.055 0 0 1-.027-.047c0-.03.024-.054.054-.054.009 0 .019.002.027.007l1.506.869c.016.01.026.027.026.046a.055.055 0 0 1-.053.054v.001zm-22.032-.548a.055.055 0 0 1-.053-.054c0-.019.01-.036.026-.046l1.506-.869a.052.052 0 0 1 .027-.007c.03 0 .054.024.054.054 0 .019-.01.037-.027.047l-1.506.869a.053.053 0 0 1-.027-.032v.038zm19.773-.752a.052.052 0 0 1-.027-.007l-1.506-.869a.055.055 0 0 1-.027-.047c0-.03.024-.054.054-.054.009 0 .019.002.027.007l1.506.869c.016.01.026.027.026.046a.055.055 0 0 1-.053.054v.001zm-17.514-.548a.055.055 0 0 1-.047-.027.055.055 0 0 1 .02-.074l1.506-.869a.052.052 0 0 1 .027-.007c.03 0 .054.024.054.054 0 .019-.01.037-.027.047l-1.506.87a.052.052 0 0 1-.027-.036v.042zm15.255-.752a.052.052 0 0 1-.027-.007l-1.506-.869a.055.055 0 0 1-.027-.047c0-.03.024-.054.054-.054.009 0 .019.002.027.007l1.506.869c.016.01.026.027.026.046a.055.055 0 0 1-.053.054v.001zm-12.996-.548a.055.055 0 0 1-.053-.054c0-.019.01-.036.026-.046l1.506-.869a.052.052 0 0 1 .027-.007c.03 0 .054.024.054.054 0 .019-.01.037-.027.047l-1.506.869a.056.056 0 0 1-.027-.041v.047zm10.737-.752a.052.052 0 0 1-.027-.007l-1.506-.87a.055.055 0 0 1-.027-.047c0-.03.024-.054.054-.054.009 0 .019.002.027.007l1.506.87c.016.01.026.027.026.046a.055.055 0 0 1-.053.054v.001zm-8.478-.548a.055.055 0 0 1-.053-.054c0-.019.01-.036.026-.046l1.506-.87a.052.052 0 0 1 .027-.007c.03 0 .054.024.054.054 0 .019-.01.037-.027.047l-1.506.869a.054.054 0 0 1-.028-.044l.001.051zm6.219-.752a.052.052 0 0 1-.027-.007l-1.506-.869a.055.055 0 0 1-.027-.047c0-.03.024-.054.054-.054.009 0 .019.002.027.007l1.506.869c.016.01.026.027.026.046a.055.055 0 0 1-.053.054v.001zm-2.455-6.714a.054.054 0 0 1-.054-.054v-1.74a.054.054 0 0 1 .109 0v1.739c0 .03-.024.054-.054.054h-.001v.001z" fill-rule="nonzero"/></svg>