<?xml version="1.0" encoding="UTF-8" standalone="no"?>
<!DOCTYPE svg PUBLIC "-//W3C//DTD SVG 1.1//EN" "http://www.w3.org/Graphics/SVG/1.1/DTD/svg11.dtd">
<svg width="100%" height="100%" viewBox="0 0 45 50" version="1.1" xmlns="http://www.w3.org/2000/svg" xmlns:xlink="http://www.w3.org/1999/xlink" xml:space="preserve" style="fill-rule:evenodd;clip-rule:evenodd;stroke-linejoin:round;stroke-miterlimit:2;">
    <path d="M22.15,50l0,-35.269l21.979,-7.331l0,35.269l-21.979,7.331Zm-0.171,0l-21.979,-7.331l0,-35.269l21.979,7.331l0,35.269Zm0.671,-0.694l20.979,-6.997l0,-34.215l-20.979,6.998l0,34.214Zm-1.171,0l0,-34.214l-20.979,-6.998l0,34.215l20.979,6.997Zm7.696,-15.372l0,8.435l-5.425,1.809l0,-8.434l5.425,-1.81Zm-14.261,-0.023l5.426,1.809l0,8.434l-5.426,-1.809l0,-8.434Zm13.761,0.717l-4.425,1.476l0,7.38l4.425,-1.476l0,-7.38Zm-13.261,-0.024l0,7.381l4.426,1.476l0,-7.381l-4.426,-1.476Zm20.399,-2.884l0,8.435l-5.425,1.809l0,-8.434l5.425,-1.81Zm-27.536,-0.023l5.425,1.809l0,8.434l-5.425,-1.809l0,-8.434Zm27.036,0.717l-4.425,1.476l0,7.38l4.425,-1.476l0,-7.38Zm-26.536,-0.024l0,7.38l4.425,1.477l0,-7.381l-4.425,-1.476Zm33.674,-2.884l0,8.434l-5.425,1.81l0,-8.434l5.425,-1.81Zm-40.812,-0.024l5.425,1.81l0,8.434l-5.425,-1.809l0,-8.435Zm40.312,0.718l-4.425,1.476l0,7.38l4.425,-1.476l0,-7.38Zm-39.812,-0.024l0,7.38l4.425,1.476l0,-7.38l-4.425,-1.476Zm21.65,-4.045l0,-0.005l5.425,-1.81l0,8.435l-0.039,0.013l0,0.005l-5.425,1.809l0,-8.434l0.039,-0.013Zm-8.875,-1.797l0,-0.018l5.426,1.81l0,8.434l0,0l0,0.018l-5.426,-1.809l0,-8.435l0,0Zm15.513,-0.417l0,-0.005l5.425,-1.81l0,8.435l-0.039,0.013l0,0.005l-5.425,1.809l0,-8.434l0.039,-0.013Zm-16.725,8.447l-5.425,-1.81l0,-8.434l0,0l0,-0.018l5.425,1.81l0,8.452Zm23.362,-10.661l0,-0.005l5.426,-1.81l0,8.435l-0.039,0.013l0,0.004l-5.425,1.81l0,-8.434l0.038,-0.013Zm-35.425,-1.797l0,-0.018l5.425,1.81l0,8.434l0,0l0,0.018l-5.425,-1.81l0,-8.434l0,0Zm13.275,-5.184l5.426,1.81l0,8.434l-5.426,-1.809l0,-8.435Zm14.3,0l0,8.435l-5.425,1.809l0,-8.434l5.425,-1.81Zm-0.5,0.694l-4.425,1.476l0,7.38l4.425,-1.476l0,-7.38Zm-13.3,0l0,7.38l4.426,1.476l0,-7.38l-4.426,-1.476Zm-7.137,-2.908l5.425,1.81l0,8.434l-5.425,-1.81l0,-8.434Zm27.575,0l0,8.434l-5.425,1.81l0,-8.434l5.425,-1.81Zm-0.5,0.694l-4.425,1.476l0,7.38l4.425,-1.476l0,-7.38Zm-26.575,0l0,7.38l4.425,1.476l0,-7.38l-4.425,-1.476Zm33.713,-2.908l0,8.434l-5.426,1.81l0,-8.434l5.426,-1.81Zm-40.851,0l5.425,1.81l0,8.434l-5.425,-1.81l0,-8.434Zm40.351,0.694l-4.426,1.476l0,7.38l4.426,-1.476l0,-7.38Zm-39.851,0l0,7.38l4.425,1.476l0,-7.38l-4.425,-1.476Zm19.925,3.607l-21.905,-7.297l21.905,-7.298l21.905,7.298l-21.905,7.297Zm0,-0.527l20.323,-6.77l-20.323,-6.771l-20.323,6.771l20.323,6.77Z" style="fill-rule:nonzero;"/>
</svg>
