<?xml version="1.0" encoding="UTF-8" standalone="no"?>
<!DOCTYPE svg PUBLIC "-//W3C//DTD SVG 1.1//EN" "http://www.w3.org/Graphics/SVG/1.1/DTD/svg11.dtd">
<svg width="100%" height="100%" viewBox="0 0 45 50" version="1.1" xmlns="http://www.w3.org/2000/svg" xmlns:xlink="http://www.w3.org/1999/xlink" xml:space="preserve" style="fill-rule:evenodd;clip-rule:evenodd;stroke-linejoin:round;stroke-miterlimit:2;">
    <path d="M22.15,50l0,-35.269l21.979,-7.331l0,35.269l-21.979,7.331Zm-0.171,0l-21.979,-7.331l0,-35.269l21.979,7.331l0,35.269Zm-0.5,-0.694l0,-34.214l-20.979,-6.998l0,34.215l20.979,6.997Zm1.171,0l20.979,-6.997l0,-34.215l-20.979,6.998l0,34.214Zm1.139,-13.575l0,-0.011l5.425,-1.809l0,8.434l-0.039,0.013l0,0.011l-5.425,1.809l0,-8.434l0.039,-0.013Zm-8.875,-1.797l0,-0.023l5.426,1.809l0,8.434l0,0l0,0.024l-5.426,-1.809l0,-8.435l0,0Zm20.283,-2.008l0.616,-0.206l0,8.435l-5.425,1.809l0,-8.434l0.384,-0.128l-0.004,-0.01l4.426,-1.476l0.003,0.01Zm-21.495,10.038l-5.425,-1.81l0,-8.434l0,0l0,-0.023l5.425,1.809l0,8.458Zm23.362,-10.661l0,-0.011l5.426,-1.81l0,8.435l-0.039,0.013l0,0.01l-5.425,1.81l0,-8.434l0.038,-0.013Zm-35.425,-1.797l0,-0.024l5.425,1.81l0,8.434l0,0l0,0.024l-5.425,-1.81l0,-8.434l0,0Zm22.15,-3.375l0,-0.005l5.425,-1.81l0,8.435l-0.039,0.013l0,0.005l-5.425,1.809l0,-8.434l0.039,-0.013Zm-8.875,-1.797l0,-0.018l5.426,1.81l0,8.434l0,0l0,0.018l-5.426,-1.809l0,-8.435l0,0Zm15.513,-0.417l0,-0.005l5.425,-1.81l0,8.435l-0.039,0.013l0,0.005l-5.425,1.809l0,-8.434l0.039,-0.013Zm-16.725,8.447l-5.425,-1.81l0,-8.434l0,0l0,-0.018l5.425,1.81l0,8.452Zm23.362,-10.661l0,-0.005l5.426,-1.81l0,8.435l-0.039,0.013l0,0.004l-5.425,1.81l0,-8.434l0.038,-0.013Zm-35.425,-1.797l0,-0.018l5.425,1.81l0,8.434l0,0l0,0.018l-5.425,-1.81l0,-8.434l0,0Zm27.536,-5.171l0.039,-0.013l0,8.435l-5.425,1.809l0,-0.013l-0.039,0.013l0,-8.434l5.425,-1.81l0,0.013Zm-14.261,-0.013l0,0l5.426,1.81l0,8.434l0,0l0,0l-1.81,-0.604l-3.616,-1.205l0,0l0,0l0,-8.435l0,0Zm20.899,-2.201l0.039,-0.013l0,8.434l-5.425,1.81l0,-0.013l-0.039,0.013l0,-8.434l5.425,-1.81l0,0.013Zm-26.179,8.874l-1.357,-0.453l0,-8.434l0,0l0,0l5.425,1.81c0,0 0,8.434 0,8.434l-4.068,-1.357Zm32.817,-11.088l0.039,-0.013l0,8.434l-5.426,1.81l0,-0.013l-0.038,0.013l0,-8.434l5.425,-1.81l0,0.013Zm-37.193,1.194l1.806,0.603c0,0 0,0 0,0l0,8.434l0,0l0,0l-5.425,-1.81l0,-8.434l0,0l0,0l3.619,1.207Zm16.806,3.094l-21.905,-7.297l21.905,-7.298l21.905,7.298l-21.905,7.297Zm0,-0.527l20.323,-6.77l-20.323,-6.771l-20.323,6.771l20.323,6.77Z" style="fill-rule:nonzero;"/>
</svg>
