<?xml version="1.0" encoding="UTF-8" standalone="no"?>
<!DOCTYPE svg PUBLIC "-//W3C//DTD SVG 1.1//EN" "http://www.w3.org/Graphics/SVG/1.1/DTD/svg11.dtd">
<svg width="100%" height="100%" viewBox="0 0 48 70" version="1.1" xmlns="http://www.w3.org/2000/svg" xmlns:xlink="http://www.w3.org/1999/xlink" xml:space="preserve" style="fill-rule:evenodd;clip-rule:evenodd;stroke-linejoin:round;stroke-miterlimit:2;">
    <path id="Path_2208" d="M22.813,68.771l-22.33,-13.171c-0.274,-0.165 -0.433,-0.454 -0.447,-0.754c-0.022,-0.042 -0.034,-0.086 -0.034,-0.131l0,-40.426c-0.005,-0.037 -0.007,-0.075 -0.007,-0.114c0,-0.039 0.002,-0.077 0.007,-0.114l0,-0.315c0,-0.21 0.258,-0.389 0.618,-0.451l22.754,-13.132c0.146,-0.102 0.323,-0.162 0.513,-0.162c0.158,0 0.313,0.041 0.45,0.12l22.365,12.91c0.358,0.062 0.614,0.238 0.614,0.446l0,40.557c0,0.009 0,0.017 -0.001,0.026c0.077,0.383 -0.085,0.793 -0.432,1.01l-22.983,13.847c-0.135,0.083 -0.291,0.127 -0.45,0.128c-0.244,-0.002 -0.472,-0.104 -0.637,-0.274Zm0.843,-41.461l0,39.582l6.868,-4.139l-0.001,-39.408l-6.867,3.965Zm-1.31,-0.495l-20.544,-11.861l0,39.305l20.544,12.117l0,-1.46c0,-0.038 0.05,-0.069 0.113,-0.069c0.063,0 0.113,0.031 0.113,0.069l0,1.594l0.634,0.374l0,-39.572l-0.634,-0.366l0,0.569c-0.001,-0.014 -0.052,0.015 -0.113,0.015l0,0.055c-0.062,0 -0.113,-0.031 -0.113,-0.069l0,-0.701Zm0.113,37.07c-0.062,0 -0.113,-0.031 -0.113,-0.069l0,-2.2c0,-0.038 0.05,-0.069 0.113,-0.069c0.063,0 0.113,0.031 0.113,0.069l0,2.2c0.001,0.034 -0.051,0.064 -0.113,0.064l0,0.005Zm0,-3.3c-0.062,0 -0.113,-0.031 -0.113,-0.069l0,-2.2c0,-0.038 0.05,-0.069 0.113,-0.069c0.063,0 0.113,0.031 0.113,0.069l0,2.2c0.001,0.029 -0.051,0.06 -0.113,0.06l0,0.009Zm0,-3.3c-0.062,0 -0.113,-0.031 -0.113,-0.069l0,-2.2c0,-0.038 0.05,-0.069 0.113,-0.069c0.063,0 0.113,0.031 0.113,0.069l0,2.2c0.001,0.024 -0.051,0.055 -0.113,0.055l0,0.014Zm18.235,-39.813l-0.541,39.479l5.363,-3.232l0,-39.031l-4.822,2.784Zm-18.235,36.513c-0.062,0 -0.113,-0.031 -0.113,-0.069l0,-2.2c0,-0.038 0.05,-0.069 0.113,-0.069c0.063,0 0.113,0.031 0.113,0.069l0,2.2c0.001,0.02 -0.051,0.051 -0.113,0.051l0,0.018Zm0,-3.3c-0.062,0 -0.113,-0.031 -0.113,-0.069l0,-2.2c0,-0.038 0.05,-0.069 0.113,-0.069c0.063,0 0.113,0.031 0.113,0.069l0,2.2c0.001,0.015 -0.051,0.045 -0.113,0.045l0,0.024Zm0,-3.3c-0.062,0 -0.113,-0.031 -0.113,-0.069l0,-2.2c0,-0.038 0.05,-0.069 0.113,-0.069c0.063,0 0.113,0.031 0.113,0.069l0,2.2c0.001,0.011 -0.051,0.045 -0.113,0.045l0,0.024Zm0,-3.3c-0.062,0 -0.113,-0.031 -0.113,-0.069l0,-2.2c0,-0.038 0.05,-0.069 0.113,-0.069c0.063,0 0.113,0.031 0.113,0.069l0,2.2c0.001,0.006 -0.051,0.037 -0.113,0.037l0,0.032Zm0,-3.3c-0.062,0 -0.113,-0.031 -0.113,-0.069l0,-2.2c0,-0.038 0.05,-0.069 0.113,-0.069c0.063,0 0.113,0.031 0.113,0.069l0,2.2c0.001,0.002 -0.051,0.033 -0.113,0.033l0,0.036Zm0.113,-3.369c-0.001,-0.002 -0.052,0.028 -0.113,0.028l0,0.041c-0.062,0 -0.113,-0.031 -0.113,-0.069l0,-2.2c0,-0.038 0.05,-0.069 0.113,-0.069c0.063,0 0.113,0.031 0.113,0.069l0,2.2Zm0,-3.3c-0.001,-0.006 -0.052,0.024 -0.113,0.024l0,0.045c-0.062,0 -0.113,-0.031 -0.113,-0.069l0,-2.2c0,-0.038 0.05,-0.069 0.113,-0.069c0.063,0 0.113,0.031 0.113,0.069l0,2.2Zm0,-3.301c-0.001,-0.01 -0.052,0.02 -0.113,0.02l0,0.05c-0.062,0 -0.113,-0.031 -0.113,-0.069l0,-2.2c0,-0.038 0.05,-0.069 0.113,-0.069c0.063,0 0.113,0.031 0.113,0.069l0,2.199Zm17.807,-13.681l4.909,-2.835l-21.396,-12.354l-21.86,12.621l20.314,11.728l0,-0.978c0,-0.038 0.05,-0.069 0.113,-0.069c0.063,0 0.113,0.031 0.113,0.069l0,1.109l0.857,0.495l6.761,-3.904l-8.246,-5.443l10.239,-5.78l8.196,5.341Zm-17.914,4.813c0.06,0.002 0.107,0.032 0.107,0.069l0,2.199c-0.001,-0.019 -0.052,0.011 -0.113,0.011l0,0.059c-0.062,0 -0.113,-0.031 -0.113,-0.069l0,-2.2c0,-0.038 0.05,-0.069 0.113,-0.069l0.006,0Zm0,-3.3c0.06,0.002 0.107,0.032 0.107,0.069l0,2.199c-0.001,-0.023 -0.052,0.006 -0.113,0.006l0,0.064c-0.062,0 -0.113,-0.031 -0.113,-0.069l0,-2.2c0,-0.038 0.05,-0.069 0.113,-0.069l0.006,0Z" style="fill-rule:nonzero;"/>
</svg>
