<svg viewBox="0 0 50 50" xmlns="http://www.w3.org/2000/svg" fill-rule="evenodd" clip-rule="evenodd" stroke-linejoin="round" stroke-miterlimit="2"><path d="M25.162.001c.141 0 .282.002.422.006l.061.001.16.005a25.052 25.052 0 0 1 2.042.148l.022.002c.202.023.403.049.603.077l.022.003.156.022C40.719 2.033 50 12.441 50 25c0 13.798-11.202 25-25 25S0 38.798 0 25l.001-.162C.057 15.958 4.753 8.17 11.784 3.78l.128-.08.129-.079.129-.077.129-.078.116-.067a25.036 25.036 0 0 1 2.988-1.488c.144-.06.289-.118.434-.176a23.364 23.364 0 0 1 1.784-.626l.095-.03.147-.044.148-.043.042-.012a24.642 24.642 0 0 1 4.392-.851l.158-.015.05-.005a25.38 25.38 0 0 1 2.185-.108L25 0l.162.001zM1 25c0 13.246 10.754 24 24 24s24-10.754 24-24H1z"/></svg>