<svg viewBox="0 0 50 50" xmlns="http://www.w3.org/2000/svg" fill-rule="evenodd" clip-rule="evenodd" stroke-linejoin="round" stroke-miterlimit="2"><path d="M25 0C11.202 0 0 11.202 0 25s11.202 25 25 25 25-11.202 25-25S38.798 0 25 0zm0 1c13.246 0 24 10.754 24 24S38.246 49 25 49 1 38.246 1 25 11.754 1 25 1z"/><path d="M25.179 49.999L25 50l-.179-.001L25 50l.179-.001zm.144-.001l-.087.001.123-.002-.036.001zm-.682-.001l.123.002-.087-.001-.036-.001zm.843-.002l-.059.001.115-.002-.056.001zm-1.024-.001l.115.002-.059-.001-.056-.001zm1.185-.002l-.038.001.119-.004-.081.003zm-1.371-.003l.119.004-.038-.001-.081-.003zm1.531-.002l-.019.001.158-.006-.139.005zm-1.749-.005l.158.006-.019-.001-.139-.005zm-.197-.008l.178.008-.178-.008zm2.282 0l-.178.008.178-.008zm-2.459-.008l.123.006-.091-.005-.032-.001zm2.604.001l-.091.005.123-.006-.032.001zm-2.784-.011l.114.006-.061-.003-.053-.003zm2.943.003l-.061.003.114-.006-.053.003zm-3.126-.015l.117.008-.041-.003-.076-.005zm3.286.005l-.041.003.117-.008-.076.005zm-3.492-.019l.145.01-.022-.001-.123-.009zm3.651.009l-.022.001.145-.01-.123.009zm.329-.026l-.175.014.175-.014zm-4.186 0l.175.014-.175-.014zm4.332-.012l-.095.008.125-.011-.03.003zm-4.508-.003l.125.011-.095-.008-.03-.003zm-.177-.016l.113.01-.064-.006-.049-.004zm4.843.004l-.064.006.113-.01-.049.004zm-5.023-.023l.114.012-.043-.004-.071-.008zm5.181.008l-.043.004.114-.012-.071.008zm-5.377-.029l.134.015-.024-.003-.11-.012zm5.534.012l-.024.003.134-.015-.11.012zm-5.747-.037l.173.021-.173-.021zm6.07 0l-.173.021.173-.021zm-6.244-.021l.127.015-.1-.012-.027-.003zm6.391.003l-.1.012.127-.015-.027.003zm-6.565-.027l.111.015-.066-.008-.045-.007zm6.721.007l-.066.008.111-.015-.045.007zm-6.899-.031l.111.015-.044-.006-.067-.009zm7.055.009l-.044.006.111-.015-.067.009zm-7.243-.037l.125.019-.026-.004-.099-.015zm7.399.015l-.026.004.125-.019-.099.015zm-7.617-.049l.171.027-.171-.027zm7.934 0l-.171.027.171-.027zm-8.105-.028l.128.021-.105-.017-.023-.004zm8.253.004l-.105.017.128-.021-.023.004zm-8.425-.033l.109.019-.068-.012-.041-.007zm8.579.007l-.068.012.109-.019-.041.007zm-8.753-.038l.107.019-.046-.008-.061-.011zm8.907.011l-.046.008.107-.019-.061.011zm-9.09-.045l.118.022-.028-.005-.09-.017zm9.244.017l-.028.005.118-.022-.09.017zm-9.464-.059l.167.032-.167-.032zm9.774 0l-.167.032.167-.032zm-9.943-.034l.13.026-.13-.026zm10.112 0l-.13.026.13-.026zm-10.281-.036l.106.022-.069-.014-.037-.008zm10.413.008l-.069.014.106-.022-.037.008zm-10.584-.045l.103.022-.047-.01-.056-.012zm10.736.012l-.047.01.103-.022-.056.012zm-10.913-.052l.11.025-.029-.006-.081-.019zm11.065.019l-.029.006.11-.025-.081.019zm-11.287-.07l.164.038-.164-.038zm11.59 0l-.164.038.164-.038zm-11.756-.04l.13.031-.114-.027-.016-.004zm11.906.004l-.114.027.13-.031-.016.004zm-12.073-.046l.103.026-.07-.018-.033-.008zm12.223.008l-.07.018.103-.026-.033.008zm-12.391-.051l.099.025-.048-.012-.051-.013zm12.541.013l-.048.012.099-.025-.051.013zm-12.712-.058l.102.027-.029-.008-.073-.019zm12.861.019l-.029.008.102-.027-.073.019zm-13.064-.074l.139.038-.013-.004-.126-.034zm13.214.034l-.013.004.139-.038-.126.034zm-13.398-.086l.131.037-.118-.033-.013-.004zm13.695.004l-.118.033.131-.037-.013.004zM17.982 49l.098.028-.069-.02-.029-.008zm14.007.008l-.069.02.098-.028-.029.008zm-14.171-.057l.093.028-.048-.014-.045-.014zm14.319.014l-.048.014.093-.028-.045.014zm-14.486-.064l.095.028-.03-.008-.065-.02zm14.633.02l-.03.008.095-.028-.065.02zm-14.815-.077l.114.035-.014-.004-.1-.031zm14.962.031l-.014.004.114-.035-.1.031zm-15.164-.096l.132.043-.123-.04-.009-.003zm15.457.003l-.123.04.132-.043-.009.003zm-15.618-.056l.092.03-.067-.022-.025-.008zm15.763.008l-.067.022.092-.03-.025.008zm-15.924-.062l.087.029-.047-.015-.04-.014zm16.07.014l-.047.015.087-.029-.04.014zm-16.232-.07l.087.03-.03-.01-.057-.02zm16.377.02l-.03.01.087-.03-.057.02zm-16.546-.08l.096.034-.014-.005-.082-.029zm16.69.029l-.014.005.096-.034-.082.029zm-16.902-.105l.133.048-.127-.046-.006-.002zm17.19.002l-.127.046.133-.048-.006.002zm-17.348-.061l.085.032-.064-.024-.021-.008zm17.491.008l-.064.024.085-.032-.021.008zm-17.648-.067l.08.03-.045-.017-.035-.013zm17.791.013l-.045.017.08-.03-.035.013zm-17.949-.074l.079.031-.029-.012-.05-.019zm18.092.019l-.029.012.079-.031-.05.019zm-18.252-.082l.082.032-.014-.005-.068-.027zm18.394.027l-.014.005.082-.032-.068.027zm-18.612-.115l.14.057-.137-.056-.003-.001zm18.895.001l-.137.056.14-.057-.003.001zm-19.049-.065l.076.032-.06-.025-.016-.007zm19.19.007l-.06.025.076-.032-.016.007zm-19.344-.072l.073.031-.043-.018-.03-.013zm19.484.013l-.043.018.073-.031-.03.013zm-19.637-.078l.071.03-.028-.012-.043-.018zm19.777.018l-.028.012.071-.03-.043.018zm-19.93-.085l.071.031-.015-.006-.056-.025zm20.07.025l-.015.006.071-.031-.056.025zm-20.199-.082l.047.021-.047-.021zm20.384 0l-.047.021.047-.021zm-20.627-.111l.066.031-.054-.025-.012-.006zm20.858.006l-.054.025.066-.031-.012.006zm-21.008-.075l.065.03-.04-.019-.025-.011zm21.145.011l-.04.019.065-.03-.025.011zm-21.295-.082l.065.03-.028-.012-.037-.018zm21.433.018l-.028.012.065-.03-.037.018zm-21.579-.088l.06.029-.014-.007-.046-.022zm21.716.022l-.014.007.06-.029-.046.022zm-21.823-.074l.018.008-.018-.008zm21.976 0l-.018.008.018-.008zm-22.239-.131l.053.026-.044-.022-.009-.004zm22.493.004l-.044.022.053-.026-.009.004zm-22.639-.079l.057.029-.037-.019-.02-.01zm22.774.01l-.037.019.057-.029-.02.01zm-22.92-.085l.057.029-.026-.013-.031-.016zm23.055.016l-.026.013.057-.029-.031.016zm-23.196-.091l.052.028-.014-.007-.038-.021zm23.33.021l-.014.007.052-.028-.038.021zm-23.436-.077l.011.006-.011-.006zm23.58 0l-.011.006.011-.006zm-23.84-.141l.036.019-.036-.019zm24.1 0l-.036.019.036-.019zm-24.243-.08l.049.027-.033-.018-.016-.009zm24.37.009l-.033.018.049-.027-.016.009zm-24.511-.089l.049.028-.024-.013-.025-.015zm24.643.015l-.024.013.049-.028-.025.015zm-24.78-.094l.044.026-.013-.007-.031-.019zm24.911.019l-.013.007.044-.026-.031.019zm-25.018-.081l.008.006-.008-.006zm25.156 0l-.008.006.008-.006zm-25.41-.149l.014.008-.014-.008zm25.664 0l-.014.008.014-.008zm-25.803-.085l.04.025-.028-.017-.012-.008zm25.93.008l-.028.017.04-.025-.012.008zm-26.068-.092l.043.026-.022-.013-.021-.013zm26.197.013l-.022.013.043-.026-.021.013zm-26.33-.096l.038.024-.012-.008-.026-.016zm26.458.016l-.012.008.038-.024-.026.016zm-26.566-.084l.007.005-.007-.005zm26.7 0l-.007.005.007-.005zm-27.082-.247l.032.021-.032-.021zm27.464 0l-.032.021.032-.021zM11.134 45.8l.037.025-.02-.013-.017-.012zm27.715.012l-.02.013.037-.025-.017.012zm-27.844-.099l.032.022-.011-.007-.021-.015zm27.969.015l-.011.007.032-.022-.021.015zm-28.078-.089l.007.005-.007-.005zm28.208 0l-.007.005.007-.005zm-28.578-.258l.024.017-.024-.017zm28.948 0l-.024.017.024-.017zm-29.078-.094l.032.023-.018-.012-.014-.011zm29.194.011l-.018.012.032-.023-.014.011zm-29.321-.102l.03.021-.03-.021zm29.462 0l-.03.021.03-.021zm-29.571-.081l.008.006-.008-.006zm29.68 0l-.008.006.008-.006zm-30.037-.268l.016.012-.016-.012zm30.394 0l-.016.012.016-.012zm-30.521-.099l.028.022-.028-.022zm30.648 0l-.028.022.028-.022zm-30.771-.096l.027.021-.027-.021zm30.894 0l-.027.021.027-.021zm-31.004-.087l.011.009-.011-.009zm31.114 0l-.011.009.011-.009zM9.1 44.287l.009.008-.009-.008zm31.8 0l-.009.008.009-.008zm-31.924-.103l.026.022-.026-.022zm32.048 0l-.026.022.026-.022zm-32.169-.102l.028.023-.028-.023zm32.29 0l-.028.023.028-.023zm-32.4-.094l.015.013-.015-.013zm32.51 0l-.015.013.015-.013zm-32.838-.286l.005.005-.005-.005zm33.166 0l-.005.005.005-.005zm-33.287-.108l.026.024-.026-.024zm33.408 0l-.026.024.026-.024zm-33.526-.106l.029.026-.013-.012-.016-.014zm33.628.014l-.013.012.029-.026-.016.014zm-33.738-.116l.021.02-.021-.02zm33.864 0l-.021.02.021-.02zm-34.178-.293l.005.005-.005-.005zm34.492 0l-.005.005.005-.005zM7.637 42.98l.029.028-.019-.018-.01-.01zm34.716.01l-.019.018.029-.028-.01.01zm-34.831-.122l.033.032-.016-.015-.017-.017zm34.939.017l-.016.015.033-.032-.017.017zm-35.049-.126l.028.029-.028-.029zm35.176 0l-.028.029.028-.029zM7.114 42.46l.01.01-.01-.01zm35.772 0l-.01.01.01-.01zM7 42.342l.034.036-.024-.025-.01-.011zm35.99.011l-.024.025.034-.036-.01.011zm-36.103-.128l.039.04-.019-.02-.02-.02zm36.206.02l-.019.02.039-.04-.02.02zm-36.316-.137l.038.04-.012-.012-.026-.028zm36.42.028l-.012.012.038-.04-.026.028zm-36.52-.135l.027.029-.027-.029zm36.646 0l-.027.029.027-.029zm-36.828-.198l.028.03-.028-.03zm37.01 0l-.028.03.028-.03zm-37.12-.122l.044.049-.032-.036-.012-.013zm37.218.013l-.032.036.044-.049-.012.013zm-37.328-.137l.047.053-.025-.027-.022-.026zm37.428.026l-.025.027.047-.053-.022.026zm-37.538-.151l.049.056-.016-.018-.033-.038zm37.637.038l-.016.018.049-.056-.033.038zm-37.749-.167l.054.062-.008-.008-.046-.054zm37.848.054l-.008.008.054-.062-.046.054zM5.9 41.124l.071.083-.067-.078-.004-.005zm38.196.005l-.067.078.071-.083-.004.005zm-38.303-.133l.058.07-.043-.052-.015-.018zm38.399.018l-.043.052.058-.07-.015.018zm-38.506-.147l.058.07-.032-.039-.026-.031zm38.602.031l-.032.039.058-.07-.026.031zm-38.711-.165l.062.077-.022-.028-.04-.049zm38.806.049l-.022.028.062-.077-.04.049zm-38.926-.197l.078.096-.013-.015-.065-.081zm39.021.081l-.013.015.078-.096-.065.081zm-39.15-.244l.103.131a11.775 11.775 0 0 0-.103-.131zm39.344 0l-.103.131.103-.131zm-39.447-.133l.078.101-.06-.078-.018-.023zm39.532.023l-.06.078.078-.101-.018.023zM5.12 40.153l.073.095-.042-.055-.031-.04zm39.729.04l-.042.055.073-.095-.031.04zm-39.837-.182l.077.102-.029-.039-.048-.063zm39.928.063l-.029.039.077-.102-.048.063zm-40.051-.229l.099.134-.019-.025-.08-.109zm0 0A24.88 24.88 0 0 1 0 25C0 11.202 11.202 0 25 0s25 11.202 25 25a24.884 24.884 0 0 1-4.988 14.979l.099-.134L25 24 4.889 39.845z"/></svg>