<svg viewBox="0 0 29 61" xmlns="http://www.w3.org/2000/svg" fill-rule="evenodd" clip-rule="evenodd" stroke-linejoin="round" stroke-miterlimit="2"><path d="M2.996 6.592a.442.442 0 0 1 .145-.137l11.078-6.4a.434.434 0 0 1 .275-.047c.056.006.11.023.16.05L25.397 6.26c.19.047.332.22.332.423v37.283l2.581 1.49a.437.437 0 0 1 .338.424v6.221a.435.435 0 0 1-.218.478l-14 8.084a.435.435 0 0 1-.436-.001L.217 52.708A.435.435 0 0 1 0 52.331v-4.2-.021-2.1c0-.204.144-.378.335-.423l2.589-1.495V6.831c0-.088.027-.17.072-.239zM.869 52.08l13.238 7.643v-3.572L.869 48.506v3.574zm13.455 4.068v3.572l13.455-7.769v-3.572l-13.455 7.769zM.869 48.255l13.238 7.643V54.05L.869 46.407v1.683l.001.02-.001.021v.124zm26.91-.295v-1.678L14.324 54.05v1.847l13.455-7.769v-.127l-.001-.021.001-.02zM3.25 44.908L.979 46.219l13.238 7.643 13.456-7.77-2.27-1.31v1.072a.11.11 0 0 1-.043.136.135.135 0 0 1-.026.015l-11.062 6.39a.104.104 0 0 1-.038.011.088.088 0 0 1-.017.002h-.001a.102.102 0 0 1-.054-.015L3.304 46.124h-.001a.11.11 0 0 1-.053-.094v-1.122zM24.86 7.079l-10.368 5.99v.485a.054.054 0 0 1-.055.05v.002a.054.054 0 0 1-.054-.054v-.42l-.058.033v26.489l.057-.033v-1.312l.001-.01v-.403a.054.054 0 0 1 .109 0v1.739l-.001.01v1.994a.055.055 0 0 1-.055.054.054.054 0 0 1-.054-.054v-1.893l-.057.033v12.334l10.805-6.242-1.369-.791a.055.055 0 0 1-.027-.047c0-.03.024-.054.054-.054.009 0 .019.002.027.007l1.371.791v-1.12l-.086-.05a.435.435 0 0 1-.24-.388V7.079zm-10.752 32.7V13.162L3.794 7.203v37.039a.435.435 0 0 1-.218.478l-.109.063v1.184l10.641 6.144V39.905l-1.15.664a.054.054 0 0 1-.027-.011v.017a.055.055 0 0 1-.047-.027.056.056 0 0 1 .02-.074l1.204-.695zM3.895 45.775a.055.055 0 0 1-.053-.054c0-.019.01-.036.026-.046l1.506-.87a.052.052 0 0 1 .027-.007c.03 0 .054.024.054.054 0 .019-.01.037-.027.047l-1.506.87a.063.063 0 0 1-.027.006zm19.14-1.118a.052.052 0 0 1-.027-.007l-1.506-.87a.056.056 0 0 1-.02-.074.055.055 0 0 1 .074-.02l1.506.87c.016.01.026.027.026.046a.055.055 0 0 1-.053.054v.001zm-16.881-.182a.055.055 0 0 1-.053-.054c0-.019.01-.036.026-.046l1.506-.869a.052.052 0 0 1 .027-.007c.03 0 .054.024.054.054 0 .019-.01.037-.027.047l-1.506.87a.05.05 0 0 1-.027.001v.004zm8.282-.173a.054.054 0 0 1-.054-.054v-1.739a.055.055 0 0 1 .109 0v1.739a.055.055 0 0 1-.055.054zm6.34-.945a.052.052 0 0 1-.027-.007l-1.506-.87a.055.055 0 0 1-.027-.047c0-.03.024-.054.054-.054.009 0 .019.002.027.007l1.506.87c.016.01.026.027.026.046a.055.055 0 0 1-.053.054v.001zm-12.363-.182a.055.055 0 0 1-.053-.054c0-.019.01-.036.026-.046l1.506-.869a.052.052 0 0 1 .027-.007c.03 0 .054.024.054.054 0 .019-.01.037-.027.047l-1.506.87a.051.051 0 0 1-.027-.004v.009zm10.104-1.118a.052.052 0 0 1-.027-.007l-1.506-.869a.055.055 0 0 1-.027-.047c0-.03.024-.054.054-.054.009 0 .019.002.027.007l1.506.87c.016.01.026.027.026.046a.055.055 0 0 1-.053.054zm-7.845-.182a.055.055 0 0 1-.053-.054c0-.019.01-.036.026-.046l1.506-.869a.052.052 0 0 1 .027-.007c.03 0 .054.024.054.054 0 .019-.01.037-.027.047l-1.506.87a.06.06 0 0 1-.026-.008l-.001.013zm5.586-1.118a.052.052 0 0 1-.027-.007l-1.506-.87a.056.056 0 0 1-.02-.074.055.055 0 0 1 .074-.02l1.506.869c.016.01.026.027.026.046a.055.055 0 0 1-.053.054v.002zm-1.821-3.676a.054.054 0 0 1-.054-.054v-1.739a.054.054 0 0 1 .109 0v1.739c0 .03-.024.054-.054.054h-.001zm0-2.609a.054.054 0 0 1-.054-.054v-1.739a.054.054 0 0 1 .109 0v1.739c0 .03-.024.054-.054.054h-.001zm0-2.608a.054.054 0 0 1-.054-.054v-1.739a.054.054 0 0 1 .109 0v1.739c0 .03-.024.054-.054.054h-.001zm0-2.608a.054.054 0 0 1-.054-.054v-1.739a.054.054 0 0 1 .109 0v1.739a.054.054 0 0 1-.055.052v.002zm0-2.608a.054.054 0 0 1-.054-.054v-1.74a.054.054 0 0 1 .109 0v1.739c0 .03-.024.054-.054.054h-.001v.001zm0-2.608a.054.054 0 0 1-.054-.054v-1.739a.054.054 0 0 1 .109 0v1.739a.054.054 0 0 1-.055.052v.002zm0-2.609a.054.054 0 0 1-.054-.054v-1.739a.054.054 0 0 1 .109 0v1.739a.055.055 0 0 1-.054.053h-.001v.001zm0-2.608a.054.054 0 0 1-.054-.054V17.03a.054.054 0 0 1 .109 0v1.739a.054.054 0 0 1-.055.052v.002zm0-2.609a.054.054 0 0 1-.054-.054v-1.739a.054.054 0 0 1 .109 0v1.738c0 .03-.024.054-.054.054h-.001v.001zm.055-3.396L24.75 6.891 14.434.935 3.906 7.017l10.317 5.957.16-.093v-1.068a.054.054 0 0 1 .109 0v1.005zm-.055-1.82a.054.054 0 0 1-.054-.054V9.205a.054.054 0 0 1 .109 0v1.739a.054.054 0 0 1-.055.052v.002zm0-2.609a.054.054 0 0 1-.054-.054V6.594c0-.03.025-.055.054-.055.03 0 .055.025.055.055v1.739c0 .03-.024.054-.054.054h-.001v.002zm0-2.608a.054.054 0 0 1-.054-.054V3.988a.054.054 0 0 1 .109 0v1.739a.054.054 0 0 1-.055.052v.002zm0-2.608a.054.054 0 0 1-.054-.054V1.38a.054.054 0 0 1 .109 0v1.739a.054.054 0 0 1-.055.051v.003z" fill-rule="nonzero"/></svg>