<?xml version="1.0" encoding="utf-8"?>
<!-- Generator: Adobe Illustrator 25.2.1, SVG Export Plug-In . SVG Version: 6.00 Build 0)  -->
<svg version="1.1" id="Layer_1" xmlns="http://www.w3.org/2000/svg" xmlns:xlink="http://www.w3.org/1999/xlink" x="0px" y="0px"
	 viewBox="0 0 26 26" style="enable-background:new 0 0 26 26;" xml:space="preserve">
<style type="text/css">
	.st0{fill:#8B9DAC;}
</style>
<g>
	<path class="st0" d="M13,25.3C6.2,25.3,0.8,19.8,0.8,13S6.2,0.8,13,0.8S25.2,6.2,25.2,13S19.8,25.3,13,25.3z M13,1.7
		C6.8,1.7,1.7,6.8,1.7,13c0,6.2,5,11.3,11.3,11.3c6.2,0,11.3-5,11.3-11.3C24.3,6.8,19.2,1.7,13,1.7z"/>
</g>
<g>
	<path class="st0" d="M19.7,17.5c-0.1,0-0.2,0-0.3-0.1l-6.8-4.1c0,0,0,0-0.1-0.1l0-0.1c0,0,0,0,0-0.1l0-0.1c0,0,0,0,0-0.1V3.7
		c0-0.3,0.2-0.5,0.5-0.5s0.5,0.2,0.5,0.5v9l6.5,3.8c0.2,0.1,0.3,0.4,0.2,0.7C20.1,17.4,19.9,17.5,19.7,17.5z"/>
</g>
</svg>
