<svg width="43" height="43" viewBox="0 0 43 43" fill="none" xmlns="http://www.w3.org/2000/svg">
<rect x="0.90918" y="1.55078" width="40.6137" height="40.6137" rx="4.20556" stroke="white" stroke-width="1.20159"/>
<g clip-path="url(#clipCtrl0)">
<path d="M11.764 26.18C13.72 26.18 15.064 25.04 15.52 23.444L14.476 23.06C14.128 24.224 13.216 25.1 11.764 25.1C10.216 25.1 8.74 23.96 8.74 21.74C8.74 19.52 10.216 18.392 11.764 18.392C13.156 18.392 14.092 19.112 14.416 20.396L15.508 20.012C15.076 18.368 13.708 17.312 11.764 17.312C9.652 17.312 7.54 18.896 7.54 21.74C7.54 24.584 9.568 26.18 11.764 26.18ZM22.9254 18.584V17.492H16.0614V18.584H18.9054V26H20.0814V18.584H22.9254ZM28.527 26H29.895L27.867 22.436C29.151 22.196 29.931 21.248 29.931 20.024C29.931 18.62 28.935 17.492 27.327 17.492H24.123V26H25.311V22.52H26.583L28.527 26ZM25.311 21.464V18.548H27.111C28.071 18.548 28.719 19.124 28.719 20.024C28.719 20.9 28.071 21.464 27.111 21.464H25.311ZM36.7487 26V24.896H32.7287V17.492H31.5527V26H36.7487Z" fill="white"/>
</g>
<defs>
<clipPath id="clipCtrl0">
<rect width="27" height="13" fill="white" transform="translate(7.41162 15)"/>
</clipPath>
</defs>
</svg>
