<?xml version="1.0" encoding="utf-8"?>
<!-- Generator: Adobe Illustrator 25.2.1, SVG Export Plug-In . SVG Version: 6.00 Build 0)  -->
<svg version="1.1" id="Layer_1" xmlns="http://www.w3.org/2000/svg" xmlns:xlink="http://www.w3.org/1999/xlink" x="0px" y="0px"
	 viewBox="0 0 24 24" style="enable-background:new 0 0 24 24;" xml:space="preserve">
<style type="text/css">
	.st0{fill:#8B9DAC;}
</style>
<g>
	<path class="st0" d="M19.8,3.1V0h-1v3.1h-6.3V0h-1v3.1H5.2V0h-1v3.1H0V24h24V3.1H19.8z M23,23H1V4.1h3.2v2.1h1V4.1h6.3v2.1h1V4.1
		h6.3v2.1h1V4.1H23V23z"/>
	<rect x="4.2" y="14.6" class="st0" width="3.1" height="1"/>
	<rect x="4.2" y="18.8" class="st0" width="3.1" height="1"/>
	<rect x="16.7" y="14.6" class="st0" width="3.1" height="1"/>
	<rect x="16.7" y="18.8" class="st0" width="3.1" height="1"/>
	<rect x="10.4" y="14.6" class="st0" width="3.1" height="1"/>
	<rect x="16.7" y="10.4" class="st0" width="3.1" height="1"/>
	<rect x="10.4" y="10.4" class="st0" width="3.1" height="1"/>
	<rect x="10.4" y="18.8" class="st0" width="3.1" height="1"/>
</g>
</svg>
