<svg width="24" height="24" viewBox="0 0 24 24" fill="none" xmlns="http://www.w3.org/2000/svg">
<path d="M6.25404 12.6316C6.09753 13.3986 5.66179 14.0802 5.03128 14.5442C4.40077 15.0082 3.62042 15.2216 2.84154 15.143C2.06265 15.0643 1.34071 14.6992 0.8157 14.1185C0.290685 13.5378 -5.58715e-07 12.7829 -5.24495e-07 12C-4.90276e-07 11.2172 0.290685 10.4622 0.8157 9.88152C1.34071 9.30082 2.06265 8.93576 2.84154 8.85711C3.62042 8.77845 4.40077 8.99182 5.03128 9.45583C5.66179 9.91985 6.09753 10.6015 6.25404 11.3685L23.3685 11.3685C23.536 11.3685 23.6966 11.435 23.815 11.5535C23.9335 11.6719 24 11.8325 24 12C24 12.1675 23.9335 12.3282 23.815 12.4466C23.6966 12.565 23.536 12.6316 23.3685 12.6316L6.25404 12.6316ZM17.7479 21.473L0.633435 21.473C0.465943 21.473 0.305312 21.4064 0.186877 21.288C0.0684424 21.1696 0.00190643 21.0089 0.00190644 20.8414C0.00190644 20.6739 0.0684424 20.5133 0.186877 20.3949C0.305312 20.2764 0.465943 20.2099 0.633435 20.2099L17.7479 20.2099C17.9044 19.4432 18.34 18.7619 18.9702 18.2981C19.6005 17.8344 20.3805 17.6211 21.1591 17.6998C21.9376 17.7784 22.6592 18.1434 23.184 18.7238C23.7088 19.3043 23.9994 20.0589 23.9994 20.8414C23.9994 21.6239 23.7088 22.3786 23.184 22.959C22.6592 23.5395 21.9376 23.9044 21.1591 23.9831C20.3805 24.0617 19.6005 23.8485 18.9702 23.3847C18.34 22.9209 17.9044 22.2397 17.7479 21.473ZM17.7479 3.79016L0.633436 3.79015C0.465944 3.79015 0.305313 3.72362 0.186878 3.60518C0.0684431 3.48675 0.0019072 3.32612 0.00190721 3.15863C0.00190722 2.99113 0.0684432 2.8305 0.186878 2.71207C0.305313 2.59363 0.465944 2.5271 0.633436 2.5271L17.7479 2.5271C17.9044 1.7604 18.34 1.07911 18.9702 0.615336C19.6005 0.151558 20.3805 -0.0616762 21.1591 0.0169734C21.9376 0.095623 22.6592 0.460553 23.184 1.04101C23.7088 1.62148 23.9994 2.37611 23.9994 3.15863C23.9994 3.94114 23.7088 4.69578 23.184 5.27624C22.6592 5.8567 21.9376 6.22163 21.1591 6.30028C20.3805 6.37893 19.6005 6.1657 18.9702 5.70192C18.34 5.23814 17.9044 4.55686 17.7479 3.79016ZM22.7369 20.8414C22.7369 20.339 22.5373 19.8571 22.182 19.5018C21.8267 19.1465 21.3448 18.9468 20.8424 18.9468C20.3399 18.9468 19.858 19.1465 19.5027 19.5018C19.1474 19.8571 18.9478 20.339 18.9478 20.8414C18.9478 21.3439 19.1474 21.8258 19.5027 22.1811C19.858 22.5364 20.3399 22.736 20.8424 22.736C21.3448 22.736 21.8267 22.5364 22.182 22.1811C22.5373 21.8258 22.7369 21.3439 22.7369 20.8414ZM5.05414 12C5.05414 11.4976 4.85453 11.0157 4.49923 10.6604C4.14392 10.305 3.66203 10.1054 3.15955 10.1054C2.65708 10.1054 2.17518 10.305 1.81988 10.6604C1.46457 11.0157 1.26497 11.4976 1.26497 12C1.26497 12.5025 1.46457 12.9844 1.81988 13.3397C2.17518 13.695 2.65708 13.8946 3.15955 13.8946C3.66203 13.8946 4.14392 13.695 4.49923 13.3397C4.85453 12.9844 5.05414 12.5025 5.05414 12ZM22.7369 3.15863C22.7369 2.90983 22.6879 2.66346 22.5927 2.4336C22.4975 2.20374 22.358 1.99488 22.182 1.81895C22.0061 1.64302 21.7972 1.50347 21.5674 1.40826C21.3375 1.31305 21.0912 1.26404 20.8424 1.26404C20.5936 1.26404 20.3472 1.31305 20.1173 1.40826C19.8875 1.50347 19.6786 1.64302 19.5027 1.81895C19.3268 1.99488 19.1872 2.20374 19.092 2.4336C18.9968 2.66346 18.9478 2.90983 18.9478 3.15863C18.9478 3.6611 19.1474 4.143 19.5027 4.4983C19.858 4.85361 20.3399 5.05321 20.8424 5.05321C21.3448 5.05321 21.8267 4.85361 22.182 4.4983C22.5373 4.143 22.7369 3.6611 22.7369 3.15863Z" fill="#8B9DAC"/>
</svg>
