<?xml version="1.0" encoding="utf-8"?>
<!-- Generator: Adobe Illustrator 25.2.1, SVG Export Plug-In . SVG Version: 6.00 Build 0)  -->
<svg version="1.1" id="Layer_1" xmlns="http://www.w3.org/2000/svg" xmlns:xlink="http://www.w3.org/1999/xlink" x="0px" y="0px"
	 viewBox="0 0 26 26" style="enable-background:new 0 0 26 26;" xml:space="preserve">
<style type="text/css">
	.st0{fill:#8B9DAC;}
</style>
<g>
	<polygon class="st0" points="24.6,24.5 22.6,24.5 22.6,25.5 25.6,25.5 25.6,22.5 25.6,22.4 24.6,22.5 	"/>
	<polygon class="st0" points="7,24.5 7,25.5 11.3,25.5 11.3,24.5 	"/>
	<polygon class="st0" points="14.8,24.5 14.8,25.5 19.1,25.5 19.1,25.5 19.1,24.5 	"/>
	<polygon class="st0" points="1.6,24.5 1.6,22.5 0.6,22.5 0.6,25.5 3.6,25.5 3.6,25.5 3.6,24.5 	"/>
	<polygon class="st0" points="1.6,14.7 0.6,14.7 0.6,19 0.6,19 1.6,19 	"/>
	<polygon class="st0" points="1.6,6.9 0.6,6.9 0.6,11.2 1.6,11.2 	"/>
	<polygon class="st0" points="1.6,1.5 3.6,1.5 3.6,0.5 0.6,0.5 0.6,3.5 0.6,3.5 1.6,3.5 	"/>
	<polygon class="st0" points="19.1,1.5 19.1,0.5 14.8,0.5 14.8,0.5 14.8,1.5 	"/>
	<polygon class="st0" points="11.3,1.5 11.3,0.5 7,0.5 7,0.5 7,1.5 	"/>
	<polygon class="st0" points="22.6,0.5 22.6,0.5 22.6,1.5 24.6,1.5 24.6,3.5 25.6,3.5 25.6,0.5 	"/>
	<polygon class="st0" points="24.6,19 25.6,19 25.6,14.7 25.6,14.7 24.6,14.7 	"/>
	<polygon class="st0" points="24.6,11.2 25.6,11.2 25.6,6.9 25.6,6.9 24.6,6.9 	"/>
</g>
</svg>
