<?xml version="1.0" encoding="utf-8"?>
<!-- Generator: Adobe Illustrator 25.2.1, SVG Export Plug-In . SVG Version: 6.00 Build 0)  -->
<svg version="1.1" id="Layer_1" xmlns="http://www.w3.org/2000/svg" xmlns:xlink="http://www.w3.org/1999/xlink" x="0px" y="0px"
	 viewBox="0 0 22 15" style="enable-background:new 0 0 22 15;" xml:space="preserve">
<style type="text/css">
	.st0{fill:#8B9DAC;}
</style>
<g>
	<path class="st0" d="M21.1,7.4c-1.7-4-5.7-6.5-10.1-6.5c-4.4,0-8.3,2.6-10.1,6.5L0.9,7.6l0.1,0.2c1.7,4,5.7,6.5,10.1,6.5
		c4.4,0,8.3-2.6,10.1-6.5l0.1-0.2L21.1,7.4z M20.1,7.6c-1.6,3.5-5.2,5.7-9.1,5.7s-7.5-2.3-9.1-5.7C3.5,4.1,7.1,1.8,11,1.8
		C14.9,1.8,18.5,4.1,20.1,7.6z"/>
	<path class="st0" d="M11.2,3.5c-2.1,0-3.8,1.7-3.8,3.8c0,2.1,1.7,3.8,3.8,3.8c2.1,0,3.8-1.7,3.8-3.8C15,5.2,13.3,3.5,11.2,3.5z
		 M11.2,10c-1.5,0-2.8-1.2-2.8-2.8s1.2-2.8,2.8-2.8S14,5.7,14,7.3S12.8,10,11.2,10z"/>
</g>
</svg>
