<svg width="45" height="70" viewBox="0 0 45 70" fill="none" xmlns="http://www.w3.org/2000/svg">
<path opacity="0.9" d="M28.4074 4.5807e-06C13.1584 4.5807e-06 0.796388 10.592 0.796388 23.658V41.931C0.790378 41.925 28.3964 41.922 28.4074 41.931C28.3804 41.836 28.4444 -0.0159854 28.4074 4.5807e-06Z" fill="url(#paint0_radial)"/>
<path d="M28.4084 7.21094C15.7834 7.21094 5.54736 15.9819 5.54736 26.7999V41.9319C5.54239 41.9269 28.4014 41.924 28.4094 41.9319C28.3874 41.8529 28.4394 7.19794 28.4084 7.21094Z" fill="url(#paint1_radial)"/>
<path d="M27.6911 14.7012V14.7012C36.7161 14.7012 44.0331 22.0172 44.0331 31.0432V52.6712C44.0331 61.6962 36.7161 69.0132 27.6911 69.0132V69.0132C18.6661 69.0132 11.3491 61.6962 11.3491 52.6712V31.0432C11.3491 22.0172 18.6661 14.7012 27.6911 14.7012Z" stroke="white" stroke-width="0.961272"/>
<path fill-rule="evenodd" clip-rule="evenodd" d="M27.8309 15.2067C27.8269 17.5977 27.8309 24.0687 27.8359 29.9047C27.8379 33.2157 27.8399 36.3437 27.8409 38.6957C27.8419 39.9567 27.8409 40.8817 27.8409 41.5237V41.6347C28.1959 41.6347 28.6369 41.6347 29.1449 41.6347C30.4439 41.6337 32.2439 41.6337 34.3499 41.6337C36.7199 41.6337 39.2939 41.6337 41.2339 41.6347C42.1769 41.6347 42.9779 41.6347 43.5519 41.6357V30.2317C43.5519 28.2117 43.1159 26.2517 42.2559 24.4057C41.8409 23.5157 41.3279 22.6577 40.7299 21.8537C40.1359 21.0557 39.4529 20.3047 38.7009 19.6217C37.9469 18.9377 37.1169 18.3167 36.2339 17.7747C35.3419 17.2267 34.3869 16.7567 33.3959 16.3767C31.6239 15.6957 29.7559 15.3037 27.8309 15.2067M26.8759 14.2207C36.6169 14.2207 44.5129 21.3887 44.5129 30.2317V42.5987C44.5119 42.5967 39.1579 42.5947 34.3499 42.5947C30.4329 42.5947 26.8789 42.5957 26.8759 42.5987C26.8929 42.5337 26.8519 14.2207 26.8759 14.2207Z" fill="white"/>
<path d="M11.3423 42.116V30.231C11.3423 28.14 11.7903 26.111 12.6743 24.201C13.0993 23.281 13.6253 22.395 14.2383 21.565C14.8463 20.742 15.5443 19.968 16.3143 19.264C17.0843 18.56 17.9313 17.92 18.8333 17.363C19.7433 16.801 20.7173 16.317 21.7273 15.927C23.6853 15.169 25.7563 14.76 27.8923 14.707C27.8983 16.562 27.8933 23.603 27.8883 29.908C27.8863 33.218 27.8843 36.345 27.8833 38.696C27.8823 39.957 27.8833 40.881 27.8833 41.523C27.8833 41.759 27.8843 41.957 27.8843 42.116L27.7553 42.115C27.3623 42.115 26.8003 42.114 26.1153 42.114C24.8253 42.114 23.0383 42.113 20.9483 42.113C18.5963 42.113 16.0423 42.114 14.1163 42.114C13.1533 42.115 12.3403 42.115 11.7673 42.116H11.3423Z" fill="#23B4C3"/>
<path fill-rule="evenodd" clip-rule="evenodd" d="M27.4123 15.2067C25.5063 15.3047 23.6563 15.6967 21.9003 16.3757C20.9183 16.7557 19.9713 17.2257 19.0853 17.7727C18.2093 18.3147 17.3863 18.9357 16.6383 19.6197C15.8913 20.3027 15.2143 21.0527 14.6253 21.8507C14.0313 22.6547 13.5213 23.5137 13.1103 24.4027C12.2563 26.2497 11.8233 28.2107 11.8233 30.2317V41.6357C12.3933 41.6347 13.1853 41.6347 14.1163 41.6347C16.0433 41.6337 18.5973 41.6337 20.9493 41.6337C23.0403 41.6337 24.8263 41.6337 26.1163 41.6347C26.6163 41.6347 27.0514 41.6347 27.4033 41.6347V41.5237C27.4023 40.8817 27.4023 39.9567 27.4023 38.6957C27.4033 36.3447 27.4053 33.2167 27.4083 29.9057C27.4123 24.0697 27.4163 17.5987 27.4123 15.2067M28.3683 14.2207C28.3913 14.2237 28.3503 42.5337 28.3683 42.5987C28.3653 42.5957 24.8373 42.5947 20.9493 42.5947C16.1773 42.5947 10.8633 42.5967 10.8623 42.5987V30.2317C10.8623 21.3887 18.6993 14.2207 28.3683 14.2207H28.3683Z" fill="white"/>
<path d="M27.6911 20.4688C29.0181 20.4688 30.0941 21.5438 30.0941 22.8717V34.8877C30.0941 36.2147 29.0181 37.2907 27.6911 37.2907C26.3641 37.2907 25.2881 36.2147 25.2881 34.8877V22.8717C25.2881 21.5438 26.3641 20.4688 27.6911 20.4688Z" fill="#120B31"/>
<path d="M27.691 20.9492V20.9492C28.7531 20.9492 29.614 21.8102 29.614 22.8722V34.8882C29.614 35.9492 28.7531 36.8102 27.691 36.8102V36.8102C26.629 36.8102 25.769 35.9492 25.769 34.8882V22.8722C25.769 21.8102 26.629 20.9492 27.691 20.9492Z" stroke="white" stroke-width="0.961272"/>
<defs>
<radialGradient id="paint0_radial" cx="0" cy="0" r="1" gradientUnits="userSpaceOnUse" gradientTransform="translate(27.0938 41.8926) rotate(-177.806) scale(42.7663 42.6058)">
<stop stop-color="#23B4C3"/>
<stop offset="1" stop-color="#23B4C3" stop-opacity="0.01"/>
</radialGradient>
<radialGradient id="paint1_radial" cx="0" cy="0" r="1" gradientUnits="userSpaceOnUse" gradientTransform="translate(27.3212 41.8994) rotate(-179.735) scale(41.5192 41.4987)">
<stop stop-color="#23B4C3"/>
<stop offset="1" stop-color="#23B4C3" stop-opacity="0.0117647"/>
<stop offset="1" stop-color="#23B4C3" stop-opacity="0.01"/>
</radialGradient>
</defs>
</svg>
