<?xml version="1.0" encoding="utf-8"?>
<!-- Generator: Adobe Illustrator 25.2.1, SVG Export Plug-In . SVG Version: 6.00 Build 0)  -->
<svg version="1.1" id="Layer_1" xmlns="http://www.w3.org/2000/svg" xmlns:xlink="http://www.w3.org/1999/xlink" x="0px" y="0px"
	 viewBox="0 0 26 46" style="enable-background:new 0 0 26 46;" xml:space="preserve">

<polygon points="18.4,25.4 18.4,27.7 13.5,22.8 18.3,18 18.4,20.2 18.4,20.3 19.1,20.3 19.1,16.7 15.6,16.7 15.6,17.5 
	17.8,17.5 13,22.3 8.2,17.5 10.4,17.5 10.4,16.7 6.8,16.7 6.8,20.3 7.6,20.3 7.6,18 12.4,22.8 7.6,27.7 7.6,25.4 6.8,25.4 6.8,29 
	10.4,29 10.4,28.3 8.1,28.2 13,23.4 17.8,28.2 15.7,28.3 15.5,28.3 15.6,29 19.2,29 19.2,25.4 "/>
<g>
	<circle class="st1" cx="3" cy="13" r="1"/>
	<circle class="st1" cx="23" cy="13" r="1"/>
	<circle class="st1" cx="3" cy="17" r="1"/>
	<circle class="st1" cx="23" cy="17" r="1"/>
	<circle class="st1" cx="3" cy="21" r="1"/>
	<circle class="st1" cx="23" cy="21" r="1"/>
	<circle class="st1" cx="3" cy="25" r="1"/>
	<circle class="st1" cx="23" cy="25" r="1"/>
	<circle class="st1" cx="3" cy="29" r="1"/>
	<circle class="st1" cx="23" cy="29" r="1"/>
	<circle class="st1" cx="3" cy="33" r="1"/>
	<circle class="st1" cx="23" cy="33" r="1"/>
	<circle class="st1" cx="3" cy="1" r="1"/>
	<circle class="st1" cx="3" cy="5" r="1"/>
	<circle class="st1" cx="3" cy="9" r="1"/>
	<circle class="st1" cx="3" cy="37" r="1"/>
	<circle class="st1" cx="3" cy="41" r="1"/>
	<circle class="st1" cx="3" cy="45" r="1"/>
	<circle class="st1" cx="7" cy="1" r="1"/>
	<circle class="st1" cx="7" cy="5" r="1"/>
	<circle class="st1" cx="7" cy="9" r="1"/>
	<circle class="st1" cx="7" cy="13" r="1"/>
	<circle class="st1" cx="7" cy="33" r="1"/>
	<circle class="st1" cx="7" cy="37" r="1"/>
	<circle class="st1" cx="7" cy="41" r="1"/>
	<circle class="st1" cx="7" cy="45" r="1"/>
	<circle class="st1" cx="11" cy="1" r="1"/>
	<circle class="st1" cx="11" cy="5" r="1"/>
	<circle class="st1" cx="11" cy="9" r="1"/>
	<circle class="st1" cx="11" cy="13" r="1"/>
	<circle class="st1" cx="11" cy="33" r="1"/>
	<circle class="st1" cx="11" cy="37" r="1"/>
	<circle class="st1" cx="11" cy="41" r="1"/>
	<circle class="st1" cx="11" cy="45" r="1"/>
	<circle class="st1" cx="15" cy="1" r="1"/>
	<circle class="st1" cx="15" cy="5" r="1"/>
	<circle class="st1" cx="15" cy="9" r="1"/>
	<circle class="st1" cx="15" cy="13" r="1"/>
	<circle class="st1" cx="15" cy="33" r="1"/>
	<circle class="st1" cx="15" cy="37" r="1"/>
	<circle class="st1" cx="15" cy="41" r="1"/>
	<circle class="st1" cx="15" cy="45" r="1"/>
	<circle class="st1" cx="19" cy="1" r="1"/>
	<circle class="st1" cx="23" cy="1" r="1"/>
	<circle class="st1" cx="19" cy="5" r="1"/>
	<circle class="st1" cx="23" cy="5" r="1"/>
	<circle class="st1" cx="19" cy="9" r="1"/>
	<circle class="st1" cx="19" cy="13" r="1"/>
	<circle class="st1" cx="19" cy="33" r="1"/>
	<circle class="st1" cx="23" cy="9" r="1"/>
	<circle class="st1" cx="19" cy="37" r="1"/>
	<circle class="st1" cx="19" cy="41" r="1"/>
	<circle class="st1" cx="19" cy="45" r="1"/>
	<circle class="st1" cx="23" cy="37" r="1"/>
	<circle class="st1" cx="23" cy="41" r="1"/>
	<circle class="st1" cx="23" cy="45" r="1"/>
</g>
</svg>
