<?xml version="1.0" encoding="utf-8"?>
<!-- Generator: Adobe Illustrator 25.2.1, SVG Export Plug-In . SVG Version: 6.00 Build 0)  -->
<svg version="1.1" id="Layer_1" xmlns="http://www.w3.org/2000/svg" xmlns:xlink="http://www.w3.org/1999/xlink" x="0px" y="0px"
	 viewBox="0 0 22 17" style="enable-background:new 0 0 22 17;" xml:space="preserve">
<style type="text/css">
	.st0{fill:#8B9DAC;stroke:#8B9DAC;stroke-width:0.25;}
</style>
<path class="st0" d="M21.1,8.4c-0.9-2.1-2.4-3.8-4.3-4.9l1.9-1.9l0.1-0.1L18,0.8L15.8,3c-1.5-0.7-3.1-1.1-4.8-1.1
	c-4.4,0-8.3,2.6-10.1,6.5L0.9,8.6l0.1,0.2c0.9,2.1,2.4,3.7,4.2,4.9l-2,2l-0.1,0.1l0.7,0.7l2.3-2.3c1.5,0.7,3.2,1.2,4.9,1.2
	c4.4,0,8.3-2.6,10.1-6.5l0.1-0.2L21.1,8.4z M5.9,13c-1.7-1-3.1-2.5-4-4.3C3.5,5.1,7.1,2.9,11,2.9c1.4,0,2.8,0.3,4.1,0.9l-1.8,1.8
	c-1.5-1.2-3.7-1.1-5.1,0.3C7.4,6.6,7,7.6,7,8.6c0,0.9,0.3,1.7,0.8,2.4L5.9,13z M13.1,10.5l-0.3,0.3c0,0-0.1,0.1-0.2,0.1l-0.2,0.1
	c-0.1,0-0.1,0.1-0.2,0.1l-0.2,0.1c-0.1,0-0.1,0-0.2,0.1l-0.1,0l0,0l-0.1,0c-0.1,0-0.1,0-0.2,0l-0.1,0l0,0l-0.1,0c-0.1,0-0.1,0-0.2,0
	l-0.1,0l0,0h-0.4l-0.5-0.1c-0.1,0-0.1,0-0.2,0l-0.1,0l0,0l-0.1,0c-0.1,0-0.1,0-0.2-0.1l-0.1,0l0,0l-0.1-0.1c-0.1,0-0.1-0.1-0.2-0.1
	l-0.1,0l0,0L9.3,11l0.1-0.1l0,0l1.3-1.3l0,0l0.3-0.3l0,0l1-1l0,0L12,8.2l0.5-0.5l0,0l0.8-0.8l0.1,0.1c0,0.1,0.1,0.1,0.1,0.2l0.1,0.2
	c0,0.1,0,0.1,0.1,0.2l0,0.1l0,0l0,0.1c0,0.1,0,0.1,0,0.2l0,0.1l0,0l0,0.1c0,0.1,0,0.1,0,0.2l0,0.1h0l0,0.7l0,0l0,0.1
	c0,0.1,0,0.1,0,0.2l0,0.1l0,0l0,0.1c0,0.1,0,0.1-0.1,0.2l0,0.1l0,0L13.5,10c0,0-0.1,0.1-0.1,0.1l0,0.1l0,0l-0.1,0.1
	C13.3,10.3,13.2,10.4,13.1,10.5L13.1,10.5L13.1,10.5z M8.5,10.3C8.2,9.8,8,9.3,8,8.6c0-0.8,0.3-1.5,0.9-2.1c0.5-0.5,1.3-0.8,2.1-0.8
	c0.6,0,1.2,0.2,1.7,0.5L8.5,10.3z M11,14.4c-1.5,0-2.9-0.3-4.2-0.9l1.8-1.8c0,0,0.1,0.1,0.1,0.1l0.1,0.1v0l0.1,0.1
	C9,11.9,9,12,9.1,12l0.1,0.1l0,0l0,0l0.2,0.1c0.1,0,0.1,0,0.2,0.1l0.1,0l0-0.1l0,0.1l0.1,0c0.1,0,0.2,0,0.2,0.1l0.1,0v0l0.1,0
	c0.1,0,0.2,0,0.2,0l0-0.1c0,0,0,0,0,0l0,0.1l0.1,0l0-0.1l0,0.1h0.5l0-0.1l0,0.1l0.1,0c0.1,0,0.2,0,0.3,0l0.1,0l0-0.1l0,0.1l0.2-0.1
	c0.1,0,0.1,0,0.2,0l0.1,0l0,0l0,0l0.5-0.2l0,0l0,0l0.1-0.1c0,0,0.1-0.1,0.2-0.1l0.2-0.1l0-0.1l0,0.1l0.4-0.3l0-0.1l0,0l0.1-0.1
	c0,0,0.1-0.1,0.1-0.1c0,0,0,0,0,0c0,0,0,0,0,0l0.1-0.1l0,0l0,0l0.1-0.1c0.1-0.1,0.1-0.1,0.2-0.2l0.1-0.1l-0.1,0l0.1,0l0.1-0.1
	c0-0.1,0.1-0.1,0.1-0.2l0-0.1l0,0l0.1-0.2c0-0.1,0-0.1,0.1-0.2l0-0.1l-0.1,0l0.1,0l0-0.1c0-0.1,0-0.2,0.1-0.2l0-0.1l-0.1,0l0.1,0
	l0-0.1c0-0.1,0-0.2,0-0.2l0-0.1l-0.1,0l0,0l0-0.1c0,0,0-0.1,0-0.1l0-0.4c0-0.1,0-0.2,0-0.3l0-0.1l0,0l0,0l0-0.1c0-0.1,0-0.2-0.1-0.2
	l0-0.1l-0.1,0l0.1,0l0-0.1c0-0.1-0.1-0.2-0.1-0.2l-0.1-0.1l-0.1,0l0.1,0l-0.1-0.1c0-0.1-0.1-0.1-0.1-0.2l-0.1-0.1l-0.1,0l0.1-0.1
	l-0.1-0.1c0,0-0.1-0.1-0.1-0.1l2-2c1.8,1,3.2,2.5,4.1,4.4C18.5,12.1,14.9,14.4,11,14.4z"/>
</svg>
