<svg width="24" height="24" viewBox="0 0 24 24" fill="none" xmlns="http://www.w3.org/2000/svg">
<path d="M20.0557 9.22563L22.3955 11.5655H12.3677V1.60446L14.7744 3.94429L15.3092 3.34262L11.9666 0L8.62396 3.34262L9.22563 3.94429L11.5655 1.60446V11.5655H1.60446L3.94429 9.22563L3.34262 8.62396L0 11.9666L3.34262 15.3092L3.94429 14.7744L1.60446 12.3677H11.5655V22.3955L9.22563 20.0557L8.62396 20.6574L11.9666 24L15.3092 20.6574L14.7744 20.0557L12.3677 22.3955V12.3677H22.3955L20.0557 14.7744L20.6574 15.3092L24 11.9666L20.6574 8.62396L20.0557 9.22563Z" fill="#8B9DAC"/>
</svg>
