<?xml version="1.0" encoding="utf-8"?>
<!-- Generator: Adobe Illustrator 25.2.1, SVG Export Plug-In . SVG Version: 6.00 Build 0)  -->
<svg version="1.1" id="Layer_1" xmlns="http://www.w3.org/2000/svg" xmlns:xlink="http://www.w3.org/1999/xlink" x="0px" y="0px"
	 viewBox="0 0 28 26" style="enable-background:new 0 0 28 26;" xml:space="preserve">
<style type="text/css">
	.st0{fill:#8B9DAC;}
</style>
<g>
	<path class="st0" d="M27.4,10.9L25.2,13v0c0-6.8-5.5-12.2-12.2-12.2S0.8,6.2,0.8,13S6.2,25.3,13,25.3c0.4,0,0.9,0,1.2-0.1l0.2,0
		l-0.1-1l-0.3,0c-0.4,0-0.8,0-1.1,0c-3,0-5.9-1.1-8-3.3c-2.1-2.1-3.3-5-3.3-8C1.7,6.8,6.8,1.7,13,1.7c6.2,0,11.2,5,11.3,11.2l-2-2
		l-0.7,0.7l3.3,3.3l3.3-3.3L27.4,10.9z"/>
	<path class="st0" d="M18.3,22.9c-0.8,0.4-1.4,0.7-2,0.8l-0.3,0.1l0.3,1l0.2-0.1c0.7-0.2,1.5-0.6,2.2-0.9l0.2-0.1l-0.5-0.9
		L18.3,22.9z"/>
	<path class="st0" d="M23.8,16.3c-0.2,0.6-0.4,1.3-0.8,2l-0.1,0.2l0.9,0.5l0.1-0.2c0.4-0.8,0.7-1.5,0.9-2.2l0.1-0.2l-1-0.3
		L23.8,16.3z"/>
	<path class="st0" d="M21.7,20.2c-0.5,0.5-1,1.1-1.5,1.5L20,21.9l0.6,0.8l0.2-0.2c0.5-0.4,1.2-1,1.7-1.7l0.2-0.2L21.9,20L21.7,20.2z
		"/>
</g>
</svg>
